<svg width="278" height="278" viewBox="0 0 278 278" fill="none" xmlns="http://www.w3.org/2000/svg">
  <mask id="mask0_1952_5387" style="mask-type:luminance" maskUnits="userSpaceOnUse" x="0" y="0"
    width="278" height="278">
    <path fill-rule="evenodd" clip-rule="evenodd" d="M0 0H278V278H0V0Z" fill="white" />
  </mask>
  <g mask="url(#mask0_1952_5387)">
    <path fill-rule="evenodd" clip-rule="evenodd"
      d="M139 0C62.2326 0 0 62.2326 0 139C0 215.767 62.2326 278 139 278C215.767 278 278 215.767 278 139C278 62.2326 215.767 0 139 0Z"
      fill="#EFF3F9" />
  </g>
  <path fill-rule="evenodd" clip-rule="evenodd"
    d="M105.924 231.359C95.9393 231.359 87.8459 223.265 87.8459 213.281C87.8459 203.296 95.9393 195.203 105.924 195.203C115.908 195.203 124.002 203.296 124.002 213.281C124.002 223.265 115.908 231.359 105.924 231.359Z"
    fill="white" />
  <path fill-rule="evenodd" clip-rule="evenodd"
    d="M69.3663 193.945C66.4521 193.945 64.0891 191.583 64.0891 188.668C64.0891 185.754 66.4521 183.391 69.3663 183.391C72.2805 183.391 74.6435 185.754 74.6435 188.668C74.6435 191.583 72.2805 193.945 69.3663 193.945Z"
    fill="white" />
  <path fill-rule="evenodd" clip-rule="evenodd"
    d="M155.908 220.314C153.966 220.314 152.392 218.739 152.392 216.797C152.392 214.855 153.966 213.281 155.908 213.281C157.85 213.281 159.424 214.855 159.424 216.797C159.424 218.739 157.85 220.314 155.908 220.314Z"
    fill="white" />
  <path fill-rule="evenodd" clip-rule="evenodd"
    d="M204.568 54.2937C202.626 54.2937 201.052 52.7197 201.052 50.7777C201.052 48.8357 202.626 47.2617 204.568 47.2617C206.51 47.2617 208.084 48.8357 208.084 50.7777C208.084 52.7197 206.51 54.2937 204.568 54.2937Z"
    fill="white" />
  <path fill-rule="evenodd" clip-rule="evenodd"
    d="M188.822 86.2371H196.695V85.5518C196.695 83.2386 194.82 81.3633 192.506 81.3633H169.908C167.595 81.3633 165.72 83.2386 165.72 85.5518V152.349H183.282V91.777C183.282 88.7174 185.762 86.2371 188.822 86.2371Z"
    fill="#E0E8F6" />
  <mask id="mask1_1952_5387" style="mask-type:luminance" maskUnits="userSpaceOnUse" x="0" y="0"
    width="278" height="278">
    <path fill-rule="evenodd" clip-rule="evenodd" d="M0 278H278V0H0V278Z" fill="white" />
  </mask>
  <g mask="url(#mask1_1952_5387)">
    <path fill-rule="evenodd" clip-rule="evenodd"
      d="M141.945 152.352H161.151V94.5625H141.945V152.352Z" fill="#D0DBF0" />
    <path fill-rule="evenodd" clip-rule="evenodd"
      d="M189.643 78.1882H172.772C172.127 78.1882 171.605 77.666 171.605 77.0208V70.1753C171.605 69.5309 172.127 69.0078 172.772 69.0078H189.643C190.288 69.0078 190.81 69.5309 190.81 70.1753V77.0208C190.81 77.666 190.288 78.1882 189.643 78.1882Z"
      fill="#E0E8F6" />
    <path fill-rule="evenodd" clip-rule="evenodd"
      d="M137.784 152.351H98.6843V53.9659C98.6843 51.807 100.712 50.2225 102.808 50.7448L135.268 58.8421C136.746 59.2109 137.784 60.539 137.784 62.0632V152.351Z"
      fill="#D0DBF0" />
    <path fill-rule="evenodd" clip-rule="evenodd"
      d="M81.3508 152.349V118.342C81.3508 115.293 83.8231 112.82 86.8731 112.82H93.1361V152.349H81.3508Z"
      fill="#E0E8F6" />
    <path fill-rule="evenodd" clip-rule="evenodd"
      d="M179.821 145.877C179.011 145.877 178.354 145.221 178.354 144.411V92.7905C178.354 91.9798 179.011 91.3242 179.821 91.3242C180.63 91.3242 181.287 91.9798 181.287 92.7905V144.411C181.287 145.221 180.63 145.877 179.821 145.877Z"
      fill="#C0CBE2" />
    <path fill-rule="evenodd" clip-rule="evenodd"
      d="M171.684 145.877C170.874 145.877 170.218 145.221 170.218 144.411V92.7905C170.218 91.9798 170.874 91.3242 171.684 91.3242C172.494 91.3242 173.15 91.9798 173.15 92.7905V144.411C173.15 145.221 172.494 145.877 171.684 145.877Z"
      fill="#C0CBE2" />
    <path fill-rule="evenodd" clip-rule="evenodd"
      d="M130.369 73.598H107.22C105.953 73.598 104.925 72.5704 104.925 71.3033C104.925 70.0354 105.953 69.0078 107.22 69.0078H130.369C131.636 69.0078 132.664 70.0354 132.664 71.3033C132.664 72.5704 131.636 73.598 130.369 73.598Z"
      fill="#C1CAE7" />
    <path fill-rule="evenodd" clip-rule="evenodd"
      d="M130.369 83.6605H107.22C105.953 83.6605 104.925 82.6329 104.925 81.3658C104.925 80.0979 105.953 79.0703 107.22 79.0703H130.369C131.636 79.0703 132.664 80.0979 132.664 81.3658C132.664 82.6329 131.636 83.6605 130.369 83.6605Z"
      fill="#C1CAE7" />
    <path fill-rule="evenodd" clip-rule="evenodd"
      d="M130.369 93.723H107.22C105.953 93.723 104.925 92.6954 104.925 91.4275C104.925 90.1604 105.953 89.1328 107.22 89.1328H130.369C131.636 89.1328 132.664 90.1604 132.664 91.4275C132.664 92.6954 131.636 93.723 130.369 93.723Z"
      fill="#C1CAE7" />
    <path fill-rule="evenodd" clip-rule="evenodd"
      d="M130.369 103.786H107.22C105.953 103.786 104.925 102.758 104.925 101.491C104.925 100.223 105.953 99.1953 107.22 99.1953H130.369C131.636 99.1953 132.664 100.223 132.664 101.491C132.664 102.758 131.636 103.786 130.369 103.786Z"
      fill="#C1CAE7" />
    <path fill-rule="evenodd" clip-rule="evenodd"
      d="M130.369 113.844H107.22C105.953 113.844 104.925 112.816 104.925 111.549C104.925 110.282 105.953 109.254 107.22 109.254H130.369C131.636 109.254 132.664 110.282 132.664 111.549C132.664 112.816 131.636 113.844 130.369 113.844Z"
      fill="#C1CAE7" />
    <path fill-rule="evenodd" clip-rule="evenodd"
      d="M130.369 123.907H107.22C105.953 123.907 104.925 122.879 104.925 121.611C104.925 120.344 105.953 119.316 107.22 119.316H130.369C131.636 119.316 132.664 120.344 132.664 121.611C132.664 122.879 131.636 123.907 130.369 123.907Z"
      fill="#C1CAE7" />
    <path fill-rule="evenodd" clip-rule="evenodd"
      d="M130.369 133.969H107.22C105.953 133.969 104.925 132.941 104.925 131.674C104.925 130.407 105.953 129.379 107.22 129.379H130.369C131.636 129.379 132.664 130.407 132.664 131.674C132.664 132.941 131.636 133.969 130.369 133.969Z"
      fill="#C1CAE7" />
    <path fill-rule="evenodd" clip-rule="evenodd"
      d="M130.369 144.032H107.22C105.953 144.032 104.925 143.004 104.925 141.737C104.925 140.468 105.953 139.441 107.22 139.441H130.369C131.636 139.441 132.664 140.468 132.664 141.737C132.664 143.004 131.636 144.032 130.369 144.032Z"
      fill="#C1CAE7" />
    <path fill-rule="evenodd" clip-rule="evenodd"
      d="M72.3322 152.35H41.3569V91.2455C41.3569 88.48 43.5986 86.2383 46.3641 86.2383H67.325C70.0906 86.2383 72.3322 88.48 72.3322 91.2455V152.35Z"
      fill="#E0E8F6" />
    <path fill-rule="evenodd" clip-rule="evenodd"
      d="M66.4669 99.4116H47.2214C46.1439 99.4116 45.2698 98.5382 45.2698 97.4599V97.386C45.2698 96.3078 46.1439 95.4336 47.2214 95.4336H66.4669C67.5451 95.4336 68.4185 96.3078 68.4185 97.386V97.4599C68.4185 98.5382 67.5451 99.4116 66.4669 99.4116Z"
      fill="#C1CAE7" />
    <path fill-rule="evenodd" clip-rule="evenodd"
      d="M66.4669 108.134H47.2214C46.1439 108.134 45.2698 107.261 45.2698 106.183V106.109C45.2698 105.03 46.1439 104.156 47.2214 104.156H66.4669C67.5451 104.156 68.4185 105.03 68.4185 106.109V106.183C68.4185 107.261 67.5451 108.134 66.4669 108.134Z"
      fill="#C1CAE7" />
    <path fill-rule="evenodd" clip-rule="evenodd"
      d="M66.4669 116.853H47.2214C46.1439 116.853 45.2698 115.98 45.2698 114.901V114.827C45.2698 113.749 46.1439 112.875 47.2214 112.875H66.4669C67.5451 112.875 68.4185 113.749 68.4185 114.827V114.901C68.4185 115.98 67.5451 116.853 66.4669 116.853Z"
      fill="#C1CAE7" />
    <path fill-rule="evenodd" clip-rule="evenodd"
      d="M66.4669 125.572H47.2214C46.1439 125.572 45.2698 124.698 45.2698 123.62V123.546C45.2698 122.468 46.1439 121.594 47.2214 121.594H66.4669C67.5451 121.594 68.4185 122.468 68.4185 123.546V123.62C68.4185 124.698 67.5451 125.572 66.4669 125.572Z"
      fill="#C1CAE7" />
    <path fill-rule="evenodd" clip-rule="evenodd"
      d="M66.4669 134.29H47.2214C46.1439 134.29 45.2698 133.416 45.2698 132.339V132.265C45.2698 131.187 46.1439 130.312 47.2214 130.312H66.4669C67.5451 130.312 68.4185 131.187 68.4185 132.265V132.339C68.4185 133.416 67.5451 134.29 66.4669 134.29Z"
      fill="#C1CAE7" />
    <path fill-rule="evenodd" clip-rule="evenodd"
      d="M66.4669 143.008H47.2214C46.1439 143.008 45.2698 142.135 45.2698 141.057V140.983C45.2698 139.905 46.1439 139.031 47.2214 139.031H66.4669C67.5451 139.031 68.4185 139.905 68.4185 140.983V141.057C68.4185 142.135 67.5451 143.008 66.4669 143.008Z"
      fill="#C1CAE7" />
    <path fill-rule="evenodd" clip-rule="evenodd"
      d="M223.07 155.123H185.155V94.5508C185.155 91.4912 187.635 89.0117 190.694 89.0117H217.53C220.59 89.0117 223.07 91.4912 223.07 94.5508V155.123Z"
      fill="#E0E8F6" />
    <path fill-rule="evenodd" clip-rule="evenodd"
      d="M216.291 102.189H191.933C190.835 102.189 189.945 101.299 189.945 100.2C189.945 99.102 190.835 98.2109 191.933 98.2109H216.291C217.39 98.2109 218.281 99.102 218.281 100.2C218.281 101.299 217.39 102.189 216.291 102.189Z"
      fill="#C1CAE7" />
    <path fill-rule="evenodd" clip-rule="evenodd"
      d="M216.291 110.908H191.933C190.835 110.908 189.945 110.017 189.945 108.918C189.945 107.82 190.835 106.93 191.933 106.93H216.291C217.39 106.93 218.281 107.82 218.281 108.918C218.281 110.017 217.39 110.908 216.291 110.908Z"
      fill="#C1CAE7" />
    <path fill-rule="evenodd" clip-rule="evenodd"
      d="M216.291 119.626H191.933C190.835 119.626 189.945 118.736 189.945 117.637C189.945 116.539 190.835 115.648 191.933 115.648H216.291C217.39 115.648 218.281 116.539 218.281 117.637C218.281 118.736 217.39 119.626 216.291 119.626Z"
      fill="#C1CAE7" />
    <path fill-rule="evenodd" clip-rule="evenodd"
      d="M90.7719 89.1321C87.7372 89.1321 85.277 86.6719 85.277 83.6372V73.5625H64.9348V82.7526H70.2578C73.4307 82.7526 76.0026 85.3245 76.0026 88.4974V152.351H79.0357V116.262C79.0357 112.894 81.7659 110.164 85.1332 110.164H93.1365V89.1321H90.7719Z"
      fill="#D0DBF0" />
    <path fill-rule="evenodd" clip-rule="evenodd"
      d="M186.71 63.0559H175.705C175.06 63.0559 174.537 62.5336 174.537 61.8884V56.4682C174.537 55.823 175.06 55.3008 175.705 55.3008H186.71C187.355 55.3008 187.877 55.823 187.877 56.4682V61.8884C187.877 62.5336 187.355 63.0559 186.71 63.0559Z"
      fill="#E0E8F6" />
    <path fill-rule="evenodd" clip-rule="evenodd"
      d="M183.282 53.1163H179.133V42.3314C179.133 41.8919 179.489 41.5352 179.928 41.5352H182.487C182.927 41.5352 183.282 41.8919 183.282 42.3314V53.1163Z"
      fill="#E0E8F6" />
    <path fill-rule="evenodd" clip-rule="evenodd"
      d="M193.575 162.523H71.5391C69.8157 162.523 68.4185 161.126 68.4185 159.402C68.4185 157.679 69.8157 156.281 71.5391 156.281H193.575C195.298 156.281 196.695 157.679 196.695 159.402C196.695 161.126 195.298 162.523 193.575 162.523Z"
      fill="#7E89A0" />
    <path fill-rule="evenodd" clip-rule="evenodd"
      d="M267.854 168.069C267.854 159.781 261.135 153.061 252.847 153.061H241.416H233.681H36.8584C34.4914 153.061 32.5727 151.143 32.5727 148.776C32.5727 146.409 34.4914 144.49 36.8584 144.49H38.1207V138.055H30.0121C21.7243 138.055 15.0049 144.773 15.0049 153.061C15.0049 161.35 21.7243 168.069 30.0121 168.069H237.84H248.561C250.929 168.069 252.847 169.988 252.847 172.354C252.847 174.721 250.929 176.64 248.561 176.64H240.538H219.442C217.664 176.64 216.223 178.081 216.223 179.858C216.223 181.636 217.664 183.076 219.442 183.076H253.024V183.067C261.23 182.971 267.854 176.297 267.854 168.069Z"
      fill="#919DB6" />
    <path fill-rule="evenodd" clip-rule="evenodd"
      d="M203.801 176.641H183.038C181.261 176.641 179.821 178.082 179.821 179.859C179.821 181.637 181.261 183.077 183.038 183.077H203.801C205.578 183.077 207.019 181.637 207.019 179.859C207.019 178.082 205.578 176.641 203.801 176.641Z"
      fill="#919DB6" />
    <path fill-rule="evenodd" clip-rule="evenodd"
      d="M189.429 113.755V118.349H193.669V115.875C193.669 114.119 192.245 112.695 190.488 112.695C189.903 112.695 189.429 113.169 189.429 113.755Z"
      fill="#E9E3D5" />
    <path fill-rule="evenodd" clip-rule="evenodd"
      d="M220.58 146.885C220.074 146.386 219.815 145.687 219.815 144.976V138.133C219.815 135.382 218.923 132.704 217.271 130.503L209.639 120.326C208.037 118.19 205.524 116.934 202.854 116.934H182.286C179.27 116.934 176.48 118.535 174.961 121.141L167.522 133.894L158.614 134.962C158.341 134.994 158.071 135.04 157.805 135.098L151.128 143.311V150.854C151.128 153.196 153.025 155.094 155.368 155.094H217.129C219.471 155.094 221.368 153.196 221.368 150.854V148.773C221.368 148.064 221.085 147.383 220.58 146.885Z"
      fill="#FFB545" />
    <path fill-rule="evenodd" clip-rule="evenodd"
      d="M220.583 146.888C220.075 146.388 219.815 145.689 219.815 144.978V142.375V138.134C219.815 135.493 218.975 132.776 217.271 130.504L209.639 120.327C208.764 119.162 207.619 118.261 206.325 117.68C205.146 119.153 205.062 121.291 206.246 122.871L211.176 129.442L206.818 133.895H211.307C213.636 133.895 215.562 135.762 215.575 138.09V138.134V144.978V145.006C215.578 145.777 214.707 146.238 214.091 145.775C212.141 144.306 209.718 143.435 207.095 143.435C202.161 143.435 197.935 146.516 196.235 150.855H193.669V121.175H189.429V150.855H172.499C170.86 147.115 167.126 144.495 162.787 144.495C158.45 144.495 154.718 147.116 153.079 150.855H151.128C151.128 153.197 153.025 155.095 155.368 155.095H217.129C219.471 155.095 221.369 153.197 221.369 150.855V148.855C221.369 148.123 221.103 147.402 220.583 146.888Z"
      fill="#FF7E40" />
    <path fill-rule="evenodd" clip-rule="evenodd"
      d="M180.878 139.195H185.117C185.703 139.195 186.178 138.72 186.178 138.135C186.178 137.549 185.703 137.074 185.117 137.074H180.878C180.293 137.074 179.819 137.549 179.819 138.135C179.819 138.72 180.293 139.195 180.878 139.195Z"
      fill="#35404A" />
    <path fill-rule="evenodd" clip-rule="evenodd"
      d="M197.838 139.195H202.078C202.663 139.195 203.138 138.72 203.138 138.135C203.138 137.549 202.663 137.074 202.078 137.074H197.838C197.252 137.074 196.778 137.549 196.778 138.135C196.778 138.72 197.252 139.195 197.838 139.195Z"
      fill="#35404A" />
    <path fill-rule="evenodd" clip-rule="evenodd"
      d="M178.623 123.275L172.43 133.892H189.428V121.172H182.286C180.783 121.172 179.38 121.978 178.623 123.275Z"
      fill="#87F8F4" />
    <path fill-rule="evenodd" clip-rule="evenodd"
      d="M210.698 128.804L206.246 122.868C205.446 121.799 204.189 121.172 202.854 121.172H193.668V133.892H208.154C209.911 133.892 211.334 132.469 211.334 130.712C211.334 130.024 211.111 129.354 210.698 128.804Z"
      fill="#87F8F4" />
    <path fill-rule="evenodd" clip-rule="evenodd"
      d="M216.281 138.133C215.11 138.133 214.161 139.082 214.161 140.253C214.161 141.423 215.11 142.373 216.281 142.373H219.814V138.133H216.281Z"
      fill="#C5324F" />
    <path fill-rule="evenodd" clip-rule="evenodd"
      d="M152.288 139.03C152.281 139.042 152.275 139.054 152.268 139.066C152.194 139.194 152.123 139.324 152.055 139.456C151.46 140.622 151.127 141.935 151.127 143.312H153.565C155.907 143.312 157.805 141.413 157.805 139.071V135.098C155.506 135.595 153.484 137.003 152.288 139.03Z"
      fill="#E9E3D5" />
    <path fill-rule="evenodd" clip-rule="evenodd"
      d="M162.787 162.512C158.696 162.512 155.368 159.183 155.368 155.092C155.368 151.001 158.696 147.672 162.787 147.672C166.879 147.672 170.207 151.001 170.207 155.092C170.207 159.183 166.879 162.512 162.787 162.512Z"
      fill="#596775" />
    <path fill-rule="evenodd" clip-rule="evenodd"
      d="M164.305 147.828C163.434 149.435 163.678 151.486 165.036 152.843L160.539 157.34C159.181 155.982 157.13 155.739 155.523 156.608C156.226 159.974 159.216 162.512 162.787 162.512C166.879 162.512 170.208 159.183 170.208 155.091C170.208 151.52 167.669 148.531 164.305 147.828Z"
      fill="#35404A" />
    <path fill-rule="evenodd" clip-rule="evenodd"
      d="M165.967 155.093C165.967 156.851 164.544 158.274 162.787 158.274C161.031 158.274 159.608 156.851 159.608 155.093C159.608 153.337 161.031 151.914 162.787 151.914C164.544 151.914 165.967 153.337 165.967 155.093Z"
      fill="#E9E3D5" />
    <path fill-rule="evenodd" clip-rule="evenodd"
      d="M207.095 162.512C203.003 162.512 199.675 159.183 199.675 155.092C199.675 151.001 203.003 147.672 207.095 147.672C211.187 147.672 214.515 151.001 214.515 155.092C214.515 159.183 211.187 162.512 207.095 162.512Z"
      fill="#596775" />
    <path fill-rule="evenodd" clip-rule="evenodd"
      d="M208.612 147.828C207.742 149.435 207.985 151.486 209.343 152.843L204.845 157.34C203.488 155.982 201.438 155.739 199.831 156.608C200.533 159.974 203.524 162.512 207.094 162.512C211.186 162.512 214.515 159.183 214.515 155.091C214.515 151.52 211.978 148.531 208.612 147.828Z"
      fill="#35404A" />
    <path fill-rule="evenodd" clip-rule="evenodd"
      d="M210.275 155.093C210.275 156.851 208.851 158.274 207.095 158.274C205.338 158.274 203.915 156.851 203.915 155.093C203.915 153.337 205.338 151.914 207.095 151.914C208.851 151.914 210.275 153.337 210.275 155.093Z"
      fill="#E9E3D5" />
  </g>
  <mask id="mask2_1952_5387" style="mask-type:luminance" maskUnits="userSpaceOnUse" x="0" y="0"
    width="278" height="278">
    <path fill-rule="evenodd" clip-rule="evenodd"
      d="M139 0C62.2326 0 0 62.2318 0 139C0 215.768 62.2326 278 139 278C215.767 278 278 215.768 278 139"
      fill="white" />
  </mask>
  <g mask="url(#mask2_1952_5387)">
    <path fill-rule="evenodd" clip-rule="evenodd"
      d="M142.24 134.875L130.98 144.327C129.067 145.933 126.214 145.683 124.608 143.77C123.002 141.857 123.251 139.004 125.164 137.398L137.517 127.029C138.827 125.93 140.78 126.101 141.88 127.41L142.796 128.503C144.402 130.416 144.154 133.269 142.24 134.875Z"
      fill="#DBAA79" />
  </g>
  <mask id="mask3_1952_5387" style="mask-type:luminance" maskUnits="userSpaceOnUse" x="0" y="0"
    width="278" height="278">
    <path fill-rule="evenodd" clip-rule="evenodd"
      d="M139 0C62.2326 0 0 62.2318 0 139C0 215.768 62.2326 278 139 278C215.767 278 278 215.768 278 139"
      fill="white" />
  </mask>
  <g mask="url(#mask3_1952_5387)">
    <path fill-rule="evenodd" clip-rule="evenodd"
      d="M141.843 132.88L129.084 143.59C127.584 144.849 125.348 144.654 124.09 143.154L123.694 142.682C122.435 141.183 122.63 138.947 124.129 137.688L136.888 126.978C138.388 125.719 140.623 125.915 141.882 127.415L142.279 127.887C143.537 129.386 143.342 131.622 141.843 132.88Z"
      fill="#EAC897" />
  </g>
  <mask id="mask4_1952_5387" style="mask-type:luminance" maskUnits="userSpaceOnUse" x="0" y="0"
    width="278" height="278">
    <path fill-rule="evenodd" clip-rule="evenodd"
      d="M139 0C62.2326 0 0 62.2318 0 139C0 215.768 62.2326 278 139 278C215.767 278 278 215.768 278 139C278 62.2318 215.767 0 139 0Z"
      fill="white" />
  </mask>
  <g mask="url(#mask4_1952_5387)">
    <path fill-rule="evenodd" clip-rule="evenodd"
      d="M96.6045 179.848C96.4357 180.525 94.5733 214.045 95.0811 214.214C95.5889 214.382 121.49 200.163 121.49 200.163L124.538 182.726L96.6045 179.848Z"
      fill="#DBAA79" />
  </g>
  <mask id="mask5_1952_5387" style="mask-type:luminance" maskUnits="userSpaceOnUse" x="0" y="0"
    width="278" height="278">
    <path fill-rule="evenodd" clip-rule="evenodd"
      d="M139 0C62.2326 0 0 62.2318 0 139C0 215.768 62.2326 278 139 278C215.767 278 278 215.768 278 139C278 62.2318 215.767 0 139 0Z"
      fill="white" />
  </mask>
  <g mask="url(#mask5_1952_5387)">
    <path fill-rule="evenodd" clip-rule="evenodd"
      d="M131.479 177.48C130.632 179.511 129.394 198.989 120.306 209.645C109.766 222.004 102.699 220.988 101.175 221.327C100.5 222.677 99.2918 224.828 98.0248 227.02C95.71 231.029 91.6075 233.712 86.9988 234.141C86.417 234.194 85.7831 234.267 85.0929 234.362C79.6093 235.118 79.1674 237.918 75.2737 240.118C71.3801 242.319 66.9787 245.366 60.8836 242.319C53.9168 238.835 48.356 245.366 48.356 245.366L73.073 202.367C73.073 202.367 72.0567 173.755 76.9667 165.46C81.8758 157.165 97.6198 141.59 97.6198 141.59C97.6198 141.59 108.286 150.563 90.6794 164.105C90.6794 169.523 90.3404 173.586 90.3404 173.586C90.3404 173.586 103.715 177.48 99.6518 206.767C108.455 206.767 115.904 204.736 118.274 196.611C120.644 190.854 122.167 188.315 122.167 188.315C120.136 188.315 123.86 143.114 123.86 143.114L131.479 177.48Z"
      fill="#EAC897" />
  </g>
  <mask id="mask6_1952_5387" style="mask-type:luminance" maskUnits="userSpaceOnUse" x="0" y="0"
    width="278" height="278">
    <path fill-rule="evenodd" clip-rule="evenodd"
      d="M139 0C62.2326 0 0 62.2318 0 139C0 215.768 62.2326 278 139 278C215.767 278 278 215.768 278 139"
      fill="white" />
  </mask>
  <g mask="url(#mask6_1952_5387)">
    <path fill-rule="evenodd" clip-rule="evenodd"
      d="M124.974 196.64H94.2552C89.7622 196.64 86.1201 192.998 86.1201 188.504V112.311C86.1201 107.819 89.7622 104.176 94.2552 104.176H124.974C129.467 104.176 133.109 107.819 133.109 112.311V188.504C133.109 192.998 129.467 196.64 124.974 196.64Z"
      fill="#535565" />
  </g>
  <mask id="mask7_1952_5387" style="mask-type:luminance" maskUnits="userSpaceOnUse" x="0" y="0"
    width="278" height="278">
    <path fill-rule="evenodd" clip-rule="evenodd"
      d="M139 0C62.2326 0 0 62.2318 0 139C0 215.768 62.2326 278 139 278C215.767 278 278 215.768 278 139"
      fill="white" />
  </mask>
  <g mask="url(#mask7_1952_5387)">
    <path fill-rule="evenodd" clip-rule="evenodd"
      d="M123.216 194.256H96.0133C91.865 194.256 88.5024 190.893 88.5024 186.746V114.069C88.5024 109.921 91.865 106.559 96.0133 106.559H123.216C127.365 106.559 130.727 109.921 130.727 114.069V186.746C130.727 190.893 127.365 194.256 123.216 194.256Z"
      fill="#FFE3E0" />
  </g>
  <mask id="mask8_1952_5387" style="mask-type:luminance" maskUnits="userSpaceOnUse" x="0" y="0"
    width="278" height="278">
    <path fill-rule="evenodd" clip-rule="evenodd"
      d="M139 0C62.2326 0 0 62.2318 0 139C0 215.768 62.2326 278 139 278C215.767 278 278 215.768 278 139"
      fill="white" />
  </mask>
  <g mask="url(#mask8_1952_5387)">
    <path fill-rule="evenodd" clip-rule="evenodd"
      d="M123.216 194.256H96.0133C91.865 194.256 88.5024 190.893 88.5024 186.746V114.069C88.5024 109.921 91.865 106.559 96.0133 106.559H123.216C127.365 106.559 130.727 109.921 130.727 114.069V186.746C130.727 190.893 127.365 194.256 123.216 194.256Z"
      fill="#0C00E3" />
  </g>
  <mask id="mask9_1952_5387" style="mask-type:luminance" maskUnits="userSpaceOnUse" x="0" y="0"
    width="278" height="278">
    <path fill-rule="evenodd" clip-rule="evenodd"
      d="M139 0C62.2326 0 0 62.2318 0 139C0 215.768 62.2326 278 139 278C215.767 278 278 215.768 278 139"
      fill="white" />
  </mask>
  <g mask="url(#mask9_1952_5387)">
    <path fill-rule="evenodd" clip-rule="evenodd"
      d="M121.119 133.602C121.119 139.956 115.968 145.106 109.614 145.106C103.261 145.106 98.1104 139.956 98.1104 133.602C98.1104 127.248 103.261 122.098 109.614 122.098C115.968 122.098 121.119 127.248 121.119 133.602Z"
      fill="white" />
  </g>
  <mask id="mask10_1952_5387" style="mask-type:luminance" maskUnits="userSpaceOnUse" x="0" y="0"
    width="278" height="278">
    <path fill-rule="evenodd" clip-rule="evenodd"
      d="M139 0C62.2326 0 0 62.2318 0 139C0 215.768 62.2326 278 139 278C215.767 278 278 215.768 278 139"
      fill="white" />
  </mask>
  <g mask="url(#mask10_1952_5387)">
    <path
      d="M105.052 128.956C106.236 127.818 107.843 127.117 109.614 127.117C111.387 127.117 112.994 127.818 114.178 128.956"
      stroke="#0C00E3" stroke-width="1.718" />
  </g>
  <mask id="mask11_1952_5387" style="mask-type:luminance" maskUnits="userSpaceOnUse" x="0" y="0"
    width="278" height="278">
    <path fill-rule="evenodd" clip-rule="evenodd"
      d="M139 0C62.2326 0 0 62.2318 0 139C0 215.768 62.2326 278 139 278C215.767 278 278 215.768 278 139"
      fill="white" />
  </mask>
  <g mask="url(#mask11_1952_5387)">
    <path
      d="M114.67 137.93C113.462 139.374 111.646 140.294 109.615 140.294C107.584 140.294 105.767 139.374 104.559 137.93"
      stroke="#0C00E3" stroke-width="1.718" />
  </g>
  <mask id="mask12_1952_5387" style="mask-type:luminance" maskUnits="userSpaceOnUse" x="0" y="0"
    width="278" height="278">
    <path fill-rule="evenodd" clip-rule="evenodd"
      d="M139 0C62.2326 0 0 62.2318 0 139C0 215.768 62.2326 278 139 278C215.767 278 278 215.768 278 139"
      fill="white" />
  </mask>
  <g mask="url(#mask12_1952_5387)">
    <path
      d="M103.167 132.348C103.074 132.786 103.025 133.241 103.025 133.706C103.025 135.315 103.602 136.787 104.558 137.931"
      stroke="#0C00E3" stroke-width="1.718" />
  </g>
  <mask id="mask13_1952_5387" style="mask-type:luminance" maskUnits="userSpaceOnUse" x="0" y="0"
    width="278" height="278">
    <path fill-rule="evenodd" clip-rule="evenodd"
      d="M139 0C62.2326 0 0 62.2318 0 139C0 215.768 62.2326 278 139 278C215.767 278 278 215.768 278 139"
      fill="white" />
  </mask>
  <g mask="url(#mask13_1952_5387)">
    <path
      d="M114.67 137.931C115.627 136.787 116.204 135.315 116.204 133.706C116.204 133.241 116.154 132.786 116.063 132.348"
      stroke="#0C00E3" stroke-width="1.718" />
  </g>
  <mask id="mask14_1952_5387" style="mask-type:luminance" maskUnits="userSpaceOnUse" x="0" y="0"
    width="278" height="278">
    <path fill-rule="evenodd" clip-rule="evenodd"
      d="M139 0C62.2326 0 0 62.2318 0 139C0 215.768 62.2326 278 139 278C215.767 278 278 215.768 278 139"
      fill="white" />
  </mask>
  <g mask="url(#mask14_1952_5387)">
    <path d="M105.051 128.957C104.115 129.857 103.444 131.03 103.167 132.348" stroke="#0C00E3"
      stroke-width="1.718" />
  </g>
  <mask id="mask15_1952_5387" style="mask-type:luminance" maskUnits="userSpaceOnUse" x="0" y="0"
    width="278" height="278">
    <path fill-rule="evenodd" clip-rule="evenodd"
      d="M139 0C62.2326 0 0 62.2318 0 139C0 215.768 62.2326 278 139 278C215.767 278 278 215.768 278 139"
      fill="white" />
  </mask>
  <g mask="url(#mask15_1952_5387)">
    <path d="M114.178 128.957C115.115 129.857 115.786 131.03 116.063 132.348" stroke="#0C00E3"
      stroke-width="1.718" />
  </g>
  <mask id="mask16_1952_5387" style="mask-type:luminance" maskUnits="userSpaceOnUse" x="0" y="0"
    width="278" height="278">
    <path fill-rule="evenodd" clip-rule="evenodd"
      d="M139 0C62.2326 0 0 62.2318 0 139C0 215.768 62.2326 278 139 278C215.767 278 278 215.768 278 139"
      fill="white" />
  </mask>
  <g mask="url(#mask16_1952_5387)">
    <path
      d="M109.765 135.249C109.715 135.249 109.665 135.246 109.615 135.246C109.564 135.246 109.514 135.249 109.464 135.249"
      stroke="#0C00E3" stroke-width="1.718" />
  </g>
  <mask id="mask17_1952_5387" style="mask-type:luminance" maskUnits="userSpaceOnUse" x="0" y="0"
    width="278" height="278">
    <path fill-rule="evenodd" clip-rule="evenodd"
      d="M139 0C62.2326 0 0 62.2318 0 139C0 215.768 62.2326 278 139 278C215.767 278 278 215.768 278 139"
      fill="white" />
  </mask>
  <g mask="url(#mask17_1952_5387)">
    <path d="M114.67 137.929C113.718 136.365 111.884 135.295 109.765 135.246" stroke="#0C00E3"
      stroke-width="1.718" />
  </g>
  <mask id="mask18_1952_5387" style="mask-type:luminance" maskUnits="userSpaceOnUse" x="0" y="0"
    width="278" height="278">
    <path fill-rule="evenodd" clip-rule="evenodd"
      d="M139 0C62.2326 0 0 62.2318 0 139C0 215.768 62.2326 278 139 278C215.767 278 278 215.768 278 139"
      fill="white" />
  </mask>
  <g mask="url(#mask18_1952_5387)">
    <path d="M109.464 135.246C107.346 135.295 105.511 136.365 104.559 137.929" stroke="#0C00E3"
      stroke-width="1.718" />
  </g>
  <mask id="mask19_1952_5387" style="mask-type:luminance" maskUnits="userSpaceOnUse" x="0" y="0"
    width="278" height="278">
    <path fill-rule="evenodd" clip-rule="evenodd"
      d="M139 0C62.2326 0 0 62.2318 0 139C0 215.768 62.2326 278 139 278C215.767 278 278 215.768 278 139"
      fill="white" />
  </mask>
  <g mask="url(#mask19_1952_5387)">
    <path d="M109.765 135.248C112.871 135.21 115.446 133.979 116.063 132.348" stroke="#0C00E3"
      stroke-width="1.718" />
  </g>
  <mask id="mask20_1952_5387" style="mask-type:luminance" maskUnits="userSpaceOnUse" x="0" y="0"
    width="278" height="278">
    <path fill-rule="evenodd" clip-rule="evenodd"
      d="M139 0C62.2326 0 0 62.2318 0 139C0 215.768 62.2326 278 139 278C215.767 278 278 215.768 278 139"
      fill="white" />
  </mask>
  <g mask="url(#mask20_1952_5387)">
    <path
      d="M109.765 135.246C109.715 135.246 109.665 135.248 109.615 135.248C109.564 135.248 109.514 135.246 109.464 135.246"
      stroke="#0C00E3" stroke-width="1.718" />
  </g>
  <mask id="mask21_1952_5387" style="mask-type:luminance" maskUnits="userSpaceOnUse" x="0" y="0"
    width="278" height="278">
    <path fill-rule="evenodd" clip-rule="evenodd"
      d="M139 0C62.2326 0 0 62.2318 0 139C0 215.768 62.2326 278 139 278C215.767 278 278 215.768 278 139"
      fill="white" />
  </mask>
  <g mask="url(#mask21_1952_5387)">
    <path d="M109.464 135.248C106.359 135.21 103.784 133.979 103.167 132.348" stroke="#0C00E3"
      stroke-width="1.718" />
  </g>
  <mask id="mask22_1952_5387" style="mask-type:luminance" maskUnits="userSpaceOnUse" x="0" y="0"
    width="278" height="278">
    <path fill-rule="evenodd" clip-rule="evenodd"
      d="M139 0C62.2326 0 0 62.2318 0 139C0 215.768 62.2326 278 139 278C215.767 278 278 215.768 278 139"
      fill="white" />
  </mask>
  <g mask="url(#mask22_1952_5387)">
    <path fill-rule="evenodd" clip-rule="evenodd"
      d="M116.394 109.86H102.836C101.138 109.86 99.762 108.485 99.762 106.787V105.422H119.467V106.787C119.467 108.485 118.091 109.86 116.394 109.86Z"
      fill="#535565" />
  </g>
  <mask id="mask23_1952_5387" style="mask-type:luminance" maskUnits="userSpaceOnUse" x="0" y="0"
    width="278" height="278">
    <path fill-rule="evenodd" clip-rule="evenodd"
      d="M139 0C62.2326 0 0 62.2318 0 139C0 215.768 62.2326 278 139 278C215.767 278 278 215.768 278 139"
      fill="white" />
  </mask>
  <g mask="url(#mask23_1952_5387)">
    <path fill-rule="evenodd" clip-rule="evenodd"
      d="M108.782 184.39C102.279 182.931 98.1999 176.478 99.6566 169.984C99.7208 169.699 99.9731 169.499 100.262 169.497L103.035 169.48C103.337 169.478 103.597 169.693 103.652 169.99L104.232 173.103C104.283 173.377 104.146 173.65 103.898 173.775L102.079 174.688C102.565 176.882 103.826 178.842 105.565 180.191L107.167 178.936C107.387 178.765 107.693 178.758 107.918 178.921L110.484 180.776C110.729 180.953 110.812 181.279 110.682 181.552L109.481 184.052C109.355 184.313 109.066 184.454 108.782 184.39Z"
      fill="white" />
  </g>
  <mask id="mask24_1952_5387" style="mask-type:luminance" maskUnits="userSpaceOnUse" x="0" y="0"
    width="278" height="278">
    <path fill-rule="evenodd" clip-rule="evenodd"
      d="M139 0C62.2326 0 0 62.2318 0 139C0 215.768 62.2326 278 139 278C215.767 278 278 215.768 278 139"
      fill="white" />
  </mask>
  <g mask="url(#mask24_1952_5387)">
    <path fill-rule="evenodd" clip-rule="evenodd"
      d="M110.855 174.625C110.855 175.272 110.33 175.797 109.683 175.797C109.036 175.797 108.511 175.272 108.511 174.625C108.511 173.978 109.036 173.453 109.683 173.453C110.33 173.453 110.855 173.978 110.855 174.625Z"
      fill="white" />
  </g>
  <mask id="mask25_1952_5387" style="mask-type:luminance" maskUnits="userSpaceOnUse" x="0" y="0"
    width="278" height="278">
    <path fill-rule="evenodd" clip-rule="evenodd"
      d="M139 0C62.2326 0 0 62.2318 0 139C0 215.768 62.2326 278 139 278C215.767 278 278 215.768 278 139"
      fill="white" />
  </mask>
  <g mask="url(#mask25_1952_5387)">
    <path fill-rule="evenodd" clip-rule="evenodd"
      d="M114.621 174.625C114.621 175.272 114.097 175.797 113.45 175.797C112.802 175.797 112.278 175.272 112.278 174.625C112.278 173.978 112.802 173.453 113.45 173.453C114.097 173.453 114.621 173.978 114.621 174.625Z"
      fill="white" />
  </g>
  <mask id="mask26_1952_5387" style="mask-type:luminance" maskUnits="userSpaceOnUse" x="0" y="0"
    width="278" height="278">
    <path fill-rule="evenodd" clip-rule="evenodd"
      d="M139 0C62.2326 0 0 62.2318 0 139C0 215.768 62.2326 278 139 278C215.767 278 278 215.768 278 139"
      fill="white" />
  </mask>
  <g mask="url(#mask26_1952_5387)">
    <path fill-rule="evenodd" clip-rule="evenodd"
      d="M118.388 174.625C118.388 175.272 117.863 175.797 117.216 175.797C116.569 175.797 116.044 175.272 116.044 174.625C116.044 173.978 116.569 173.453 117.216 173.453C117.863 173.453 118.388 173.978 118.388 174.625Z"
      fill="white" />
  </g>
  <mask id="mask27_1952_5387" style="mask-type:luminance" maskUnits="userSpaceOnUse" x="0" y="0"
    width="278" height="278">
    <path fill-rule="evenodd" clip-rule="evenodd"
      d="M139 0C62.2326 0 0 62.2318 0 139C0 215.768 62.2326 278 139 278C215.767 278 278 215.768 278 139"
      fill="white" />
  </mask>
  <g mask="url(#mask27_1952_5387)">
    <path fill-rule="evenodd" clip-rule="evenodd"
      d="M121.913 154.004H98.0905C97.5128 154.004 97.0452 153.536 97.0452 152.959C97.0452 152.382 97.5128 151.914 98.0905 151.914H121.913C122.489 151.914 122.957 152.382 122.957 152.959C122.957 153.536 122.489 154.004 121.913 154.004Z"
      fill="white" />
  </g>
  <mask id="mask28_1952_5387" style="mask-type:luminance" maskUnits="userSpaceOnUse" x="0" y="0"
    width="278" height="278">
    <path fill-rule="evenodd" clip-rule="evenodd"
      d="M139 0C62.2326 0 0 62.2318 0 139C0 215.768 62.2326 278 139 278C215.767 278 278 215.768 278 139"
      fill="white" />
  </mask>
  <g mask="url(#mask28_1952_5387)">
    <path fill-rule="evenodd" clip-rule="evenodd"
      d="M116.757 158.848H103.246C102.669 158.848 102.201 158.381 102.201 157.803C102.201 157.226 102.669 156.758 103.246 156.758H116.757C117.334 156.758 117.802 157.226 117.802 157.803C117.802 158.381 117.334 158.848 116.757 158.848Z"
      fill="white" />
  </g>
  <mask id="mask29_1952_5387" style="mask-type:luminance" maskUnits="userSpaceOnUse" x="0" y="0"
    width="278" height="278">
    <path fill-rule="evenodd" clip-rule="evenodd"
      d="M139 0C62.2326 0 0 62.2318 0 139C0 215.768 62.2326 278 139 278C215.767 278 278 215.768 278 139C278 62.2318 215.767 0 139 0Z"
      fill="white" />
  </mask>
  <g mask="url(#mask29_1952_5387)">
    <path fill-rule="evenodd" clip-rule="evenodd"
      d="M84.7152 173.223C100.503 176.194 101.296 187.758 100.366 206.865C85.3741 204.949 82.5105 187.183 82.5105 187.183L84.7152 173.223Z"
      fill="#EAC897" />
  </g>
  <mask id="mask30_1952_5387" style="mask-type:luminance" maskUnits="userSpaceOnUse" x="0" y="0"
    width="278" height="278">
    <path fill-rule="evenodd" clip-rule="evenodd"
      d="M139 0C62.2326 0 0 62.2318 0 139C0 215.768 62.2326 278 139 278C215.767 278 278 215.768 278 139"
      fill="white" />
  </mask>
  <g mask="url(#mask30_1952_5387)">
    <path fill-rule="evenodd" clip-rule="evenodd"
      d="M75.2458 169.959C78.8285 152.507 92.3605 141.285 92.3605 141.285C92.3605 141.285 103.107 151.583 86.218 166.011C86.218 172.221 86.3409 173.87 86.3409 173.87"
      fill="#EAC897" />
  </g>
  <mask id="mask31_1952_5387" style="mask-type:luminance" maskUnits="userSpaceOnUse" x="0" y="0"
    width="278" height="278">
    <path fill-rule="evenodd" clip-rule="evenodd"
      d="M139 0C62.2326 0 0 62.2318 0 139C0 215.768 62.2326 278 139 278C215.767 278 278 215.768 278 139"
      fill="white" />
  </mask>
  <g mask="url(#mask31_1952_5387)">
    <path fill-rule="evenodd" clip-rule="evenodd"
      d="M134.016 159.947H128.941C126.306 159.947 124.171 157.812 124.171 155.176C124.171 152.542 126.306 150.406 128.941 150.406H134.016C136.651 150.406 138.787 152.542 138.787 155.176C138.787 157.812 136.651 159.947 134.016 159.947Z"
      fill="#EAC897" />
  </g>
  <mask id="mask32_1952_5387" style="mask-type:luminance" maskUnits="userSpaceOnUse" x="0" y="0"
    width="278" height="278">
    <path fill-rule="evenodd" clip-rule="evenodd"
      d="M139 0C62.2326 0 0 62.2318 0 139C0 215.768 62.2326 278 139 278C215.767 278 278 215.768 278 139"
      fill="white" />
  </mask>
  <g mask="url(#mask32_1952_5387)">
    <path fill-rule="evenodd" clip-rule="evenodd"
      d="M132.103 170.783H128.549C126.131 170.783 124.17 168.823 124.17 166.405V165.619C124.17 163.202 126.131 161.242 128.549 161.242H132.103C134.521 161.242 136.481 163.202 136.481 165.619V166.405C136.481 168.823 134.521 170.783 132.103 170.783Z"
      fill="#EAC897" />
  </g>
  <mask id="mask33_1952_5387" style="mask-type:luminance" maskUnits="userSpaceOnUse" x="0" y="0"
    width="278" height="278">
    <path fill-rule="evenodd" clip-rule="evenodd"
      d="M139 0C62.2326 0 0 62.2318 0 139C0 215.768 62.2326 278 139 278C215.767 278 278 215.768 278 139"
      fill="white" />
  </mask>
  <g mask="url(#mask33_1952_5387)">
    <path fill-rule="evenodd" clip-rule="evenodd"
      d="M133.262 182.293H132.56C129.926 182.293 127.79 180.159 127.79 177.523C127.79 174.889 129.926 172.754 132.56 172.754H133.262C135.897 172.754 138.032 174.889 138.032 177.523C138.032 180.159 135.897 182.293 133.262 182.293Z"
      fill="#EAC897" />
  </g>
  <mask id="mask34_1952_5387" style="mask-type:luminance" maskUnits="userSpaceOnUse" x="0" y="0"
    width="278" height="278">
    <path fill-rule="evenodd" clip-rule="evenodd"
      d="M139 0C62.2326 0 0 62.2318 0 139C0 215.768 62.2326 278 139 278C215.767 278 278 215.768 278 139"
      fill="white" />
  </mask>
  <g mask="url(#mask34_1952_5387)">
    <path fill-rule="evenodd" clip-rule="evenodd"
      d="M130.203 158.718C130.25 158.718 130.297 158.718 130.343 158.718C130.919 158.71 131.173 158.016 130.778 157.596C130.184 156.964 129.818 156.114 129.818 155.178C129.818 154.241 130.184 153.391 130.778 152.758C131.169 152.342 130.926 151.647 130.355 151.637C130.334 151.637 130.313 151.637 130.291 151.637C128.334 151.637 126.747 153.224 126.75 155.183C126.753 157.067 128.32 158.67 130.203 158.718Z"
      fill="#ECDBD0" />
  </g>
  <mask id="mask35_1952_5387" style="mask-type:luminance" maskUnits="userSpaceOnUse" x="0" y="0"
    width="278" height="278">
    <path fill-rule="evenodd" clip-rule="evenodd"
      d="M139 0C62.2326 0 0 62.2318 0 139C0 215.768 62.2326 278 139 278C215.767 278 278 215.768 278 139"
      fill="white" />
  </mask>
  <g mask="url(#mask35_1952_5387)">
    <path fill-rule="evenodd" clip-rule="evenodd"
      d="M129.783 169.562C129.997 169.569 130.206 169.556 130.409 169.525C130.81 169.466 130.951 168.979 130.645 168.714C129.891 168.061 129.417 167.095 129.424 166.019C129.432 164.943 129.92 163.985 130.682 163.343C130.989 163.083 130.862 162.593 130.466 162.528C130.289 162.498 130.107 162.482 129.922 162.481C127.964 162.468 126.367 164.045 126.356 166.002C126.345 167.886 127.901 169.501 129.783 169.562Z"
      fill="#ECDBD0" />
  </g>
  <mask id="mask36_1952_5387" style="mask-type:luminance" maskUnits="userSpaceOnUse" x="0" y="0"
    width="278" height="278">
    <path fill-rule="evenodd" clip-rule="evenodd"
      d="M139 0C62.2326 0 0 62.2318 0 139C0 215.768 62.2326 278 139 278C215.767 278 278 215.768 278 139"
      fill="white" />
  </mask>
  <g mask="url(#mask36_1952_5387)">
    <path fill-rule="evenodd" clip-rule="evenodd"
      d="M131.857 180.333C132.365 180.456 132.856 180.438 133.303 180.313C133.477 180.265 133.507 180.036 133.362 179.932C132.624 179.405 132.149 178.536 132.168 177.561C132.19 176.431 133.811 175.557 133.832 175.028C133.848 174.614 133.045 174.709 132.603 174.72C130.954 174.761 129.605 176.057 129.704 177.743C129.776 178.969 130.665 180.042 131.857 180.333Z"
      fill="#ECDBD0" />
  </g>
  <mask id="mask37_1952_5387" style="mask-type:luminance" maskUnits="userSpaceOnUse" x="0" y="0"
    width="278" height="278">
    <path fill-rule="evenodd" clip-rule="evenodd"
      d="M139 0C62.2326 0 0 62.2318 0 139C0 215.768 62.2326 278 139 278C215.767 278 278 215.768 278 139C278 62.2318 215.767 0 139 0Z"
      fill="white" />
  </mask>
  <g mask="url(#mask37_1952_5387)">
    <path fill-rule="evenodd" clip-rule="evenodd"
      d="M90.6448 240.322L60.7654 216.957L65.1451 211.355L95.0245 234.72L90.6448 240.322Z"
      fill="#ECECEC" />
  </g>
  <mask id="mask38_1952_5387" style="mask-type:luminance" maskUnits="userSpaceOnUse" x="0" y="0"
    width="278" height="278">
    <path fill-rule="evenodd" clip-rule="evenodd"
      d="M139 0C62.2326 0 0 62.2318 0 139C0 215.768 62.2326 278 139 278C215.767 278 278 215.768 278 139C278 62.2318 215.767 0 139 0Z"
      fill="white" />
  </mask>
  <g mask="url(#mask38_1952_5387)">
    <path fill-rule="evenodd" clip-rule="evenodd"
      d="M75.5945 266.63L38.8616 237.906L57.3381 214.277L94.0711 243.002L75.5945 266.63Z"
      fill="#535565" />
  </g>
  <mask id="mask39_1952_5387" style="mask-type:luminance" maskUnits="userSpaceOnUse" x="0" y="0"
    width="278" height="278">
    <path fill-rule="evenodd" clip-rule="evenodd"
      d="M139 0C62.2326 0 0 62.2318 0 139C0 215.768 62.2326 278 139 278C215.767 278 278 215.768 278 139C278 62.2318 215.767 0 139 0Z"
      fill="white" />
  </mask>
  <g mask="url(#mask39_1952_5387)">
    <path fill-rule="evenodd" clip-rule="evenodd"
      d="M70.4569 224.537L60.1042 216.441L64.484 210.84L74.8366 218.936L70.4569 224.537Z"
      fill="#CFCFCF" />
  </g>
  <mask id="mask40_1952_5387" style="mask-type:luminance" maskUnits="userSpaceOnUse" x="0" y="0"
    width="278" height="278">
    <path fill-rule="evenodd" clip-rule="evenodd"
      d="M139 0C62.2326 0 0 62.2318 0 139C0 215.768 62.2326 278 139 278C215.767 278 278 215.768 278 139C278 62.2318 215.767 0 139 0Z"
      fill="white" />
  </mask>
  <g mask="url(#mask40_1952_5387)">
    <path fill-rule="evenodd" clip-rule="evenodd"
      d="M50.1098 246.905L38.8459 238.097L57.3225 214.469L68.5871 223.277L50.1098 246.905Z"
      fill="#38414A" />
  </g>
  <mask id="mask41_1952_5387" style="mask-type:luminance" maskUnits="userSpaceOnUse" x="0" y="0"
    width="278" height="278">
    <path fill-rule="evenodd" clip-rule="evenodd"
      d="M139 0C62.2326 0 0 62.2318 0 139C0 215.768 62.2326 278 139 278C215.767 278 278 215.768 278 139"
      fill="white" />
  </mask>
  <g mask="url(#mask41_1952_5387)">
    <path fill-rule="evenodd" clip-rule="evenodd"
      d="M90.5134 142.992C90.5134 142.992 91.8174 145.159 91.8174 145.857C91.8174 146.556 87.175 151.823 85.7954 152.288C85.2531 152.472 82.5317 152.761 82.5317 152.761C82.5317 152.761 86.5997 146.385 90.5134 142.992Z"
      fill="#ECDBD0" />
  </g>
</svg>