<svg width="278" height="278" viewBox="0 0 278 278" fill="none" xmlns="http://www.w3.org/2000/svg">
  <mask id="mask0_1952_5572" style="mask-type:luminance" maskUnits="userSpaceOnUse" x="0" y="0"
    width="278" height="278">
    <path fill-rule="evenodd" clip-rule="evenodd" d="M0 0H278V278H0V0Z" fill="white" />
  </mask>
  <g mask="url(#mask0_1952_5572)">
    <path fill-rule="evenodd" clip-rule="evenodd"
      d="M139 0C62.2326 0 0 62.2326 0 139C0 215.767 62.2326 278 139 278C215.767 278 278 215.767 278 139C278 62.2326 215.767 0 139 0Z"
      fill="#EFF3F9" />
  </g>
  <path fill-rule="evenodd" clip-rule="evenodd"
    d="M105.924 231.359C95.9398 231.359 87.8457 223.265 87.8457 213.281C87.8457 203.296 95.9398 195.203 105.924 195.203C115.908 195.203 124.002 203.296 124.002 213.281C124.002 223.265 115.908 231.359 105.924 231.359Z"
    fill="white" />
  <path fill-rule="evenodd" clip-rule="evenodd"
    d="M69.3657 193.945C66.4516 193.945 64.0894 191.583 64.0894 188.668C64.0894 185.754 66.4516 183.391 69.3657 183.391C72.2807 183.391 74.6429 185.754 74.6429 188.668C74.6429 191.583 72.2807 193.945 69.3657 193.945Z"
    fill="white" />
  <path fill-rule="evenodd" clip-rule="evenodd"
    d="M155.908 220.314C153.966 220.314 152.392 218.739 152.392 216.797C152.392 214.855 153.966 213.281 155.908 213.281C157.85 213.281 159.424 214.855 159.424 216.797C159.424 218.739 157.85 220.314 155.908 220.314Z"
    fill="white" />
  <path fill-rule="evenodd" clip-rule="evenodd"
    d="M204.568 54.2937C202.626 54.2937 201.052 52.7197 201.052 50.7777C201.052 48.8357 202.626 47.2617 204.568 47.2617C206.51 47.2617 208.084 48.8357 208.084 50.7777C208.084 52.7197 206.51 54.2937 204.568 54.2937Z"
    fill="white" />
  <path fill-rule="evenodd" clip-rule="evenodd"
    d="M183.568 94.2996H191.441V93.6143C191.441 91.3011 189.566 89.4258 187.252 89.4258H164.654C162.341 89.4258 160.466 91.3011 160.466 93.6143V160.411H178.028V99.8395C178.028 96.7791 180.508 94.2996 183.568 94.2996Z"
    fill="#E0E8F6" />
  <mask id="mask1_1952_5572" style="mask-type:luminance" maskUnits="userSpaceOnUse" x="0" y="0"
    width="278" height="278">
    <path fill-rule="evenodd" clip-rule="evenodd" d="M0 278H278V0H0V278Z" fill="white" />
  </mask>
  <g mask="url(#mask1_1952_5572)">
    <path fill-rule="evenodd" clip-rule="evenodd"
      d="M136.691 160.411H155.897V102.621H136.691V160.411Z" fill="#D0DBF0" />
    <path fill-rule="evenodd" clip-rule="evenodd"
      d="M184.389 86.2507H167.519C166.873 86.2507 166.351 85.7277 166.351 85.0833V78.2378C166.351 77.5934 166.873 77.0703 167.519 77.0703H184.389C185.034 77.0703 185.556 77.5934 185.556 78.2378V85.0833C185.556 85.7277 185.034 86.2507 184.389 86.2507Z"
      fill="#E0E8F6" />
    <path fill-rule="evenodd" clip-rule="evenodd"
      d="M132.53 160.413H93.4297V62.0286C93.4297 59.8697 95.4584 58.2844 97.5539 58.8075L130.013 66.9049C131.492 67.2736 132.53 68.6018 132.53 70.126V160.413Z"
      fill="#D0DBF0" />
    <path fill-rule="evenodd" clip-rule="evenodd"
      d="M76.0972 160.411V126.404C76.0972 123.354 78.5686 120.883 81.6186 120.883H87.8824V160.411H76.0972Z"
      fill="#E0E8F6" />
    <path fill-rule="evenodd" clip-rule="evenodd"
      d="M174.567 153.941C173.757 153.941 173.101 153.284 173.101 152.474V100.853C173.101 100.043 173.757 99.3867 174.567 99.3867C175.377 99.3867 176.033 100.043 176.033 100.853V152.474C176.033 153.284 175.377 153.941 174.567 153.941Z"
      fill="#C0CBE2" />
    <path fill-rule="evenodd" clip-rule="evenodd"
      d="M166.43 153.941C165.62 153.941 164.964 153.284 164.964 152.474V100.853C164.964 100.043 165.62 99.3867 166.43 99.3867C167.24 99.3867 167.897 100.043 167.897 100.853V152.474C167.897 153.284 167.24 153.941 166.43 153.941Z"
      fill="#C0CBE2" />
    <path fill-rule="evenodd" clip-rule="evenodd"
      d="M125.115 81.6605H101.966C100.698 81.6605 99.6714 80.6329 99.6714 79.3658C99.6714 78.0979 100.698 77.0703 101.966 77.0703H125.115C126.383 77.0703 127.41 78.0979 127.41 79.3658C127.41 80.6329 126.383 81.6605 125.115 81.6605Z"
      fill="#C1CAE7" />
    <path fill-rule="evenodd" clip-rule="evenodd"
      d="M125.115 91.723H101.966C100.698 91.723 99.6714 90.6954 99.6714 89.4283C99.6714 88.1604 100.698 87.1328 101.966 87.1328H125.115C126.383 87.1328 127.41 88.1604 127.41 89.4283C127.41 90.6954 126.383 91.723 125.115 91.723Z"
      fill="#C1CAE7" />
    <path fill-rule="evenodd" clip-rule="evenodd"
      d="M125.115 101.786H101.966C100.698 101.786 99.6714 100.758 99.6714 99.4908C99.6714 98.2229 100.698 97.1953 101.966 97.1953H125.115C126.383 97.1953 127.41 98.2229 127.41 99.4908C127.41 100.758 126.383 101.786 125.115 101.786Z"
      fill="#C1CAE7" />
    <path fill-rule="evenodd" clip-rule="evenodd"
      d="M125.115 111.844H101.966C100.698 111.844 99.6714 110.816 99.6714 109.549C99.6714 108.281 100.698 107.254 101.966 107.254H125.115C126.383 107.254 127.41 108.281 127.41 109.549C127.41 110.816 126.383 111.844 125.115 111.844Z"
      fill="#C1CAE7" />
    <path fill-rule="evenodd" clip-rule="evenodd"
      d="M125.115 121.907H101.966C100.698 121.907 99.6714 120.879 99.6714 119.612C99.6714 118.344 100.698 117.316 101.966 117.316H125.115C126.383 117.316 127.41 118.344 127.41 119.612C127.41 120.879 126.383 121.907 125.115 121.907Z"
      fill="#C1CAE7" />
    <path fill-rule="evenodd" clip-rule="evenodd"
      d="M125.115 131.969H101.966C100.698 131.969 99.6714 130.941 99.6714 129.674C99.6714 128.407 100.698 127.379 101.966 127.379H125.115C126.383 127.379 127.41 128.407 127.41 129.674C127.41 130.941 126.383 131.969 125.115 131.969Z"
      fill="#C1CAE7" />
    <path fill-rule="evenodd" clip-rule="evenodd"
      d="M125.115 142.032H101.966C100.698 142.032 99.6714 141.004 99.6714 139.737C99.6714 138.469 100.698 137.441 101.966 137.441H125.115C126.383 137.441 127.41 138.469 127.41 139.737C127.41 141.004 126.383 142.032 125.115 142.032Z"
      fill="#C1CAE7" />
    <path fill-rule="evenodd" clip-rule="evenodd"
      d="M125.115 152.094H101.966C100.698 152.094 99.6714 151.067 99.6714 149.799C99.6714 148.532 100.698 147.504 101.966 147.504H125.115C126.383 147.504 127.41 148.532 127.41 149.799C127.41 151.067 126.383 152.094 125.115 152.094Z"
      fill="#C1CAE7" />
    <path fill-rule="evenodd" clip-rule="evenodd"
      d="M67.0778 160.413H36.1025V99.308C36.1025 96.5425 38.3442 94.3008 41.1098 94.3008H62.0714C64.8362 94.3008 67.0778 96.5425 67.0778 99.308V160.413Z"
      fill="#E0E8F6" />
    <path fill-rule="evenodd" clip-rule="evenodd"
      d="M61.2132 107.474H41.9677C40.8895 107.474 40.0161 106.601 40.0161 105.522V105.449C40.0161 104.37 40.8895 103.496 41.9677 103.496H61.2132C62.2907 103.496 63.1648 104.37 63.1648 105.449V105.522C63.1648 106.601 62.2907 107.474 61.2132 107.474Z"
      fill="#C1CAE7" />
    <path fill-rule="evenodd" clip-rule="evenodd"
      d="M61.2132 116.193H41.9677C40.8895 116.193 40.0161 115.319 40.0161 114.241V114.167C40.0161 113.089 40.8895 112.215 41.9677 112.215H61.2132C62.2907 112.215 63.1648 113.089 63.1648 114.167V114.241C63.1648 115.319 62.2907 116.193 61.2132 116.193Z"
      fill="#C1CAE7" />
    <path fill-rule="evenodd" clip-rule="evenodd"
      d="M61.2132 124.915H41.9677C40.8895 124.915 40.0161 124.041 40.0161 122.964V122.89C40.0161 121.812 40.8895 120.938 41.9677 120.938H61.2132C62.2907 120.938 63.1648 121.812 63.1648 122.89V122.964C63.1648 124.041 62.2907 124.915 61.2132 124.915Z"
      fill="#C1CAE7" />
    <path fill-rule="evenodd" clip-rule="evenodd"
      d="M61.2132 133.634H41.9677C40.8895 133.634 40.0161 132.76 40.0161 131.683V131.608C40.0161 130.53 40.8895 129.656 41.9677 129.656H61.2132C62.2907 129.656 63.1648 130.53 63.1648 131.608V131.683C63.1648 132.76 62.2907 133.634 61.2132 133.634Z"
      fill="#C1CAE7" />
    <path fill-rule="evenodd" clip-rule="evenodd"
      d="M61.2132 142.353H41.9677C40.8895 142.353 40.0161 141.479 40.0161 140.401V140.327C40.0161 139.249 40.8895 138.375 41.9677 138.375H61.2132C62.2907 138.375 63.1648 139.249 63.1648 140.327V140.401C63.1648 141.479 62.2907 142.353 61.2132 142.353Z"
      fill="#C1CAE7" />
    <path fill-rule="evenodd" clip-rule="evenodd"
      d="M61.2132 151.071H41.9677C40.8895 151.071 40.0161 150.197 40.0161 149.119V149.045C40.0161 147.967 40.8895 147.094 41.9677 147.094H61.2132C62.2907 147.094 63.1648 147.967 63.1648 149.045V149.119C63.1648 150.197 62.2907 151.071 61.2132 151.071Z"
      fill="#C1CAE7" />
    <path fill-rule="evenodd" clip-rule="evenodd"
      d="M217.816 163.186H179.901V102.614C179.901 99.5545 182.38 97.0742 185.44 97.0742H212.276C215.335 97.0742 217.816 99.5545 217.816 102.614V163.186Z"
      fill="#E0E8F6" />
    <path fill-rule="evenodd" clip-rule="evenodd"
      d="M211.037 110.251H186.68C185.581 110.251 184.691 109.36 184.691 108.262C184.691 107.164 185.581 106.273 186.68 106.273H211.037C212.136 106.273 213.027 107.164 213.027 108.262C213.027 109.36 212.136 110.251 211.037 110.251Z"
      fill="#C1CAE7" />
    <path fill-rule="evenodd" clip-rule="evenodd"
      d="M211.037 118.97H186.68C185.581 118.97 184.691 118.08 184.691 116.982C184.691 115.883 185.581 114.992 186.68 114.992H211.037C212.136 114.992 213.027 115.883 213.027 116.982C213.027 118.08 212.136 118.97 211.037 118.97Z"
      fill="#C1CAE7" />
    <path fill-rule="evenodd" clip-rule="evenodd"
      d="M211.037 127.689H186.68C185.581 127.689 184.691 126.799 184.691 125.7C184.691 124.602 185.581 123.711 186.68 123.711H211.037C212.136 123.711 213.027 124.602 213.027 125.7C213.027 126.799 212.136 127.689 211.037 127.689Z"
      fill="#C1CAE7" />
    <path fill-rule="evenodd" clip-rule="evenodd"
      d="M85.5183 97.1946C82.4836 97.1946 80.0226 94.7344 80.0226 91.6997V81.625H59.6812V90.8151H65.0033C68.1762 90.8151 70.7481 93.387 70.7481 96.5599V160.413H73.782V124.325C73.782 120.956 76.5114 118.226 79.8787 118.226H87.8821V97.1946H85.5183Z"
      fill="#D0DBF0" />
    <path fill-rule="evenodd" clip-rule="evenodd"
      d="M181.456 71.1192H170.451C169.806 71.1192 169.284 70.5961 169.284 69.9517V64.5307C169.284 63.8863 169.806 63.3633 170.451 63.3633H181.456C182.101 63.3633 182.623 63.8863 182.623 64.5307V69.9517C182.623 70.5961 182.101 71.1192 181.456 71.1192Z"
      fill="#E0E8F6" />
    <path fill-rule="evenodd" clip-rule="evenodd"
      d="M178.028 61.1788H173.878V50.3939C173.878 49.9544 174.234 49.5977 174.674 49.5977H177.233C177.672 49.5977 178.028 49.9544 178.028 50.3939V61.1788Z"
      fill="#E0E8F6" />
    <path fill-rule="evenodd" clip-rule="evenodd"
      d="M188.321 170.581H66.2852C64.5626 170.581 63.1646 169.185 63.1646 167.461C63.1646 165.737 64.5626 164.34 66.2852 164.34H188.321C190.044 164.34 191.441 165.737 191.441 167.461C191.441 169.185 190.044 170.581 188.321 170.581Z"
      fill="#7E89A0" />
    <path fill-rule="evenodd" clip-rule="evenodd"
      d="M262.6 176.132C262.6 167.843 255.881 161.124 247.593 161.124H236.162H228.427H31.6045C29.2375 161.124 27.3188 159.206 27.3188 156.839C27.3188 154.472 29.2375 152.553 31.6045 152.553H32.8668V146.117H24.7582C16.4696 146.117 9.75098 152.836 9.75098 161.124C9.75098 169.412 16.4696 176.132 24.7582 176.132H232.586H243.307C245.675 176.132 247.593 178.05 247.593 180.416C247.593 182.783 245.675 184.702 243.307 184.702H235.284H214.188C212.41 184.702 210.969 186.143 210.969 187.921C210.969 189.698 212.41 191.139 214.188 191.139H247.77V191.13C255.976 191.033 262.6 184.359 262.6 176.132Z"
      fill="#919DB6" />
    <path fill-rule="evenodd" clip-rule="evenodd"
      d="M198.547 184.703H177.784C176.007 184.703 174.566 186.144 174.566 187.922C174.566 189.699 176.007 191.14 177.784 191.14H198.547C200.324 191.14 201.765 189.699 201.765 187.922C201.765 186.144 200.324 184.703 198.547 184.703Z"
      fill="#919DB6" />
    <path fill-rule="evenodd" clip-rule="evenodd"
      d="M164.306 231.152H106.92C98.5263 231.152 91.7217 224.347 91.7217 215.953V73.6156C91.7217 65.2217 98.5263 58.418 106.92 58.418H164.306C172.7 58.418 179.505 65.2217 179.505 73.6156V215.953C179.505 224.347 172.7 231.152 164.306 231.152Z"
      fill="#535565" />
    <path fill-rule="evenodd" clip-rule="evenodd"
      d="M161.022 226.698H110.204C102.454 226.698 96.1729 220.417 96.1729 212.667V76.8982C96.1729 69.1487 102.454 62.8672 110.204 62.8672H161.022C168.772 62.8672 175.053 69.1487 175.053 76.8982V212.667C175.053 220.417 168.772 226.698 161.022 226.698Z"
      fill="#FFE3E0" />
    <path fill-rule="evenodd" clip-rule="evenodd"
      d="M161.022 226.698H110.204C102.454 226.698 96.1729 220.417 96.1729 212.667V76.8982C96.1729 69.1487 102.454 62.8672 110.204 62.8672H161.022C168.772 62.8672 175.053 69.1487 175.053 76.8982V212.667C175.053 220.417 168.772 226.698 161.022 226.698Z"
      fill="#FEA611" />
    <path fill-rule="evenodd" clip-rule="evenodd"
      d="M148.277 69.0371H122.949C119.778 69.0371 117.207 66.466 117.207 63.2955V60.7461H154.019V63.2955C154.019 66.466 151.448 69.0371 148.277 69.0371Z"
      fill="#535565" />
    <path fill-rule="evenodd" clip-rule="evenodd"
      d="M159.115 203.644H112.111C110.182 203.644 108.617 202.007 108.617 199.987V151.658C108.617 149.638 110.182 148 112.111 148H159.115C161.044 148 162.609 149.638 162.609 151.658V199.987C162.609 202.007 161.044 203.644 159.115 203.644Z"
      fill="#E5E5E5" />
    <path fill-rule="evenodd" clip-rule="evenodd"
      d="M157.864 99.322H113.362C112.284 99.322 111.41 98.4487 111.41 97.3704C111.41 96.2921 112.284 95.418 113.362 95.418H157.864C158.943 95.418 159.817 96.2921 159.817 97.3704C159.817 98.4487 158.943 99.322 157.864 99.322Z"
      fill="white" />
    <path fill-rule="evenodd" clip-rule="evenodd"
      d="M148.233 108.377H122.993C121.915 108.377 121.041 107.503 121.041 106.425C121.041 105.347 121.915 104.473 122.993 104.473H148.233C149.311 104.473 150.185 105.347 150.185 106.425C150.185 107.503 149.311 108.377 148.233 108.377Z"
      fill="white" />
    <path fill-rule="evenodd" clip-rule="evenodd"
      d="M162.479 207.431H108.747C106.744 207.431 105.122 205.749 105.122 203.675V154.862C105.122 152.787 106.744 151.105 108.747 151.105H162.479C164.481 151.105 166.104 152.787 166.104 154.862V203.675C166.104 205.749 164.481 207.431 162.479 207.431Z"
      fill="#EEEEEE" />
    <path fill-rule="evenodd" clip-rule="evenodd"
      d="M165.638 210.216H105.589C103.532 210.216 101.865 208.549 101.865 206.492V157.615C101.865 155.559 103.532 153.891 105.589 153.891H165.638C167.695 153.891 169.362 155.559 169.362 157.615V206.492C169.362 208.549 167.695 210.216 165.638 210.216Z"
      fill="white" />
    <path fill-rule="evenodd" clip-rule="evenodd"
      d="M114.707 173.819C110.571 173.819 107.218 170.466 107.218 166.33C107.218 162.194 110.571 158.84 114.707 158.84C118.842 158.84 122.196 162.194 122.196 166.33C122.196 170.466 118.842 173.819 114.707 173.819Z"
      fill="#EFEFEF" />
    <path fill-rule="evenodd" clip-rule="evenodd"
      d="M156.579 164.565H127.798C127.114 164.565 126.56 164.012 126.56 163.327C126.56 162.643 127.114 162.09 127.798 162.09H156.579C157.263 162.09 157.817 162.643 157.817 163.327C157.817 164.012 157.263 164.565 156.579 164.565Z"
      fill="#EFEFEF" />
    <path fill-rule="evenodd" clip-rule="evenodd"
      d="M101.864 179.107H169.361V178.926H101.864V179.107Z" fill="#E2E2E2" />
    <path fill-rule="evenodd" clip-rule="evenodd"
      d="M161.715 203.485H110.726C109.344 203.485 108.224 202.364 108.224 200.982V195.276C108.224 193.893 109.344 192.773 110.726 192.773H161.715C163.097 192.773 164.217 193.893 164.217 195.276V200.982C164.217 202.364 163.097 203.485 161.715 203.485Z"
      fill="#FEA611" />
  </g>
  <path
    d="M123.842 201.085C123.34 201.085 122.909 200.979 122.549 200.766C122.189 200.548 121.912 200.247 121.718 199.863C121.523 199.475 121.426 199.027 121.426 198.52C121.426 198.013 121.523 197.566 121.718 197.177C121.912 196.789 122.189 196.486 122.549 196.268C122.909 196.05 123.34 195.941 123.842 195.941C124.439 195.941 124.927 196.09 125.306 196.388C125.69 196.682 125.929 197.097 126.024 197.632H125.022C124.96 197.362 124.827 197.151 124.624 196.999C124.425 196.843 124.16 196.765 123.828 196.765C123.368 196.765 123.008 196.921 122.748 197.234C122.487 197.547 122.357 197.975 122.357 198.52C122.357 199.065 122.487 199.494 122.748 199.806C123.008 200.114 123.368 200.268 123.828 200.268C124.16 200.268 124.425 200.197 124.624 200.055C124.827 199.908 124.96 199.707 125.022 199.451H126.024C125.929 199.963 125.69 200.363 125.306 200.652C124.927 200.941 124.439 201.085 123.842 201.085ZM128.499 201.085C128.157 201.085 127.85 201.007 127.575 200.851C127.305 200.694 127.089 200.479 126.928 200.204C126.772 199.925 126.694 199.603 126.694 199.238C126.694 198.873 126.774 198.553 126.935 198.279C127.096 197.999 127.312 197.781 127.582 197.625C127.857 197.468 128.165 197.39 128.506 197.39C128.842 197.39 129.145 197.468 129.415 197.625C129.69 197.781 129.905 197.999 130.062 198.279C130.223 198.553 130.303 198.873 130.303 199.238C130.303 199.603 130.223 199.925 130.062 200.204C129.905 200.479 129.69 200.694 129.415 200.851C129.14 201.007 128.835 201.085 128.499 201.085ZM128.499 200.297C128.735 200.297 128.941 200.209 129.117 200.034C129.292 199.854 129.38 199.588 129.38 199.238C129.38 198.887 129.292 198.624 129.117 198.449C128.941 198.269 128.738 198.179 128.506 198.179C128.264 198.179 128.056 198.269 127.88 198.449C127.71 198.624 127.625 198.887 127.625 199.238C127.625 199.588 127.71 199.854 127.88 200.034C128.056 200.209 128.262 200.297 128.499 200.297ZM131.117 201V197.476H131.92L131.991 198.072C132.1 197.864 132.256 197.698 132.46 197.575C132.668 197.452 132.912 197.39 133.191 197.39C133.627 197.39 133.966 197.528 134.208 197.802C134.449 198.077 134.57 198.48 134.57 199.01V201H133.66V199.096C133.66 198.792 133.599 198.56 133.476 198.399C133.353 198.238 133.161 198.158 132.9 198.158C132.644 198.158 132.434 198.248 132.268 198.428C132.107 198.608 132.026 198.859 132.026 199.181V201H131.117ZM135.603 201V198.236H135.12V197.476H135.603V197.063C135.603 196.637 135.71 196.334 135.923 196.154C136.141 195.974 136.435 195.884 136.804 195.884H137.195V196.658H136.946C136.79 196.658 136.678 196.689 136.612 196.751C136.546 196.812 136.513 196.917 136.513 197.063V197.476H137.273V198.236H136.513V201H135.603ZM138.479 196.928C138.314 196.928 138.176 196.879 138.067 196.779C137.963 196.68 137.911 196.554 137.911 196.403C137.911 196.251 137.963 196.128 138.067 196.033C138.176 195.934 138.314 195.884 138.479 195.884C138.645 195.884 138.78 195.934 138.884 196.033C138.993 196.128 139.048 196.251 139.048 196.403C139.048 196.554 138.993 196.68 138.884 196.779C138.78 196.879 138.645 196.928 138.479 196.928ZM138.025 201V197.476H138.934V201H138.025ZM139.883 201V197.476H140.694L140.779 198.136C140.907 197.909 141.08 197.729 141.297 197.596C141.52 197.459 141.781 197.39 142.079 197.39V198.35H141.823C141.624 198.35 141.447 198.38 141.29 198.442C141.134 198.504 141.011 198.61 140.921 198.762C140.836 198.913 140.793 199.124 140.793 199.394V201H139.883ZM142.701 201V197.476H143.504L143.582 197.952C143.696 197.781 143.845 197.646 144.03 197.547C144.219 197.442 144.437 197.39 144.683 197.39C145.228 197.39 145.614 197.601 145.841 198.023C145.969 197.828 146.14 197.675 146.353 197.561C146.571 197.447 146.808 197.39 147.064 197.39C147.523 197.39 147.876 197.528 148.122 197.802C148.369 198.077 148.492 198.48 148.492 199.01V201H147.582V199.096C147.582 198.792 147.523 198.56 147.405 198.399C147.291 198.238 147.113 198.158 146.872 198.158C146.625 198.158 146.427 198.248 146.275 198.428C146.128 198.608 146.055 198.859 146.055 199.181V201H145.145V199.096C145.145 198.792 145.086 198.56 144.967 198.399C144.849 198.238 144.667 198.158 144.42 198.158C144.179 198.158 143.982 198.248 143.831 198.428C143.684 198.608 143.61 198.859 143.61 199.181V201H142.701Z"
    fill="white" />
  <path fill-rule="evenodd" clip-rule="evenodd"
    d="M130.272 169.388C130.35 169.308 130.378 169.192 130.344 169.085C130.31 168.976 130.222 168.9 130.116 168.884L129.176 168.741C129.157 168.739 129.141 168.726 129.133 168.709L128.713 167.821C128.665 167.719 128.567 167.656 128.458 167.656C128.35 167.656 128.252 167.719 128.205 167.821L127.784 168.709C127.777 168.726 127.76 168.739 127.742 168.741L126.802 168.884C126.694 168.901 126.607 168.977 126.573 169.085C126.539 169.193 126.568 169.309 126.645 169.388L127.325 170.08C127.339 170.093 127.344 170.112 127.342 170.132L127.181 171.109C127.162 171.22 127.206 171.331 127.293 171.397C127.381 171.464 127.496 171.473 127.591 171.42L128.432 170.959C128.448 170.95 128.469 170.95 128.485 170.959L129.325 171.42C129.367 171.443 129.413 171.453 129.457 171.453C129.516 171.453 129.574 171.435 129.623 171.397C129.712 171.331 129.754 171.22 129.736 171.109L129.576 170.132C129.573 170.112 129.579 170.093 129.592 170.079L130.272 169.388Z"
    fill="#FFD400" />
  <path fill-rule="evenodd" clip-rule="evenodd"
    d="M134.774 169.388C134.853 169.308 134.881 169.192 134.847 169.085C134.813 168.976 134.725 168.9 134.619 168.884L133.679 168.741C133.66 168.739 133.644 168.726 133.636 168.709L133.216 167.821C133.168 167.719 133.07 167.656 132.961 167.656C132.853 167.656 132.755 167.719 132.708 167.821L132.287 168.709C132.279 168.726 132.263 168.739 132.245 168.741L131.305 168.884C131.197 168.901 131.11 168.977 131.076 169.085C131.042 169.193 131.07 169.309 131.148 169.388L131.828 170.08C131.842 170.093 131.847 170.112 131.845 170.132L131.684 171.109C131.665 171.22 131.709 171.331 131.796 171.397C131.884 171.464 131.998 171.473 132.094 171.42L132.935 170.959C132.951 170.95 132.971 170.95 132.988 170.959L133.828 171.42C133.87 171.443 133.916 171.453 133.96 171.453C134.019 171.453 134.077 171.435 134.126 171.397C134.214 171.331 134.257 171.22 134.239 171.109L134.079 170.132C134.075 170.112 134.082 170.093 134.095 170.079L134.774 169.388Z"
    fill="#FFD400" />
  <path fill-rule="evenodd" clip-rule="evenodd"
    d="M139.615 169.388C139.694 169.308 139.721 169.192 139.687 169.085C139.653 168.976 139.565 168.9 139.459 168.884L138.519 168.741C138.5 168.739 138.484 168.726 138.476 168.709L138.056 167.821C138.008 167.719 137.911 167.656 137.801 167.656C137.693 167.656 137.596 167.719 137.548 167.821L137.127 168.709C137.12 168.726 137.103 168.739 137.085 168.741L136.145 168.884C136.038 168.901 135.95 168.977 135.916 169.085C135.883 169.193 135.911 169.309 135.988 169.388L136.668 170.08C136.682 170.093 136.688 170.112 136.685 170.132L136.524 171.109C136.505 171.22 136.55 171.331 136.636 171.397C136.724 171.464 136.839 171.473 136.934 171.42L137.776 170.959C137.792 170.95 137.812 170.95 137.828 170.959L138.668 171.42C138.71 171.443 138.756 171.453 138.8 171.453C138.86 171.453 138.917 171.435 138.966 171.397C139.055 171.331 139.097 171.22 139.08 171.109L138.919 170.132C138.916 170.112 138.922 170.093 138.935 170.079L139.615 169.388Z"
    fill="#FFD400" />
  <path fill-rule="evenodd" clip-rule="evenodd"
    d="M144.118 169.388C144.196 169.308 144.223 169.192 144.19 169.085C144.157 168.976 144.068 168.9 143.961 168.884L143.022 168.741C143.003 168.739 142.988 168.726 142.979 168.709L142.559 167.821C142.51 167.719 142.413 167.656 142.305 167.656C142.195 167.656 142.098 167.719 142.051 167.821L141.63 168.709C141.622 168.726 141.606 168.739 141.588 168.741L140.649 168.884C140.541 168.901 140.453 168.977 140.419 169.085C140.386 169.193 140.414 169.309 140.491 169.388L141.171 170.08C141.185 170.093 141.19 170.112 141.188 170.132L141.026 171.109C141.009 171.22 141.052 171.331 141.14 171.397C141.227 171.464 141.342 171.473 141.438 171.42L142.278 170.959C142.294 170.95 142.314 170.95 142.33 170.959L143.171 171.42C143.213 171.443 143.258 171.453 143.303 171.453C143.362 171.453 143.42 171.435 143.47 171.397C143.558 171.331 143.601 171.22 143.582 171.109L143.422 170.132C143.419 170.112 143.425 170.093 143.437 170.079L144.118 169.388Z"
    fill="#FFD400" />
  <path fill-rule="evenodd" clip-rule="evenodd"
    d="M148.756 169.388C148.834 169.308 148.861 169.192 148.827 169.085C148.794 168.976 148.706 168.9 148.599 168.884L147.659 168.741C147.641 168.739 147.625 168.726 147.617 168.709L147.197 167.821C147.148 167.719 147.051 167.656 146.942 167.656C146.833 167.656 146.736 167.719 146.689 167.821L146.268 168.709C146.26 168.726 146.243 168.739 146.226 168.741L145.286 168.884C145.179 168.901 145.09 168.977 145.057 169.085C145.024 169.193 145.051 169.309 145.129 169.388L145.809 170.08C145.822 170.093 145.828 170.112 145.826 170.132L145.664 171.109C145.646 171.22 145.69 171.331 145.777 171.397C145.865 171.464 145.979 171.473 146.075 171.42L146.916 170.959C146.932 170.95 146.952 170.95 146.968 170.959L147.809 171.42C147.851 171.443 147.896 171.453 147.941 171.453C148 171.453 148.058 171.435 148.107 171.397C148.195 171.331 148.238 171.22 148.22 171.109L148.06 170.132C148.057 170.112 148.062 170.093 148.075 170.079L148.756 169.388Z"
    fill="#FFD400" />
</svg>