<svg width="278" height="278" viewBox="0 0 278 278" fill="none" xmlns="http://www.w3.org/2000/svg">
  <mask id="mask0_1952_5641" style="mask-type:luminance" maskUnits="userSpaceOnUse" x="0" y="0"
    width="278" height="278">
    <path fill-rule="evenodd" clip-rule="evenodd" d="M0 0H278V278H0V0Z" fill="white" />
  </mask>
  <g mask="url(#mask0_1952_5641)">
    <path fill-rule="evenodd" clip-rule="evenodd"
      d="M139 0C62.2326 0 0 62.2326 0 139C0 215.767 62.2326 278 139 278C215.767 278 278 215.767 278 139C278 62.2326 215.767 0 139 0Z"
      fill="#EFF3F9" />
  </g>
  <path fill-rule="evenodd" clip-rule="evenodd"
    d="M105.924 231.359C95.9398 231.359 87.8457 223.265 87.8457 213.281C87.8457 203.296 95.9398 195.203 105.924 195.203C115.908 195.203 124.002 203.296 124.002 213.281C124.002 223.265 115.908 231.359 105.924 231.359Z"
    fill="white" />
  <path fill-rule="evenodd" clip-rule="evenodd"
    d="M69.3657 193.945C66.4516 193.945 64.0894 191.583 64.0894 188.668C64.0894 185.754 66.4516 183.391 69.3657 183.391C72.2807 183.391 74.6429 185.754 74.6429 188.668C74.6429 191.583 72.2807 193.945 69.3657 193.945Z"
    fill="white" />
  <path fill-rule="evenodd" clip-rule="evenodd"
    d="M155.908 220.314C153.966 220.314 152.392 218.739 152.392 216.797C152.392 214.855 153.966 213.281 155.908 213.281C157.85 213.281 159.424 214.855 159.424 216.797C159.424 218.739 157.85 220.314 155.908 220.314Z"
    fill="white" />
  <path fill-rule="evenodd" clip-rule="evenodd"
    d="M204.568 54.2937C202.626 54.2937 201.052 52.7197 201.052 50.7777C201.052 48.8357 202.626 47.2617 204.568 47.2617C206.51 47.2617 208.084 48.8357 208.084 50.7777C208.084 52.7197 206.51 54.2937 204.568 54.2937Z"
    fill="white" />
  <path fill-rule="evenodd" clip-rule="evenodd"
    d="M188.822 86.2371H196.695V85.5518C196.695 83.2386 194.82 81.3633 192.506 81.3633H169.908C167.595 81.3633 165.72 83.2386 165.72 85.5518V152.349H183.282V91.777C183.282 88.7174 185.762 86.2371 188.822 86.2371Z"
    fill="#E0E8F6" />
  <mask id="mask1_1952_5641" style="mask-type:luminance" maskUnits="userSpaceOnUse" x="0" y="0"
    width="278" height="278">
    <path fill-rule="evenodd" clip-rule="evenodd" d="M0 278H278V0H0V278Z" fill="white" />
  </mask>
  <g mask="url(#mask1_1952_5641)">
    <path fill-rule="evenodd" clip-rule="evenodd"
      d="M141.945 152.352H161.151V94.5625H141.945V152.352Z" fill="#D0DBF0" />
    <path fill-rule="evenodd" clip-rule="evenodd"
      d="M189.643 78.1882H172.772C172.127 78.1882 171.605 77.666 171.605 77.0208V70.1753C171.605 69.5309 172.127 69.0078 172.772 69.0078H189.643C190.288 69.0078 190.81 69.5309 190.81 70.1753V77.0208C190.81 77.666 190.288 78.1882 189.643 78.1882Z"
      fill="#E0E8F6" />
    <path fill-rule="evenodd" clip-rule="evenodd"
      d="M137.784 152.351H98.6836V53.9659C98.6836 51.807 100.712 50.2225 102.808 50.7448L135.267 58.8421C136.746 59.2109 137.784 60.539 137.784 62.0632V152.351Z"
      fill="#D0DBF0" />
    <path fill-rule="evenodd" clip-rule="evenodd"
      d="M81.3511 152.349V118.342C81.3511 115.293 83.8225 112.82 86.8725 112.82H93.1363V152.349H81.3511Z"
      fill="#E0E8F6" />
    <path fill-rule="evenodd" clip-rule="evenodd"
      d="M179.821 145.877C179.011 145.877 178.354 145.221 178.354 144.411V92.7905C178.354 91.9798 179.011 91.3242 179.821 91.3242C180.631 91.3242 181.287 91.9798 181.287 92.7905V144.411C181.287 145.221 180.631 145.877 179.821 145.877Z"
      fill="#C0CBE2" />
    <path fill-rule="evenodd" clip-rule="evenodd"
      d="M171.684 145.877C170.874 145.877 170.218 145.221 170.218 144.411V92.7905C170.218 91.9798 170.874 91.3242 171.684 91.3242C172.494 91.3242 173.15 91.9798 173.15 92.7905V144.411C173.15 145.221 172.494 145.877 171.684 145.877Z"
      fill="#C0CBE2" />
    <path fill-rule="evenodd" clip-rule="evenodd"
      d="M130.369 73.598H107.22C105.953 73.598 104.926 72.5704 104.926 71.3033C104.926 70.0354 105.953 69.0078 107.22 69.0078H130.369C131.637 69.0078 132.664 70.0354 132.664 71.3033C132.664 72.5704 131.637 73.598 130.369 73.598Z"
      fill="#C1CAE7" />
    <path fill-rule="evenodd" clip-rule="evenodd"
      d="M130.369 83.6605H107.22C105.953 83.6605 104.926 82.6329 104.926 81.3658C104.926 80.0979 105.953 79.0703 107.22 79.0703H130.369C131.637 79.0703 132.664 80.0979 132.664 81.3658C132.664 82.6329 131.637 83.6605 130.369 83.6605Z"
      fill="#C1CAE7" />
    <path fill-rule="evenodd" clip-rule="evenodd"
      d="M130.369 93.723H107.22C105.953 93.723 104.926 92.6954 104.926 91.4275C104.926 90.1604 105.953 89.1328 107.22 89.1328H130.369C131.637 89.1328 132.664 90.1604 132.664 91.4275C132.664 92.6954 131.637 93.723 130.369 93.723Z"
      fill="#C1CAE7" />
    <path fill-rule="evenodd" clip-rule="evenodd"
      d="M130.369 103.786H107.22C105.953 103.786 104.926 102.758 104.926 101.491C104.926 100.223 105.953 99.1953 107.22 99.1953H130.369C131.637 99.1953 132.664 100.223 132.664 101.491C132.664 102.758 131.637 103.786 130.369 103.786Z"
      fill="#C1CAE7" />
    <path fill-rule="evenodd" clip-rule="evenodd"
      d="M130.369 113.844H107.22C105.953 113.844 104.926 112.816 104.926 111.549C104.926 110.282 105.953 109.254 107.22 109.254H130.369C131.637 109.254 132.664 110.282 132.664 111.549C132.664 112.816 131.637 113.844 130.369 113.844Z"
      fill="#C1CAE7" />
    <path fill-rule="evenodd" clip-rule="evenodd"
      d="M130.369 123.907H107.22C105.953 123.907 104.926 122.879 104.926 121.611C104.926 120.344 105.953 119.316 107.22 119.316H130.369C131.637 119.316 132.664 120.344 132.664 121.611C132.664 122.879 131.637 123.907 130.369 123.907Z"
      fill="#C1CAE7" />
    <path fill-rule="evenodd" clip-rule="evenodd"
      d="M130.369 133.969H107.22C105.953 133.969 104.926 132.941 104.926 131.674C104.926 130.407 105.953 129.379 107.22 129.379H130.369C131.637 129.379 132.664 130.407 132.664 131.674C132.664 132.941 131.637 133.969 130.369 133.969Z"
      fill="#C1CAE7" />
    <path fill-rule="evenodd" clip-rule="evenodd"
      d="M130.369 144.032H107.22C105.953 144.032 104.926 143.004 104.926 141.737C104.926 140.468 105.953 139.441 107.22 139.441H130.369C131.637 139.441 132.664 140.468 132.664 141.737C132.664 143.004 131.637 144.032 130.369 144.032Z"
      fill="#C1CAE7" />
    <path fill-rule="evenodd" clip-rule="evenodd"
      d="M72.3318 152.35H41.3564V91.2455C41.3564 88.48 43.5981 86.2383 46.3637 86.2383H67.3253C70.0901 86.2383 72.3318 88.48 72.3318 91.2455V152.35Z"
      fill="#E0E8F6" />
    <path fill-rule="evenodd" clip-rule="evenodd"
      d="M66.4674 99.4116H47.222C46.1437 99.4116 45.2695 98.5382 45.2695 97.4599V97.386C45.2695 96.3078 46.1437 95.4336 47.222 95.4336H66.4674C67.5449 95.4336 68.4191 96.3078 68.4191 97.386V97.4599C68.4191 98.5382 67.5449 99.4116 66.4674 99.4116Z"
      fill="#C1CAE7" />
    <path fill-rule="evenodd" clip-rule="evenodd"
      d="M66.4674 108.134H47.222C46.1437 108.134 45.2695 107.261 45.2695 106.183V106.109C45.2695 105.03 46.1437 104.156 47.222 104.156H66.4674C67.5449 104.156 68.4191 105.03 68.4191 106.109V106.183C68.4191 107.261 67.5449 108.134 66.4674 108.134Z"
      fill="#C1CAE7" />
    <path fill-rule="evenodd" clip-rule="evenodd"
      d="M66.4674 116.853H47.222C46.1437 116.853 45.2695 115.98 45.2695 114.901V114.827C45.2695 113.749 46.1437 112.875 47.222 112.875H66.4674C67.5449 112.875 68.4191 113.749 68.4191 114.827V114.901C68.4191 115.98 67.5449 116.853 66.4674 116.853Z"
      fill="#C1CAE7" />
    <path fill-rule="evenodd" clip-rule="evenodd"
      d="M66.4674 125.572H47.222C46.1437 125.572 45.2695 124.698 45.2695 123.62V123.546C45.2695 122.468 46.1437 121.594 47.222 121.594H66.4674C67.5449 121.594 68.4191 122.468 68.4191 123.546V123.62C68.4191 124.698 67.5449 125.572 66.4674 125.572Z"
      fill="#C1CAE7" />
    <path fill-rule="evenodd" clip-rule="evenodd"
      d="M66.4674 134.29H47.222C46.1437 134.29 45.2695 133.416 45.2695 132.339V132.265C45.2695 131.187 46.1437 130.312 47.222 130.312H66.4674C67.5449 130.312 68.4191 131.187 68.4191 132.265V132.339C68.4191 133.416 67.5449 134.29 66.4674 134.29Z"
      fill="#C1CAE7" />
    <path fill-rule="evenodd" clip-rule="evenodd"
      d="M66.4674 143.008H47.222C46.1437 143.008 45.2695 142.135 45.2695 141.057V140.983C45.2695 139.905 46.1437 139.031 47.222 139.031H66.4674C67.5449 139.031 68.4191 139.905 68.4191 140.983V141.057C68.4191 142.135 67.5449 143.008 66.4674 143.008Z"
      fill="#C1CAE7" />
    <path fill-rule="evenodd" clip-rule="evenodd"
      d="M223.07 155.123H185.155V94.5508C185.155 91.4912 187.635 89.0117 190.694 89.0117H217.53C220.59 89.0117 223.07 91.4912 223.07 94.5508V155.123Z"
      fill="#E0E8F6" />
    <path fill-rule="evenodd" clip-rule="evenodd"
      d="M216.291 102.189H191.933C190.835 102.189 189.945 101.299 189.945 100.2C189.945 99.102 190.835 98.2109 191.933 98.2109H216.291C217.39 98.2109 218.281 99.102 218.281 100.2C218.281 101.299 217.39 102.189 216.291 102.189Z"
      fill="#C1CAE7" />
    <path fill-rule="evenodd" clip-rule="evenodd"
      d="M216.291 110.908H191.933C190.835 110.908 189.945 110.017 189.945 108.918C189.945 107.82 190.835 106.93 191.933 106.93H216.291C217.39 106.93 218.281 107.82 218.281 108.918C218.281 110.017 217.39 110.908 216.291 110.908Z"
      fill="#C1CAE7" />
    <path fill-rule="evenodd" clip-rule="evenodd"
      d="M216.291 119.626H191.933C190.835 119.626 189.945 118.736 189.945 117.637C189.945 116.539 190.835 115.648 191.933 115.648H216.291C217.39 115.648 218.281 116.539 218.281 117.637C218.281 118.736 217.39 119.626 216.291 119.626Z"
      fill="#C1CAE7" />
    <path fill-rule="evenodd" clip-rule="evenodd"
      d="M90.7722 89.1321C87.7375 89.1321 85.2765 86.6719 85.2765 83.6372V73.5625H64.9351V82.7526H70.2572C73.4301 82.7526 76.002 85.3245 76.002 88.4974V152.351H79.0359V116.262C79.0359 112.894 81.7653 110.164 85.1326 110.164H93.136V89.1321H90.7722Z"
      fill="#D0DBF0" />
    <path fill-rule="evenodd" clip-rule="evenodd"
      d="M186.71 63.0559H175.705C175.06 63.0559 174.537 62.5336 174.537 61.8884V56.4682C174.537 55.823 175.06 55.3008 175.705 55.3008H186.71C187.355 55.3008 187.877 55.823 187.877 56.4682V61.8884C187.877 62.5336 187.355 63.0559 186.71 63.0559Z"
      fill="#E0E8F6" />
    <path fill-rule="evenodd" clip-rule="evenodd"
      d="M183.283 53.1163H179.133V42.3314C179.133 41.8919 179.489 41.5352 179.928 41.5352H182.487C182.927 41.5352 183.283 41.8919 183.283 42.3314V53.1163Z"
      fill="#E0E8F6" />
    <path fill-rule="evenodd" clip-rule="evenodd"
      d="M193.575 162.523H71.5391C69.8165 162.523 68.4185 161.126 68.4185 159.402C68.4185 157.679 69.8165 156.281 71.5391 156.281H193.575C195.298 156.281 196.695 157.679 196.695 159.402C196.695 161.126 195.298 162.523 193.575 162.523Z"
      fill="#7E89A0" />
    <path fill-rule="evenodd" clip-rule="evenodd"
      d="M267.854 168.069C267.854 159.781 261.135 153.061 252.847 153.061H241.416H233.681H36.8584C34.4914 153.061 32.5727 151.143 32.5727 148.776C32.5727 146.409 34.4914 144.49 36.8584 144.49H38.1207V138.055H30.0121C21.7235 138.055 15.0049 144.773 15.0049 153.061C15.0049 161.35 21.7235 168.069 30.0121 168.069H237.84H248.561C250.929 168.069 252.847 169.988 252.847 172.354C252.847 174.721 250.929 176.64 248.561 176.64H240.538H219.442C217.664 176.64 216.223 178.081 216.223 179.858C216.223 181.636 217.664 183.076 219.442 183.076H253.024V183.067C261.23 182.971 267.854 176.297 267.854 168.069Z"
      fill="#919DB6" />
    <path fill-rule="evenodd" clip-rule="evenodd"
      d="M203.801 176.641H183.038C181.261 176.641 179.82 178.082 179.82 179.859C179.82 181.637 181.261 183.077 183.038 183.077H203.801C205.578 183.077 207.019 181.637 207.019 179.859C207.019 178.082 205.578 176.641 203.801 176.641Z"
      fill="#919DB6" />
    <path fill-rule="evenodd" clip-rule="evenodd"
      d="M106.932 207.961H163.979L174.825 232.065H96.4873L106.932 207.961Z" fill="#DCE3ED" />
    <path fill-rule="evenodd" clip-rule="evenodd"
      d="M96.4878 235.276H174.826V232.062H96.4878V235.276Z" fill="#B3C5D0" />
    <path fill-rule="evenodd" clip-rule="evenodd"
      d="M153.196 223.427H129.091C127.205 223.427 125.677 221.899 125.677 220.012C125.677 218.127 127.205 216.598 129.091 216.598H153.196C155.081 216.598 156.61 218.127 156.61 220.012C156.61 221.899 155.081 223.427 153.196 223.427Z"
      fill="#B3C5D0" />
    <path fill-rule="evenodd" clip-rule="evenodd"
      d="M139.151 152.684C115.887 152.684 97.6016 134.765 97.6016 111.967C97.6016 89.1681 115.886 71.25 139.151 71.25C162.415 71.25 180.699 89.1681 180.699 111.967C180.699 134.765 162.414 152.684 139.151 152.684Z"
      fill="white" />
    <path fill-rule="evenodd" clip-rule="evenodd"
      d="M139.151 144.225C120.719 144.225 106.232 130.028 106.232 111.966C106.232 93.9032 120.719 79.7067 139.151 79.7067C157.582 79.7067 172.069 93.9032 172.069 111.966C172.069 130.028 157.581 144.225 139.151 144.225ZM139.151 52.4258C105.734 52.4258 78.3955 79.2174 78.3955 111.966C78.3955 156.621 139.151 222.541 139.151 222.541C139.151 222.541 199.906 156.621 199.906 111.966C199.906 79.2174 172.568 52.4258 139.151 52.4258Z"
      fill="#1108B7" />
  </g>
  <mask id="mask2_1952_5641" style="mask-type:luminance" maskUnits="userSpaceOnUse" x="78" y="52"
    width="62" height="171">
    <path fill-rule="evenodd" clip-rule="evenodd"
      d="M78.3955 52.4805H139.15V222.596H78.3955V52.4805Z" fill="white" />
  </mask>
  <g mask="url(#mask2_1952_5641)">
    <path fill-rule="evenodd" clip-rule="evenodd"
      d="M139.151 144.28C120.719 144.28 106.232 130.083 106.232 112.021C106.232 93.9579 120.719 79.7622 139.151 79.7622C157.582 79.7622 172.069 93.9579 172.069 112.021C172.069 130.083 157.581 144.28 139.151 144.28ZM139.151 52.4805C105.734 52.4805 78.3955 79.2729 78.3955 112.021C78.3955 156.677 139.151 222.596 139.151 222.596C139.151 222.596 199.906 156.677 199.906 112.021C199.906 79.2729 172.568 52.4805 139.151 52.4805Z"
      fill="#0C00E3" />
  </g>
  <path fill-rule="evenodd" clip-rule="evenodd"
    d="M141.042 96.9776V99.7094H143.564V98.2382C143.564 97.1945 142.717 96.3477 141.673 96.3477C141.325 96.3477 141.042 96.6297 141.042 96.9776Z"
    fill="#E9E3D5" />
  <path fill-rule="evenodd" clip-rule="evenodd"
    d="M159.568 116.683C159.267 116.386 159.113 115.971 159.113 115.547V111.478C159.113 109.842 158.581 108.249 157.599 106.94L153.06 100.888C152.108 99.6183 150.613 98.8711 149.026 98.8711H136.794C135.001 98.8711 133.342 99.8232 132.438 101.373L128.014 108.957L122.717 109.593C122.554 109.612 122.394 109.638 122.235 109.673L118.265 114.557V119.043C118.265 120.435 119.393 121.565 120.785 121.565H157.515C158.908 121.565 160.037 120.435 160.037 119.043V117.806C160.037 117.384 159.868 116.98 159.568 116.683Z"
    fill="#3E35F5" />
  <path fill-rule="evenodd" clip-rule="evenodd"
    d="M159.569 116.683C159.267 116.385 159.113 115.97 159.113 115.546V113.999V111.477C159.113 109.906 158.613 108.29 157.599 106.939L153.06 100.886C152.541 100.194 151.859 99.658 151.09 99.3125C150.389 100.189 150.339 101.46 151.044 102.399L153.975 106.307L151.384 108.956H154.054C155.438 108.956 156.583 110.066 156.591 111.45V111.477V115.546V115.563C156.592 116.022 156.074 116.297 155.709 116.021C154.549 115.147 153.108 114.629 151.548 114.629C148.613 114.629 146.101 116.462 145.09 119.042H143.563V101.391H141.041V119.042H130.974C129.999 116.818 127.779 115.26 125.199 115.26C122.619 115.26 120.399 116.818 119.425 119.042H118.265C118.265 120.434 119.393 121.564 120.785 121.564H157.515C158.908 121.564 160.037 120.434 160.037 119.042V117.853C160.037 117.417 159.879 116.988 159.569 116.683Z"
    fill="#0C00E3" />
  <path fill-rule="evenodd" clip-rule="evenodd"
    d="M135.957 112.108H138.479C138.827 112.108 139.109 111.825 139.109 111.478C139.109 111.13 138.827 110.848 138.479 110.848H135.957C135.609 110.848 135.327 111.13 135.327 111.478C135.327 111.825 135.609 112.108 135.957 112.108Z"
    fill="#35404A" />
  <path fill-rule="evenodd" clip-rule="evenodd"
    d="M146.043 112.108H148.564C148.912 112.108 149.195 111.825 149.195 111.478C149.195 111.13 148.912 110.848 148.564 110.848H146.043C145.694 110.848 145.412 111.13 145.412 111.478C145.412 111.825 145.694 112.108 146.043 112.108Z"
    fill="#35404A" />
  <path fill-rule="evenodd" clip-rule="evenodd"
    d="M134.616 102.642L130.933 108.955H141.042V101.391H136.794C135.901 101.391 135.066 101.87 134.616 102.642Z"
    fill="#87F8F4" />
  <path fill-rule="evenodd" clip-rule="evenodd"
    d="M153.691 105.929L151.043 102.399C150.567 101.763 149.82 101.391 149.026 101.391H143.563V108.955H152.178C153.222 108.955 154.069 108.108 154.069 107.064C154.069 106.655 153.937 106.256 153.691 105.929Z"
    fill="#87F8F4" />
  <path fill-rule="evenodd" clip-rule="evenodd"
    d="M157.012 111.477C156.315 111.477 155.751 112.041 155.751 112.737C155.751 113.434 156.315 113.998 157.012 113.998H159.113V111.477H157.012Z"
    fill="#1008A7" />
  <path fill-rule="evenodd" clip-rule="evenodd"
    d="M118.955 112.011C118.951 112.017 118.947 112.025 118.943 112.032C118.899 112.108 118.856 112.186 118.816 112.264C118.462 112.957 118.265 113.738 118.265 114.556H119.713C121.107 114.556 122.235 113.428 122.235 112.035V109.672C120.869 109.968 119.666 110.806 118.955 112.011Z"
    fill="#E9E3D5" />
  <path fill-rule="evenodd" clip-rule="evenodd"
    d="M125.198 125.974C122.765 125.974 120.786 123.995 120.786 121.561C120.786 119.127 122.765 117.148 125.198 117.148C127.631 117.148 129.611 119.127 129.611 121.561C129.611 123.995 127.631 125.974 125.198 125.974Z"
    fill="#596775" />
  <path fill-rule="evenodd" clip-rule="evenodd"
    d="M126.101 117.242C125.583 118.198 125.728 119.417 126.535 120.225L123.861 122.899C123.053 122.091 121.834 121.946 120.879 122.464C121.297 124.465 123.074 125.974 125.198 125.974C127.631 125.974 129.611 123.995 129.611 121.562C129.611 119.437 128.102 117.66 126.101 117.242Z"
    fill="#35404A" />
  <path fill-rule="evenodd" clip-rule="evenodd"
    d="M127.09 121.563C127.09 122.608 126.243 123.455 125.198 123.455C124.154 123.455 123.308 122.608 123.308 121.563C123.308 120.519 124.154 119.672 125.198 119.672C126.243 119.672 127.09 120.519 127.09 121.563Z"
    fill="#E9E3D5" />
  <path fill-rule="evenodd" clip-rule="evenodd"
    d="M151.548 125.974C149.115 125.974 147.135 123.995 147.135 121.561C147.135 119.127 149.115 117.148 151.548 117.148C153.981 117.148 155.961 119.127 155.961 121.561C155.961 123.995 153.981 125.974 151.548 125.974Z"
    fill="#596775" />
  <path fill-rule="evenodd" clip-rule="evenodd"
    d="M152.45 117.242C151.933 118.198 152.077 119.417 152.885 120.225L150.211 122.899C149.403 122.091 148.184 121.946 147.229 122.464C147.646 124.465 149.424 125.974 151.548 125.974C153.981 125.974 155.961 123.995 155.961 121.562C155.961 119.437 154.452 117.66 152.45 117.242Z"
    fill="#35404A" />
  <path fill-rule="evenodd" clip-rule="evenodd"
    d="M153.439 121.563C153.439 122.608 152.592 123.455 151.548 123.455C150.504 123.455 149.657 122.608 149.657 121.563C149.657 120.519 150.504 119.672 151.548 119.672C152.592 119.672 153.439 120.519 153.439 121.563Z"
    fill="#E9E3D5" />
</svg>