<svg width="375" height="264" viewBox="0 0 375 264" fill="none" xmlns="http://www.w3.org/2000/svg">
<g filter="url(#filter0_d_1952_5304)">
<path fill-rule="evenodd" clip-rule="evenodd" d="M222.435 0V20.1065H230.126V98.3495H240.229V74.2539H245.55V68.4338L257.188 74.2539H260.039V59.779L273.965 38.7993L287.89 59.779V109.003H294.427V118.569H304.072V79.5288H312.066L311.733 63.3303H320.983V58.6909H330.356L331.798 30.6357L333.24 58.6909H335.043V63.3303H337.475L336.584 106.712H338.31V87.5727L357.69 74.2539V98.3495H377.07V79.5288H389.032V68.4338L409.525 85.2718V68.4338L437 91.01V256H416.508H409.525H389.905H389.032H377.07H357.69H338.31H334.294H316.909H314.915H305.193H304.072H287.89H277.342H260.039H240.229H230.126H213.004H205.684H188.515H183.859H168.093H159.508H145.641H140.617H133.465H121.29H118.164H105.989H99.4185H93.8129H71.9438H62.883H51.0982H39.312H30.2389H27.5273H14.3643H10.8596H-1V95.2041H8.3327L7.67844 63.3303H27.5273V17.1915H39.312V26.9991H51.0982V35.9786H62.883V82.2732H71.9438V60.749H75.17V58.3752H96.1915V60.749H99.4185V105.631H105.989V47.9485H109.216V45.5747H130.237V47.9485H133.465V81.1646H140.617V60.749H143.844V58.3752H164.864V60.749H168.093V68.4338L174.838 76.8885V91.0633H183.859V82.2732H188.515V60.749H205.684V48.0059L213.004 40.7377V20.1065H220.696V0H222.435Z" fill="white" fill-opacity="0.2"/>
<path fill-rule="evenodd" clip-rule="evenodd" d="M284.533 90V103.038H279.388V153.774H272.63V138.149H269.071V134.375L261.285 138.149H259.378V128.763L250.062 115.159L240.747 128.763V160.682H236.374V166.885H229.922V141.569H224.575L224.798 131.066H218.609V128.057H212.34L211.375 109.865L210.41 128.057H209.204V131.066H207.577L208.173 159.196H207.018V146.785L194.055 138.149V153.774H181.09V141.569H173.088V134.375L159.38 145.293V134.375L141 149.014V256H154.708H159.38H172.504H173.088H181.09H194.055H207.018H209.705H221.335H222.669H229.172H229.922H240.747H247.803H259.378H272.63H279.388H290.842H295.739H307.224H310.339H320.885H326.628H335.905H339.266H344.05H352.194H354.285H362.43H366.825H370.575H385.204H391.266H399.149H407.033H413.103H414.917H423.722H426.067H434V151.734H427.757L428.195 131.066H414.917V101.148H407.033V107.507H399.149V113.33H391.266V143.349H385.204V129.392H383.046V127.853H368.984V129.392H366.825V158.495H362.43V121.092H360.271V119.552H346.209V121.092H344.05V142.63H339.266V129.392H337.107V127.853H323.045V129.392H320.885V134.375L316.373 139.857V149.049H310.339V143.349H307.224V129.392H295.739V121.129L290.842 116.416V103.038H285.697V90H284.533Z" fill="white" fill-opacity="0.2"/>
<path fill-rule="evenodd" clip-rule="evenodd" d="M25.2014 90H26.103V103.038H30.0895V116.416L33.883 121.129V129.392H42.7813V143.349H45.194V149.049H49.8692V139.857L53.3651 134.375V129.392H55.0383V127.853H65.9326V129.392H67.6051V142.63H71.3116V121.092H72.9844V119.552H83.8787V121.092H85.5515V158.495H88.9566V129.392H90.6291V127.853H101.524V129.392H103.196V143.349H107.892V113.33H113.999V107.507H120.108V101.148H126.215V131.066H136.502L136.163 151.734H141V256H-86V149.014L-71.7605 134.375V145.293L-61.1401 134.375V141.569H-54.9401V153.774H-44.8962V138.149L-34.8526 146.785V159.196H-33.9578L-34.4197 131.066H-33.159V128.057H-32.2247L-31.4776 109.865L-30.7301 128.057H-25.8726V131.066H-21.0783L-21.2509 141.569H-17.1081V166.885H-12.1092V160.682H-8.72144V128.763L-1.50465 115.159L5.71251 128.763V138.149H7.19015L13.222 134.375V138.149H15.9795V153.774H21.2153V103.038H25.2014V90Z" fill="white" fill-opacity="0.2"/>
</g>
<defs>
<filter id="filter0_d_1952_5304" x="-90" y="0" width="531" height="264" filterUnits="userSpaceOnUse" color-interpolation-filters="sRGB">
<feFlood flood-opacity="0" result="BackgroundImageFix"/>
<feColorMatrix in="SourceAlpha" type="matrix" values="0 0 0 0 0 0 0 0 0 0 0 0 0 0 0 0 0 0 127 0" result="hardAlpha"/>
<feOffset dy="4"/>
<feGaussianBlur stdDeviation="2"/>
<feComposite in2="hardAlpha" operator="out"/>
<feColorMatrix type="matrix" values="0 0 0 0 0 0 0 0 0 0 0 0 0 0 0 0 0 0 0.25 0"/>
<feBlend mode="normal" in2="BackgroundImageFix" result="effect1_dropShadow_1952_5304"/>
<feBlend mode="normal" in="SourceGraphic" in2="effect1_dropShadow_1952_5304" result="shape"/>
</filter>
</defs>
</svg>
