<svg width="30" height="29" viewBox="0 0 30 29" fill="none" xmlns="http://www.w3.org/2000/svg">
  <path fill-rule="evenodd" clip-rule="evenodd"
    d="M8.92802 15.2631C8.08965 15.2631 7.41002 14.5798 7.41002 13.7368L7.41002 7.63157C7.41002 3.41677 10.8082 -8.79873e-07 15 0C19.1918 -5.75734e-07 22.59 3.41677 22.59 7.63157V13.7368C22.59 14.5798 21.9104 15.2631 21.072 15.2631C20.2336 15.2631 19.554 14.5798 19.554 13.7368V7.63157C19.554 5.10269 17.5151 3.05263 15 3.05263C12.4849 3.05263 10.446 5.10269 10.446 7.63157L10.446 13.7368C10.446 14.5798 9.76639 15.2631 8.92802 15.2631Z"
    fill="#EBEBF5" />
  <path fill-rule="evenodd" clip-rule="evenodd"
    d="M8.3483 7.63157C8.37978 7.63157 8.41137 7.63157 8.44307 7.63157L21.6517 7.63157C22.8965 7.6315 23.9744 7.63143 24.8447 7.74506C25.7801 7.8672 26.6782 8.14167 27.434 8.84095C28.1898 9.54024 28.5364 10.4173 28.7352 11.3445C28.9201 12.2071 29.0095 13.2871 29.1128 14.5344L29.9007 24.0408C29.9031 24.07 29.9055 24.0991 29.908 24.1282C29.9659 24.8257 30.0217 25.4973 29.9916 26.0526C29.9578 26.6751 29.8085 27.4 29.2463 28.0143C28.6842 28.6286 27.9781 28.8384 27.364 28.9239C26.816 29.0002 26.1458 29.0001 25.4497 29C25.4206 29 25.3916 29 25.3624 29H4.63756C4.60844 29 4.57936 29 4.55032 29C3.85422 29.0001 3.18398 29.0002 2.63605 28.9239C2.0219 28.8384 1.3158 28.6286 0.753667 28.0143C0.19153 27.4 0.0422137 26.6751 0.00844532 26.0526C-0.0216821 25.4972 0.0341052 24.8257 0.0920448 24.1282C0.0944615 24.0991 0.0968818 24.0699 0.0992998 24.0408L0.879308 14.6294C0.88194 14.5976 0.884562 14.566 0.887175 14.5344C0.99048 13.2871 1.07993 12.2071 1.26482 11.3445C1.46356 10.4173 1.81017 9.54024 2.56601 8.84095C3.32185 8.14167 4.21989 7.8672 5.15535 7.74506C6.02563 7.63143 7.10348 7.6315 8.3483 7.63157ZM5.5463 10.7723C4.93796 10.8517 4.73732 10.9804 4.6217 11.0873C4.50608 11.1943 4.36191 11.3847 4.23267 11.9876C4.09426 12.6333 4.01833 13.5132 3.90481 14.8829L3.1248 24.2943C3.05698 25.1126 3.02267 25.5682 3.03993 25.8864C3.04015 25.8905 3.04038 25.8945 3.04062 25.8985C3.04452 25.899 3.04851 25.8996 3.05258 25.9002C3.36648 25.9439 3.82088 25.9473 4.63756 25.9473H25.3624C26.1791 25.9473 26.6335 25.9439 26.9474 25.9002C26.9515 25.8996 26.9555 25.899 26.9594 25.8985C26.9596 25.8945 26.9598 25.8905 26.9601 25.8864C26.9773 25.5682 26.943 25.1126 26.8752 24.2943L26.0952 14.8829C25.9817 13.5132 25.9057 12.6333 25.7673 11.9876C25.6381 11.3847 25.4939 11.1943 25.3783 11.0873C25.2627 10.9804 25.062 10.8517 24.4537 10.7723C23.8022 10.6872 22.9238 10.6842 21.5569 10.6842H8.44307C7.07617 10.6842 6.19779 10.6872 5.5463 10.7723Z"
    fill="#fff" />
</svg>