<svg width="102" height="102" viewBox="0 0 102 102" fill="none" xmlns="http://www.w3.org/2000/svg">
<path fill-rule="evenodd" clip-rule="evenodd" d="M45.9167 10.25C26.2185 10.25 10.25 26.2185 10.25 45.9167C10.25 65.6148 26.2185 81.5833 45.9167 81.5833C65.6148 81.5833 81.5833 65.6148 81.5833 45.9167C81.5833 26.2185 65.6148 10.25 45.9167 10.25ZM0.25 45.9167C0.25 20.6957 20.6957 0.25 45.9167 0.25C71.1377 0.25 91.5833 20.6957 91.5833 45.9167C91.5833 71.1377 71.1377 91.5833 45.9167 91.5833C20.6957 91.5833 0.25 71.1377 0.25 45.9167Z" fill="#C7C7C7"/>
<path fill-rule="evenodd" clip-rule="evenodd" d="M71.102 71.1019C73.0546 69.1493 76.2204 69.1493 78.173 71.1019L100.286 93.2144C102.238 95.1671 102.238 98.3329 100.286 100.286C98.3329 102.238 95.1671 102.238 93.2145 100.286L71.102 78.173C69.1493 76.2204 69.1493 73.0546 71.102 71.1019Z" fill="#C7C7C7"/>
</svg>
