<svg width="134" height="129" viewBox="0 0 134 129" fill="none" xmlns="http://www.w3.org/2000/svg">
<path fill-rule="evenodd" clip-rule="evenodd" d="M66.2805 112.861C66.2805 121.224 59.5011 128.003 51.1383 128.003C42.7755 128.003 35.9961 121.224 35.9961 112.861C35.9961 104.498 42.7755 97.7188 51.1383 97.7188C59.5011 97.7188 66.2805 104.498 66.2805 112.861ZM56.2805 112.861C56.2805 115.701 53.9782 118.003 51.1383 118.003C48.2983 118.003 45.9961 115.701 45.9961 112.861C45.9961 110.021 48.2983 107.719 51.1383 107.719C53.9782 107.719 56.2805 110.021 56.2805 112.861Z" fill="#C7C7C7"/>
<path fill-rule="evenodd" clip-rule="evenodd" d="M122.843 112.861C122.843 121.224 116.064 128.003 107.701 128.003C99.338 128.003 92.5586 121.224 92.5586 112.861C92.5586 104.498 99.338 97.7188 107.701 97.7188C116.064 97.7188 122.843 104.498 122.843 112.861ZM112.843 112.861C112.843 115.701 110.541 118.003 107.701 118.003C104.861 118.003 102.559 115.701 102.559 112.861C102.559 110.021 104.861 107.719 107.701 107.719C110.541 107.719 112.843 110.021 112.843 112.861Z" fill="#C7C7C7"/>
<path fill-rule="evenodd" clip-rule="evenodd" d="M0 10.0156C0 4.49278 4.47715 0.015625 10 0.015625H30.5682C30.5682 0.015625 30.5687 0.015625 30.5687 10.0156H10L20 20.0156H10C4.47715 20.0156 0 15.5385 0 10.0156ZM22.9654 22.9811L25.8451 37.3687C25.8819 37.5913 25.926 37.8114 25.9772 38.0287L34.5414 80.8176C34.5419 80.8203 34.5424 80.823 34.543 80.8256C35.4717 85.4919 38.0112 89.6832 41.7174 92.6667C45.3967 95.6285 49.9932 97.2128 54.7137 97.1484H104.537C109.257 97.2128 113.854 95.6285 117.533 92.6667C121.241 89.6815 123.781 85.4871 124.709 80.8176L124.724 80.7428L132.951 37.5998C133.509 34.6723 132.733 31.6484 130.833 29.3521C128.933 27.0558 126.108 25.7266 123.128 25.7266V35.7265C123.128 25.7265 123.128 25.7266 123.128 25.7266H43.9116L40.3743 8.05306C39.4388 3.37948 35.3344 0.015625 30.5682 0.015625L30.5687 10.0156L35.7148 35.7265H35.7109L22.9654 22.9811ZM35.7148 35.7265L44.3498 78.8695C44.82 81.2369 46.1079 83.3635 47.9881 84.8771C49.8683 86.3906 52.2209 87.1946 54.6342 87.1484H104.616C107.029 87.1946 109.382 86.3906 111.262 84.8771C113.142 83.3635 114.43 81.2369 114.901 78.8695L123.128 35.7265H35.7148Z" fill="#C7C7C7"/>
</svg>
