<svg width="50" height="24" viewBox="0 0 50 24" fill="none" xmlns="http://www.w3.org/2000/svg">
<path d="M0.750874 10.5639C0.820843 9.7199 0.899368 8.7648 1.05267 7.94062C1.15913 7.3642 1.39322 6.59663 2.18466 6.59663C2.26394 6.59663 2.34337 6.60444 2.42175 6.61254C2.4707 6.6172 2.51964 6.62381 2.59982 6.62531C2.60147 6.62531 2.62715 6.60038 2.65973 6.50564C2.89217 5.84002 3.86709 5.01209 5.11724 3.99948C5.42519 3.75098 5.79382 3.45173 5.95087 3.29738C5.89322 2.89858 5.90178 2.40879 6.1794 2.07125C6.30838 1.91375 6.55102 1.72561 6.96934 1.72561C7.03075 1.72561 7.09607 1.72936 7.24141 1.74227C7.54322 1.74227 8.14802 1.61825 8.98541 1.44513C11.1446 1.00203 15.1635 0.176358 21.1898 0.0464785C29.9642 -0.127245 36.8593 6.20474 37.1435 6.4714L37.3468 6.66029C37.7072 6.83447 38.8452 7.25083 42.3235 7.93462C47.2572 8.90609 48.1983 10.4779 48.3761 11.0857C48.7699 11.3797 49.4078 12.0809 49.5088 12.9058C49.5901 13.5636 49.774 13.8327 49.774 13.8319L49.8591 13.9417V18.5849L49.8495 18.6696C49.5821 19.9026 48.3042 20.555 46.154 20.555C45.4683 20.555 44.9539 20.4851 44.9738 20.4851C44.944 20.4834 44.6788 20.4789 44.2193 20.4695C44.2663 20.3396 44.3091 20.2082 44.3461 20.0737C44.3818 19.9439 44.4145 19.8133 44.4398 19.6795C44.5004 19.3645 44.5345 19.0403 44.5345 18.7076C44.5345 15.8541 42.213 13.5325 39.3596 13.5325C36.5061 13.5325 34.1845 15.8541 34.1845 18.7076C34.1845 18.9657 34.2097 19.216 34.2459 19.464C34.2657 19.5986 34.2887 19.7322 34.319 19.8628C34.3501 19.9981 34.3827 20.1319 34.424 20.2633C27.9618 20.1249 19.739 19.9421 13.3705 19.7821C13.3986 19.6514 13.4165 19.5192 13.4344 19.3854C13.4522 19.2532 13.4624 19.1211 13.4693 18.9875C13.474 18.8941 13.4833 18.8025 13.4833 18.7076C13.4833 15.8541 11.1617 13.5325 8.30838 13.5325C5.49532 13.5325 3.20327 15.7903 3.13946 18.5894C3.13946 18.6283 3.1333 18.6678 3.1333 18.7076C3.1333 18.8079 3.14262 18.9058 3.14892 19.0053C3.15673 19.1468 3.17069 19.2875 3.18931 19.4259C1.9734 19.2253 1.05898 18.5846 0.529552 17.5483C-0.376152 15.7764 0.0855598 13.3771 0.410633 12.8677C0.586159 12.592 0.673244 11.5143 0.750874 10.5639Z" fill="#242E42"/>
<path d="M43.376 20.4509C42.7015 22.0012 41.1586 23.0858 39.3602 23.0858C37.4973 23.0858 35.9105 21.9203 35.2776 20.2814C35.2275 20.1508 35.1827 20.017 35.1446 19.8802C35.1081 19.7496 35.0778 19.6158 35.0528 19.4805C35.0086 19.2295 34.9806 18.9712 34.9806 18.7071C34.9806 16.2883 36.9407 14.3281 39.3595 14.3281C41.7782 14.3281 43.7383 16.2883 43.7383 18.7071C43.7383 19.0352 43.6994 19.3546 43.6306 19.6625C43.6015 19.7963 43.5665 19.9277 43.5242 20.0559C43.4809 20.1913 43.4315 20.3218 43.376 20.4509Z" fill="#242E42"/>
<path d="M12.5565 19.7607C12.0838 21.6687 10.3638 23.0859 8.30977 23.0859C6.16232 23.0859 4.37944 21.538 4.00632 19.4985C3.98229 19.3664 3.96367 19.2334 3.95046 19.0973C3.93875 18.9684 3.93094 18.8392 3.93094 18.7071C3.93094 18.704 3.93094 18.7008 3.93094 18.6969C3.9356 16.2837 5.89491 14.3281 8.30977 14.3281C10.7278 14.3281 12.6886 16.2883 12.6886 18.7071C12.6886 18.7949 12.68 18.8804 12.6754 18.9675C12.6676 19.102 12.6544 19.234 12.6342 19.3648C12.614 19.4987 12.5875 19.6308 12.5565 19.7607Z" fill="#242E42"/>
</svg>
