<svg width="96" height="96" viewBox="0 0 96 96" fill="none" xmlns="http://www.w3.org/2000/svg">
<path fill-rule="evenodd" clip-rule="evenodd" d="M48 96C74.5097 96 96 74.5097 96 48C96 21.4903 74.5097 0 48 0C21.4903 0 0 21.4903 0 48C0 74.5097 21.4903 96 48 96ZM78.0921 37.6271L42.4421 73.0967C41.2313 74.3011 39.2687 74.3011 38.0579 73.0965L17.9079 53.0485C16.6974 51.844 16.6974 49.8911 17.9079 48.6867L22.2919 44.3249C23.5026 43.1204 25.4655 43.1204 26.6761 44.3249L40.25 57.8301L69.3239 28.9035C70.5347 27.6988 72.4976 27.6988 73.7081 28.9035L78.0921 33.2653C79.3026 34.4697 79.3026 36.4226 78.0921 37.6271Z" fill="#0C00E3"/>
</svg>
