<svg width="21" height="29" viewBox="0 0 21 29" fill="none" xmlns="http://www.w3.org/2000/svg">
<path fill-rule="evenodd" clip-rule="evenodd" d="M4.38371 27.5448C4.38371 26.7411 5.03793 26.0896 5.84495 26.0896H14.6124C15.4194 26.0896 16.0736 26.7411 16.0736 27.5448C16.0736 28.3485 15.4194 29 14.6124 29H5.84495C5.03793 29 4.38371 28.3485 4.38371 27.5448Z" fill="white"/>
<path fill-rule="evenodd" clip-rule="evenodd" d="M10.2287 18.8136C11.0357 18.8136 11.6899 19.4651 11.6899 20.2688V27.5448C11.6899 28.3485 11.0357 29 10.2287 29C9.42164 29 8.76742 28.3485 8.76742 27.5448V20.2688C8.76742 19.4651 9.42164 18.8136 10.2287 18.8136Z" fill="white"/>
<path fill-rule="evenodd" clip-rule="evenodd" d="M17.5348 11.5376H2.92247C2.92247 12.9817 2.92878 13.4219 2.97248 13.7525C3.31778 16.3645 5.38168 18.4199 8.0045 18.7638C8.33645 18.8073 8.77851 18.8136 10.2287 18.8136C11.6788 18.8136 12.1209 18.8073 12.4528 18.7638C15.0756 18.4199 17.1395 16.3645 17.4848 13.7525C17.5285 13.4219 17.5348 12.9817 17.5348 11.5376ZM0.0366362 9.75853C0 9.91839 0 10.1116 0 10.4981V11.5376C0 12.8892 0 13.565 0.0750064 14.1324C0.592958 18.0504 3.68881 21.1335 7.62304 21.6493C8.19277 21.724 8.8714 21.724 10.2287 21.724C11.5859 21.724 12.2645 21.724 12.8343 21.6493C16.7685 21.1335 19.8644 18.0504 20.3823 14.1324C20.4573 13.565 20.4573 12.8892 20.4573 11.5376V10.4981C20.4573 10.1116 20.4573 9.91839 20.4207 9.75853C20.2958 9.21357 19.8685 8.78801 19.3212 8.66363C19.1607 8.62714 18.9667 8.62714 18.5786 8.62714H1.87873C1.49064 8.62714 1.29659 8.62714 1.13608 8.66363C0.588854 8.78801 0.161537 9.21357 0.0366362 9.75853Z" fill="white"/>
<path fill-rule="evenodd" clip-rule="evenodd" d="M21 2.70225L15.0247 5.08251C14.6749 5.22184 14.4988 5.29335 14.3769 5.35463C14.3748 5.35572 14.3727 5.35678 14.3706 5.35781C14.3698 5.35993 14.369 5.36212 14.3681 5.36437C14.3193 5.49139 14.2659 5.67311 14.1624 6.03385L11.6337 14.8477C11.412 15.6205 10.6032 16.068 9.82722 15.8472C9.05126 15.6264 8.60194 14.8209 8.82364 14.0482L11.3523 5.2343C11.3653 5.18897 11.3785 5.14217 11.392 5.09415C11.5384 4.57399 11.7251 3.91018 12.1899 3.39742C12.6547 2.88466 13.2987 2.63192 13.8034 2.43387C13.8499 2.41559 13.8953 2.39777 13.9393 2.38026L19.9146 0L21 2.70225Z" fill="white"/>
</svg>
