<svg width="28" height="28" viewBox="0 0 28 28" fill="none" xmlns="http://www.w3.org/2000/svg">
<rect width="28" height="28" fill="#FF0000" fill-opacity="0.01"/>
<path d="M11.9213 8.07618C11.636 4.79533 8.21331 3.18552 8.06845 3.11981C7.93256 3.0556 7.78024 3.03618 7.63389 3.06157C3.68253 3.71714 3.08819 6.01688 3.06429 6.11245C3.03144 6.24685 3.03741 6.38573 3.07923 6.51565C7.79219 21.1384 17.587 23.8488 20.8066 24.7403C21.0545 24.809 21.2591 24.8642 21.4144 24.915C21.489 24.9404 21.5667 24.9509 21.6443 24.9509C21.7504 24.9509 21.8564 24.9285 21.9535 24.8837C22.052 24.8389 24.3786 23.7427 24.9476 20.1677C24.973 20.0124 24.9476 19.8511 24.8759 19.7107C24.8251 19.6122 23.6081 17.296 20.2331 16.4777C19.9972 16.4165 19.7553 16.4792 19.5731 16.6345C18.5083 17.5439 17.0374 18.5131 16.4027 18.6131C12.1482 16.5329 9.77235 12.5413 9.68275 11.7841C9.63048 11.3585 10.6056 9.8637 11.7271 8.64813C11.869 8.49432 11.9407 8.28525 11.9213 8.07618Z" fill="black"/>
<mask id="mask0_2055_2895" style="mask-type:luminance" maskUnits="userSpaceOnUse" x="3" y="3" width="22" height="22">
<path d="M11.9213 8.07618C11.636 4.79533 8.21331 3.18552 8.06845 3.11981C7.93256 3.0556 7.78024 3.03618 7.63389 3.06157C3.68253 3.71714 3.08819 6.01688 3.06429 6.11245C3.03144 6.24685 3.03741 6.38573 3.07923 6.51565C7.79219 21.1384 17.587 23.8488 20.8066 24.7403C21.0545 24.809 21.2591 24.8642 21.4144 24.915C21.489 24.9404 21.5667 24.9509 21.6443 24.9509C21.7504 24.9509 21.8564 24.9285 21.9535 24.8837C22.052 24.8389 24.3786 23.7427 24.9476 20.1677C24.973 20.0124 24.9476 19.8511 24.8759 19.7107C24.8251 19.6122 23.6081 17.296 20.2331 16.4777C19.9972 16.4165 19.7553 16.4792 19.5731 16.6345C18.5083 17.5439 17.0374 18.5131 16.4027 18.6131C12.1482 16.5329 9.77235 12.5413 9.68275 11.7841C9.63048 11.3585 10.6056 9.8637 11.7271 8.64813C11.869 8.49432 11.9407 8.28525 11.9213 8.07618Z" fill="white"/>
</mask>
<g mask="url(#mask0_2055_2895)">
<rect width="28" height="28" fill="white"/>
</g>
</svg>
