<svg width="84" height="84" viewBox="0 0 84 84" fill="none" xmlns="http://www.w3.org/2000/svg">
<g filter="url(#filter0_d_2252_1139)">
<path fill-rule="evenodd" clip-rule="evenodd" d="M19.8047 24.9036C10.1714 37.3515 12.453 55.2519 24.9009 64.8852C37.3488 74.5185 55.2492 72.2368 64.8825 59.7889C74.5159 47.341 72.2342 29.4407 59.7863 19.8073C47.3384 10.174 29.438 12.4557 19.8047 24.9036Z" fill="#0C00E3"/>
</g>
<path fill-rule="evenodd" clip-rule="evenodd" d="M60.3983 19.0156C73.2829 28.987 75.6447 47.5154 65.6733 60.4001C55.702 73.2848 37.1736 75.6465 24.2889 65.6752C11.4042 55.7038 9.04247 37.1754 19.0138 24.2907C28.9851 11.406 47.5136 9.0443 60.3983 19.0156ZM64.0917 59.176C73.387 47.1649 71.1853 29.8926 59.1742 20.5973C47.1631 11.302 29.8908 13.5036 20.5955 25.5148C11.3002 37.5259 13.5018 54.7982 25.5129 64.0935C37.5241 73.3888 54.7964 71.1872 64.0917 59.176Z" fill="white"/>
<path d="M40.3374 58.9216L29.902 34.2875C29.6683 33.7941 29.7293 33.3175 30.0852 32.8577C30.1297 32.8002 30.2074 32.7225 30.3184 32.6245C30.5691 32.4142 30.8508 32.3059 31.1634 32.2997C31.476 32.2935 31.7533 32.384 31.9953 32.5713L41.5865 40.366L52.2814 32.1935C52.4771 31.9406 52.7271 31.771 53.0313 31.6848C53.3355 31.5985 53.6308 31.6203 53.9173 31.7501C54.2038 31.8799 54.417 32.0817 54.557 32.3554C54.6969 32.6291 54.7329 32.9235 54.665 33.2386L42.9041 58.5368C42.8655 58.7458 42.775 58.9423 42.6326 59.1263C42.3924 59.4367 42.0877 59.6144 41.7186 59.6596C41.4311 59.7129 41.1591 59.6724 40.9024 59.5381C40.6458 59.4038 40.4574 59.1983 40.3374 58.9216Z" fill="white"/>
<defs>
<filter id="filter0_d_2252_1139" x="9.84229" y="11.8438" width="65.0027" height="65.0039" filterUnits="userSpaceOnUse" color-interpolation-filters="sRGB">
<feFlood flood-opacity="0" result="BackgroundImageFix"/>
<feColorMatrix in="SourceAlpha" type="matrix" values="0 0 0 0 0 0 0 0 0 0 0 0 0 0 0 0 0 0 127 0" result="hardAlpha"/>
<feOffset dy="2"/>
<feGaussianBlur stdDeviation="2"/>
<feColorMatrix type="matrix" values="0 0 0 0 0 0 0 0 0 0 0 0 0 0 0 0 0 0 0.3 0"/>
<feBlend mode="normal" in2="BackgroundImageFix" result="effect1_dropShadow_2252_1139"/>
<feBlend mode="normal" in="SourceGraphic" in2="effect1_dropShadow_2252_1139" result="shape"/>
</filter>
</defs>
</svg>
