<svg width="24" height="24" viewBox="0 0 24 24" fill="none" xmlns="http://www.w3.org/2000/svg">
<path fill-rule="evenodd" clip-rule="evenodd" d="M23.3194 12.8364L23.6914 13.3324C24.2567 14.091 24.0141 15.1643 23.1715 15.6189L22.6208 15.9149C22.0262 16.2415 21.7036 16.9015 21.8276 17.5627L21.9422 18.1654C22.1155 19.088 21.4223 19.9532 20.465 20.0066L19.8397 20.0412C19.1558 20.0799 18.5705 20.5412 18.3918 21.1878L18.2278 21.7811C17.9758 22.689 16.9692 23.1757 16.0813 22.8157L15.5014 22.5824C14.8721 22.3237 14.1428 22.4944 13.6922 22.9997L13.2802 23.461C12.6509 24.1716 11.531 24.1809 10.891 23.481L10.4751 23.0237C10.0138 22.5237 9.28448 22.3637 8.65519 22.6304L8.08057 22.873C7.19796 23.2423 6.18737 22.7757 5.91939 21.8718L5.74607 21.2785C5.55808 20.6319 4.96746 20.1799 4.28351 20.1506L3.65822 20.1266C2.69696 20.0879 1.99301 19.232 2.15167 18.304L2.25566 17.6961C2.36898 17.0361 2.04234 16.3748 1.43705 16.0589L0.882427 15.7669C0.0344896 15.3256 -0.222825 14.2563 0.331801 13.4884L0.693108 12.9884C1.08908 12.4431 1.07975 11.7098 0.678442 11.1659L0.30647 10.6699C-0.258822 9.91131 -0.0161734 8.83806 0.821099 8.38076L1.37172 8.08478C1.96635 7.75947 2.28899 7.09818 2.16633 6.4369L2.05167 5.83428C1.87835 4.91168 2.57164 4.04641 3.5289 3.99308L4.15285 3.95841C4.83814 3.91975 5.42209 3.45845 5.60075 2.81183L5.76474 2.21854C6.01672 1.31061 7.02331 0.823978 7.91124 1.18395L8.4912 1.41727C9.12049 1.67458 9.84977 1.50526 10.3004 0.999965L10.7124 0.537332C11.3417 -0.171949 12.4629 -0.181282 13.1069 0.522667L13.5228 0.979966C13.9841 1.47993 14.7134 1.63992 15.3427 1.37327L15.9173 1.13062C16.7999 0.761316 17.8105 1.22795 18.0785 2.13188L18.2518 2.72517C18.4398 3.37179 19.0304 3.82376 19.7144 3.85309L20.3397 3.87709C21.3009 3.91575 22.0049 4.77169 21.8462 5.69962L21.7422 6.30758C21.6289 6.96753 21.9555 7.62881 22.5608 7.94479L23.1155 8.23677C23.9634 8.67807 24.2207 9.74732 23.6661 10.5153L23.3048 11.0152C22.9088 11.5592 22.9181 12.2925 23.3194 12.8364ZM13.2362 17.0641C13.9161 16.8801 14.5014 16.5202 14.9521 15.9855C16.196 14.5043 15.72 12.3311 13.9695 11.3645C13.4977 11.1083 13.0038 10.9089 12.5066 10.7082C12.4192 10.6729 12.3317 10.6376 12.2443 10.6019C11.907 10.4659 11.5803 10.3059 11.2977 10.082C10.7324 9.64466 10.8417 8.93005 11.5003 8.64874C11.6843 8.57008 11.883 8.54074 12.0816 8.53141C12.8442 8.49275 13.5682 8.62874 14.2574 8.95405C14.6041 9.11937 14.7187 9.06604 14.8334 8.71806C14.9298 8.43085 15.0142 8.13799 15.0983 7.84575C15.1224 7.76223 15.1464 7.67875 15.1707 7.59548C15.2454 7.34217 15.1507 7.17684 14.9081 7.07019C14.4668 6.87953 14.0108 6.73954 13.5348 6.66621C12.9149 6.57501 12.9148 6.56899 12.9097 5.97248L12.9095 5.95693C12.9069 5.52716 12.9056 5.31085 12.7967 5.20198C12.6865 5.09166 12.4658 5.09166 12.0216 5.09166C11.9785 5.09166 11.9354 5.09107 11.8925 5.09048C11.8067 5.08929 11.7211 5.08811 11.635 5.09166C11.2177 5.101 11.1483 5.17299 11.1403 5.58229V6.13159C11.1351 6.66634 11.135 6.66637 10.6309 6.84609C10.6222 6.84918 10.6134 6.85233 10.6044 6.85553C9.32447 7.31283 8.5312 8.16744 8.44721 9.538C8.37254 10.7526 9.0165 11.5685 10.0338 12.1671C10.4667 12.4234 10.9337 12.6071 11.4008 12.7909C11.6069 12.872 11.813 12.9531 12.0163 13.0404C12.2736 13.1511 12.5216 13.2831 12.7402 13.4577C13.3802 13.9737 13.2615 14.8336 12.5029 15.1589C12.0963 15.3336 11.6643 15.3776 11.2283 15.3242C10.5497 15.2416 9.8991 15.0669 9.28981 14.7563C8.9325 14.5763 8.82851 14.6256 8.70452 15.0043C8.62201 15.2538 8.55039 15.5081 8.47897 15.7616C8.45691 15.8399 8.43488 15.9182 8.41254 15.9962C8.28855 16.4442 8.33255 16.5508 8.76452 16.7548C9.31514 17.0175 9.90443 17.1534 10.5097 17.2454C10.9804 17.3188 10.995 17.3374 11.0004 17.8187C11.0004 18.032 11.0004 18.2507 11.0057 18.4693C11.011 18.7413 11.1443 18.9013 11.4323 18.9067C11.759 18.916 12.0869 18.916 12.4136 18.9067C12.6816 18.9013 12.8202 18.76 12.8202 18.4933C12.8202 18.3943 12.8218 18.2949 12.8235 18.1953C12.8267 17.996 12.83 17.7962 12.8202 17.5987C12.8042 17.2974 12.9389 17.1414 13.2362 17.0641Z" fill="white"/>
</svg>
