<svg width="31" height="31" viewBox="0 0 31 31" fill="none" xmlns="http://www.w3.org/2000/svg">
<path d="M16.5959 3.55538C16.3053 3.2648 15.9111 3.10156 15.5001 3.10156C15.0891 3.10156 14.6949 3.2648 14.4042 3.55538L3.55424 14.4054C3.2719 14.6977 3.11567 15.0892 3.1192 15.4957C3.12273 15.9021 3.28574 16.2908 3.57313 16.5782C3.86051 16.8656 4.24927 17.0286 4.65567 17.0321C5.06208 17.0357 5.45361 16.8794 5.74594 16.5971L6.20009 16.1429V26.3512C6.20009 26.7623 6.3634 27.1566 6.65408 27.4472C6.94476 27.7379 7.33901 27.9012 7.75009 27.9012H10.8501C11.2612 27.9012 11.6554 27.7379 11.9461 27.4472C12.2368 27.1566 12.4001 26.7623 12.4001 26.3512V23.2512C12.4001 22.8401 12.5634 22.4459 12.8541 22.1552C13.1448 21.8645 13.539 21.7012 13.9501 21.7012H17.0501C17.4612 21.7012 17.8554 21.8645 18.1461 22.1552C18.4368 22.4459 18.6001 22.8401 18.6001 23.2512V26.3512C18.6001 26.7623 18.7634 27.1566 19.0541 27.4472C19.3448 27.7379 19.739 27.9012 20.1501 27.9012H23.2501C23.6612 27.9012 24.0554 27.7379 24.3461 27.4472C24.6368 27.1566 24.8001 26.7623 24.8001 26.3512V16.1429L25.2542 16.5971C25.5466 16.8794 25.9381 17.0357 26.3445 17.0321C26.7509 17.0286 27.1397 16.8656 27.4271 16.5782C27.7144 16.2908 27.8775 15.9021 27.881 15.4957C27.8845 15.0892 27.7283 14.6977 27.4459 14.4054L16.5959 3.55538Z" fill="#FA4A0C"/>
</svg>
