<svg width="29" height="29" viewBox="0 0 29 29" fill="none" xmlns="http://www.w3.org/2000/svg">
  <g>
    <path
      d="M15.708 3.625C12.8238 3.625 10.0577 4.77076 8.01822 6.81021C5.97876 8.84967 4.83301 11.6158 4.83301 14.5H1.20801L5.90842 19.2004L5.99301 19.3696L10.8747 14.5H7.24967C7.24967 9.82375 11.0318 6.04167 15.708 6.04167C20.3843 6.04167 24.1663 9.82375 24.1663 14.5C24.1663 19.1763 20.3843 22.9583 15.708 22.9583C13.3759 22.9583 11.2613 22.0038 9.73884 20.4692L8.02301 22.185C9.03005 23.1976 10.2276 24.0008 11.5466 24.5483C12.8656 25.0958 14.2799 25.3768 15.708 25.375C18.5922 25.375 21.3583 24.2292 23.3978 22.1898C25.4373 20.1503 26.583 17.3842 26.583 14.5C26.583 11.6158 25.4373 8.84967 23.3978 6.81021C21.3583 4.77076 18.5922 3.625 15.708 3.625ZM14.4997 9.66667V15.7083L19.6351 18.7533L20.5655 17.1946L16.3122 14.6692V9.66667H14.4997Z"
      fill="black" />
  </g>
</svg>