<svg width="20" height="20" viewBox="0 0 20 20" fill="none" xmlns="http://www.w3.org/2000/svg">
<path fill-rule="evenodd" clip-rule="evenodd" d="M0 10C0 4.47733 4.47733 0 10 0C15.5227 0 20 4.47733 20 10C20 15.5227 15.5227 20 10 20C4.47733 20 0 15.5227 0 10ZM10.9173 10.0253L14.6333 6.30933C14.8933 6.04933 14.8933 5.62667 14.6333 5.36667C14.3733 5.10667 13.9507 5.10667 13.6907 5.36667L10.0253 9.032L6.73733 5.36667C6.47733 5.10667 6.05467 5.10667 5.79467 5.36667C5.53467 5.62667 5.53467 6.04933 5.79467 6.30933L9.08267 9.97467L5.36667 13.6907C5.10667 13.9507 5.10667 14.3733 5.36667 14.6333C5.62667 14.8933 6.04933 14.8933 6.30933 14.6333L9.97467 10.968L13.2627 14.6333C13.5227 14.8933 13.9453 14.8933 14.2053 14.6333C14.4653 14.3733 14.4653 13.9507 14.2053 13.6907L10.9173 10.0253Z" fill="#C8C7CC"/>
</svg>
