<svg width="38" height="29" viewBox="0 0 38 29" fill="none" xmlns="http://www.w3.org/2000/svg">
  <path fill-rule="evenodd" clip-rule="evenodd"
    d="M27.6364 3.41176H10.3636C8.63749 3.41176 7.6904 3.41901 7.03337 3.50625C7.02481 3.50739 7.01643 3.50852 7.00821 3.50966C7.00707 3.51777 7.00591 3.52605 7.00476 3.53451C6.91643 4.1834 6.90909 5.11876 6.90909 6.82353V18.7647H31.0909V6.82353C31.0909 5.11876 31.0836 4.1834 30.9952 3.53451C30.9941 3.52605 30.9929 3.51777 30.9918 3.50966C30.9836 3.50852 30.9752 3.50739 30.9666 3.50625C30.3096 3.41901 29.3625 3.41176 27.6364 3.41176ZM31.3295 3.57691L31.3264 3.57577L31.3295 3.57691ZM6.67051 3.57691L6.67364 3.57577L6.67051 3.57691ZM4.46636 0.999283C3.45455 1.99857 3.45455 3.60689 3.45455 6.82353V22.1765H34.5455V6.82353C34.5455 3.60689 34.5455 1.99857 33.5336 0.999283C32.5218 0 30.8933 0 27.6364 0H10.3636C7.10666 0 5.47817 0 4.46636 0.999283Z"
    fill="white" />
  <path fill-rule="evenodd" clip-rule="evenodd"
    d="M4.60606 18.7647H33.3939C35.9378 18.7647 38 20.8014 38 23.3137C38 26.4542 35.4222 29 32.2424 29H5.75758C2.57776 29 0 26.4542 0 23.3137C0 20.8014 2.0622 18.7647 4.60606 18.7647ZM5.18182 25.5166C4.97756 25.4647 4.78426 25.3858 4.60606 25.2839C3.91768 24.8907 3.45455 24.1556 3.45455 23.3137C3.45455 22.6856 3.9701 22.1765 4.60606 22.1765H33.3939C34.0299 22.1765 34.5455 22.6856 34.5455 23.3137C34.5455 24.1556 34.0823 24.8907 33.3939 25.2839C33.2157 25.3858 33.0224 25.4647 32.8182 25.5166C32.6342 25.5634 32.4412 25.5882 32.2424 25.5882H5.75758C5.55877 25.5882 5.36584 25.5634 5.18182 25.5166Z"
    fill="white" />
</svg>