<svg width="28" height="28" viewBox="0 0 28 28" fill="none" xmlns="http://www.w3.org/2000/svg">
<rect width="28" height="28" fill="#FF0000" fill-opacity="0.01"/>
<path fill-rule="evenodd" clip-rule="evenodd" d="M18.3777 23.5585C17.0369 24.1077 15.5561 24.4146 14 24.4146C7.81306 24.4146 2.79999 19.5792 2.79999 13.6077C2.79999 7.64155 7.81306 2.80078 14 2.80078C20.1869 2.80078 25.2 7.64155 25.1892 13.6185C25.1892 15.7669 24.5377 17.77 23.4123 19.4554C23.3638 19.5146 23.3208 19.5846 23.2777 19.6546C23.1484 19.8862 23.0677 20.1554 23.0677 20.4408L24.2577 25.2008L19.7346 23.5369C19.5354 23.4508 19.3146 23.4077 19.0831 23.4077C18.8731 23.4077 18.6684 23.4454 18.48 23.5154C18.48 23.5208 18.4746 23.5208 18.4692 23.5208C18.4369 23.5316 18.41 23.5423 18.3777 23.5585ZM20.8923 14.0008C20.8923 13.0477 20.1223 12.2777 19.1692 12.2777C18.2161 12.2777 17.4461 13.0477 17.4461 14.0008C17.4461 14.9539 18.2161 15.7239 19.1692 15.7239C20.1223 15.7239 20.8923 14.9539 20.8923 14.0008ZM14 12.2777C14.9531 12.2777 15.7231 13.0477 15.7231 14.0008C15.7231 14.9539 14.9531 15.7239 14 15.7239C13.0469 15.7239 12.2769 14.9539 12.2769 14.0008C12.2769 13.0477 13.0469 12.2777 14 12.2777ZM10.5538 14.0008C10.5538 13.0477 9.78383 12.2777 8.83076 12.2777C7.87768 12.2777 7.10768 13.0477 7.10768 14.0008C7.10768 14.9539 7.87768 15.7239 8.83076 15.7239C9.78383 15.7239 10.5538 14.9539 10.5538 14.0008Z" fill="black"/>
<mask id="mask0_2055_2892" style="mask-type:luminance" maskUnits="userSpaceOnUse" x="2" y="2" width="24" height="24">
<path fill-rule="evenodd" clip-rule="evenodd" d="M18.3777 23.5585C17.0369 24.1077 15.5561 24.4146 14 24.4146C7.81306 24.4146 2.79999 19.5792 2.79999 13.6077C2.79999 7.64155 7.81306 2.80078 14 2.80078C20.1869 2.80078 25.2 7.64155 25.1892 13.6185C25.1892 15.7669 24.5377 17.77 23.4123 19.4554C23.3638 19.5146 23.3208 19.5846 23.2777 19.6546C23.1484 19.8862 23.0677 20.1554 23.0677 20.4408L24.2577 25.2008L19.7346 23.5369C19.5354 23.4508 19.3146 23.4077 19.0831 23.4077C18.8731 23.4077 18.6684 23.4454 18.48 23.5154C18.48 23.5208 18.4746 23.5208 18.4692 23.5208C18.4369 23.5316 18.41 23.5423 18.3777 23.5585ZM20.8923 14.0008C20.8923 13.0477 20.1223 12.2777 19.1692 12.2777C18.2161 12.2777 17.4461 13.0477 17.4461 14.0008C17.4461 14.9539 18.2161 15.7239 19.1692 15.7239C20.1223 15.7239 20.8923 14.9539 20.8923 14.0008ZM14 12.2777C14.9531 12.2777 15.7231 13.0477 15.7231 14.0008C15.7231 14.9539 14.9531 15.7239 14 15.7239C13.0469 15.7239 12.2769 14.9539 12.2769 14.0008C12.2769 13.0477 13.0469 12.2777 14 12.2777ZM10.5538 14.0008C10.5538 13.0477 9.78383 12.2777 8.83076 12.2777C7.87768 12.2777 7.10768 13.0477 7.10768 14.0008C7.10768 14.9539 7.87768 15.7239 8.83076 15.7239C9.78383 15.7239 10.5538 14.9539 10.5538 14.0008Z" fill="white"/>
</mask>
<g mask="url(#mask0_2055_2892)">
<rect width="28" height="28" fill="white"/>
</g>
</svg>
