<svg width="40" height="40" viewBox="0 0 40 40" fill="none" xmlns="http://www.w3.org/2000/svg">
<rect width="40" height="40" rx="10" fill="#C4C4C4"/>
<rect width="40" height="40" rx="10" fill="#FF0000"/>
<path d="M17.5795 16.4841C17.5759 17.2238 17.5734 17.9649 17.5672 18.7032C17.5672 18.8004 17.6132 18.7996 17.6906 18.7993C19.0412 18.7964 20.3919 18.7958 21.7425 18.7975C22.0905 18.7975 22.0898 18.7996 22.0895 18.4507C22.0895 17.8851 22.0942 17.3195 22.0855 16.7532C22.0837 16.6253 22.1245 16.5726 22.2418 16.5393C22.397 16.4942 22.5464 16.4292 22.698 16.3718C22.7808 16.34 22.8174 16.3555 22.817 16.4552C22.8134 17.7193 22.821 18.9835 22.8087 20.2476C22.8022 20.8775 22.3347 21.3127 21.7045 21.3127C20.4629 21.3127 19.2205 21.2922 17.9782 21.3203C17.827 21.3223 17.677 21.2939 17.537 21.2368C17.397 21.1797 17.27 21.095 17.1635 20.9879C17.0569 20.8808 16.9731 20.7533 16.9169 20.6132C16.8607 20.473 16.8333 20.3231 16.8364 20.1721C16.8592 18.999 16.8429 17.8244 16.8426 16.6517C16.8426 16.5614 16.8382 16.4711 16.836 16.3815C16.8465 16.2901 16.8567 16.198 16.8252 16.1077C16.8528 15.8315 16.8536 15.5533 16.8277 15.277C16.8324 15.1874 16.8415 15.0964 16.8415 15.0079C16.8415 13.7019 16.8415 12.3958 16.8447 11.0898C16.8462 10.5794 17.1356 10.1955 17.62 10.0341C17.7187 10.0066 17.8213 9.99564 17.9236 10.0016C19.1777 10.0016 20.4319 10.0016 21.6861 10.0016C22.3416 10.0016 22.7942 10.4296 22.8094 11.0851C22.821 11.5846 22.8094 12.0841 22.8166 12.5837C22.8166 12.7014 22.7747 12.7025 22.6896 12.6606C22.5225 12.5782 22.3557 12.4937 22.1857 12.4175C22.0963 12.3778 22.0866 12.3128 22.0873 12.2283C22.0905 11.8551 22.0837 11.482 22.092 11.1086C22.0949 10.9786 22.0507 10.9461 21.9267 10.9468C20.5403 10.9511 19.1535 10.9523 17.7662 10.9504C17.6493 10.9504 17.5614 10.9442 17.5625 11.1136C17.5697 12.2333 17.5665 13.353 17.5676 14.4726C17.5676 14.5088 17.5744 14.5449 17.5781 14.581C17.5726 15.031 17.5607 15.4818 17.5849 15.9322C17.5669 16.1156 17.5651 16.3003 17.5795 16.4841V16.4841ZM19.8681 19.4259C19.3721 19.4259 19.3721 19.4259 19.3696 19.9236C19.3671 20.3762 19.3671 20.3762 19.8215 20.3773C20.3279 20.3773 20.3279 20.3773 20.3243 19.8763C20.3214 19.4263 20.3214 19.4263 19.8681 19.4259V19.4259ZM21.2512 19.6426C20.9734 19.6426 20.9719 19.6426 20.9719 19.8626C20.9719 20.1779 20.9719 20.1779 21.1727 20.1794C21.4936 20.1815 21.4936 20.1815 21.4943 19.9265C21.495 19.6452 21.495 19.6452 21.2512 19.6423V19.6426ZM18.4717 19.6426C18.2166 19.6426 18.2166 19.6426 18.2184 19.9106C18.2202 20.1786 18.2184 20.1786 18.5335 20.1779C18.7376 20.1779 18.7383 20.1779 18.7383 19.8658C18.7368 19.6452 18.7368 19.6452 18.4717 19.6452V19.6426Z" fill="#EFEFF4"/>
<path d="M17.5809 16.4861C17.5665 16.3019 17.5683 16.1167 17.5864 15.9328C17.9594 15.8967 18.2737 15.7078 18.5903 15.5355C18.7582 15.4448 18.9322 15.3549 19.0606 15.205C19.3196 15.1115 19.4926 14.9034 19.6825 14.7235C20.3547 14.0875 20.88 13.3424 21.2827 12.5117C21.3348 12.4033 21.3774 12.386 21.486 12.4394C22.6454 13.0021 23.8066 13.561 24.9696 14.116C25.1117 14.1836 25.0293 14.2298 24.9804 14.2966C24.076 15.5434 22.7916 16.1437 21.3264 16.4251C20.0834 16.6642 18.8323 16.6385 17.5809 16.4861Z" fill="#63A42D"/>
<path d="M8.81911 25.8893C8.81911 25.3898 8.82417 24.8899 8.81549 24.3908C8.81332 24.2528 8.86759 24.1827 8.98408 24.1286C9.75322 23.7721 10.5318 23.7699 11.3179 24.0632C11.3666 24.085 11.4197 24.0955 11.473 24.0937C11.5264 24.092 11.5786 24.0781 11.6258 24.0531C12.1659 23.7847 13.4427 23.8003 13.9622 24.4865C14.1467 24.7198 14.25 25.0067 14.2567 25.3039C14.2671 26.0201 14.2628 26.7363 14.2704 27.4522C14.2704 27.5706 14.2245 27.5916 14.1203 27.5891C13.8793 27.5833 13.6376 27.58 13.3967 27.592C13.2643 27.5985 13.2314 27.5501 13.2325 27.428C13.2364 26.8078 13.235 26.188 13.2343 25.5682C13.2343 24.8766 12.6916 24.5262 12.0512 24.8015C11.9912 24.8271 11.9612 24.8538 11.972 24.9192C12.0473 25.3678 11.9963 25.82 12.0064 26.27C12.0154 26.6673 12.0064 27.0646 12.0125 27.4619C12.0143 27.5595 11.9872 27.5905 11.8931 27.5891C11.6518 27.5855 11.4105 27.5815 11.1696 27.5912C11.0462 27.5959 11.0184 27.5515 11.0195 27.4363C11.0242 26.8042 11.0195 26.1721 11.0216 25.5404C11.0264 25.4078 11.0047 25.2756 10.9579 25.1514C10.8132 24.8029 10.2597 24.6043 9.90879 24.7671C9.80858 24.8137 9.83137 24.8932 9.83137 24.9662C9.83137 25.7785 9.82667 26.5915 9.83499 27.4034C9.8368 27.5569 9.79447 27.6006 9.64397 27.5912C9.4271 27.578 9.20963 27.578 8.99276 27.5912C8.85493 27.5999 8.81441 27.558 8.81622 27.4233C8.822 26.9119 8.81839 26.4001 8.81839 25.8886L8.81911 25.8893Z" fill="#EFEFF4"/>
<path d="M16.9555 26.4876C16.9555 25.7176 16.9588 24.9479 16.9523 24.1761C16.9523 24.0489 16.9859 23.9955 17.1133 23.9742C17.6351 23.8785 18.1659 23.8405 18.6961 23.8607C19.2358 23.8857 19.7452 24.0247 20.1034 24.4527C20.6479 25.1054 20.6692 25.8519 20.3624 26.6072C20.0672 27.335 19.2923 27.7269 18.4667 27.6138C18.341 27.6014 18.217 27.5761 18.0966 27.5383C17.97 27.4924 17.9519 27.5383 17.9519 27.6467C17.9555 28.044 17.9475 28.4413 17.9587 28.8386C17.9627 28.9737 17.9168 29.0029 17.7949 28.9986C17.5662 28.991 17.3365 28.9877 17.1075 28.9986C16.9714 29.0054 16.9505 28.9509 16.9512 28.8314C16.9595 28.0516 16.9573 27.2696 16.9555 26.4876ZM17.9548 25.6797H17.9569C17.9569 25.956 17.9569 26.2323 17.9569 26.5104C17.9569 26.5682 17.9501 26.6252 18.0134 26.6689C18.3176 26.8777 18.9352 26.8369 19.1971 26.5823C19.3733 26.4107 19.441 26.1875 19.4779 25.9524C19.5958 25.1982 19.145 24.6806 18.3831 24.6962C18.305 24.6962 18.2268 24.7048 18.1487 24.7037C18.009 24.7016 17.9428 24.75 17.9504 24.906C17.9653 25.1624 17.9562 25.4211 17.9562 25.6797H17.9548Z" fill="#EFEFF4"/>
<path d="M31.3118 25.8499C31.3118 26.3556 31.3075 26.8612 31.3144 27.3651C31.3165 27.5077 31.2731 27.5572 31.1284 27.5475C30.942 27.5361 30.7551 27.5361 30.5687 27.5475C30.4388 27.5547 30.3759 27.5175 30.3792 27.381C30.3792 27.3087 30.3701 27.2408 30.267 27.3131C29.5149 27.84 28.5012 27.6652 28.0059 26.9158C27.4831 26.1251 27.5533 24.6071 28.8297 24.0375C29.377 23.7933 29.9447 23.8302 30.5152 23.9197C30.7171 23.9515 30.9131 24.0162 31.1103 24.0624C31.2753 24.1007 31.3191 24.1773 31.3165 24.3351C31.3086 24.8408 31.3136 25.3464 31.3136 25.8499H31.3118ZM30.2988 25.6274C30.2988 25.3869 30.2988 25.1463 30.2988 24.905C30.2988 24.8469 30.3101 24.7775 30.2265 24.7606C29.8535 24.6883 29.4823 24.6457 29.1596 24.9108C28.7783 25.2236 28.6578 25.7502 28.843 26.2573C28.9794 26.6319 29.3068 26.8352 29.7048 26.7926C30.0883 26.7514 30.2981 26.5239 30.2988 26.149C30.2981 25.976 30.2978 25.8015 30.2981 25.6274H30.2988Z" fill="#EFEFF4"/>
<path d="M23.1064 26.0782C22.7511 26.0782 22.3955 26.0825 22.0402 26.076C21.923 26.0738 21.8861 26.1103 21.9165 26.2205C21.987 26.4798 22.1307 26.681 22.394 26.764C22.9396 26.9367 23.4794 26.833 24.0123 26.6983C24.157 26.6622 24.2149 26.6752 24.1932 26.8334C24.1895 26.8815 24.1889 26.9297 24.1913 26.9779C24.1881 27.3441 24.1895 27.3484 23.8433 27.4644C23.2504 27.6627 22.6494 27.688 22.0507 27.5005C21.4871 27.3246 21.113 26.9501 20.9654 26.3722C20.7989 25.722 20.8355 25.0903 21.2363 24.5269C21.6372 23.9634 22.3817 23.7222 23.0886 23.9027C23.7366 24.0682 24.1964 24.6024 24.2945 25.3038C24.3204 25.5187 24.3272 25.7356 24.3147 25.9517C24.3107 26.0601 24.2666 26.0803 24.17 26.0792C23.8147 26.0753 23.4591 26.0792 23.1038 26.0792L23.1064 26.0782ZM22.6422 25.3515C22.8593 25.3515 23.0745 25.3486 23.2905 25.3515C23.3748 25.3533 23.4124 25.3327 23.3951 25.2395C23.3383 24.9314 23.0376 24.6995 22.6816 24.6941C22.2602 24.6876 22.0066 24.8678 21.9317 25.2182C21.9085 25.3265 21.9447 25.3558 22.0485 25.3529C22.2464 25.3486 22.4443 25.3515 22.6422 25.3515Z" fill="#EFEFF4"/>
<path d="M27.2627 24.4443C27.2476 24.5472 27.3221 24.7127 27.2349 24.7849C27.1571 24.8495 27.0153 24.7376 26.8977 24.7173C26.5949 24.665 26.2925 24.6126 25.9835 24.6227C25.7664 24.6303 25.6091 24.739 25.5873 24.8943C25.5656 25.0496 25.6782 25.2064 25.8855 25.27C26.1727 25.3581 26.4679 25.4195 26.7537 25.5123C27.2103 25.6608 27.444 25.9725 27.4523 26.4106C27.4617 26.9235 27.2219 27.3045 26.779 27.4757C26.1752 27.709 25.5787 27.6505 24.977 27.4515C24.7961 27.3912 24.7238 27.307 24.7487 27.1221C24.769 26.9805 24.6825 26.7851 24.773 26.7071C24.8707 26.623 25.036 26.7602 25.176 26.7848C25.5154 26.8444 25.8533 26.891 26.198 26.831C26.4014 26.7949 26.5287 26.6952 26.5457 26.5442C26.5634 26.386 26.4773 26.2553 26.2765 26.1863C25.9918 26.0913 25.6977 26.0288 25.4137 25.9288C24.9003 25.7482 24.6934 25.4614 24.7024 24.9897C24.7126 24.4772 24.9803 24.0972 25.4622 23.9422C26.0432 23.7555 26.6166 23.866 27.1868 24.0116C27.2711 24.0329 27.262 24.0932 27.2627 24.1517C27.2656 24.2428 27.2627 24.3327 27.2627 24.4443Z" fill="#EFEFF4"/>
<path d="M15.6128 26.1196C15.3418 26.1196 15.0701 26.1153 14.7999 26.1218C14.695 26.1243 14.6447 26.1019 14.6487 25.9845C14.6559 25.7563 14.657 25.5276 14.6487 25.2983C14.6454 25.1867 14.6942 25.1715 14.7898 25.1719C15.3375 25.1755 15.8852 25.1755 16.433 25.1719C16.5415 25.1719 16.5849 25.1961 16.5816 25.3102C16.5751 25.5385 16.5766 25.7671 16.5816 25.9965C16.5842 26.1048 16.5415 26.1254 16.4413 26.1229C16.1645 26.1153 15.8874 26.1203 15.6092 26.1203L15.6128 26.1196Z" fill="#EFEFF4"/>
<path d="M19.0602 15.2002C18.9321 15.3504 18.7581 15.44 18.5899 15.5306C18.2722 15.7022 17.9589 15.8918 17.5859 15.9279C17.5617 15.4775 17.5736 15.0268 17.5791 14.5768C17.6702 14.4652 17.7697 14.36 17.8497 14.2401C17.9195 14.1358 17.956 14.1614 18.0114 14.2477C18.1467 14.4609 18.3064 14.6575 18.4875 14.8336C18.6536 14.9906 18.8479 15.1149 19.0602 15.2002V15.2002Z" fill="#555F21"/>
<path d="M16.8288 15.2734C16.8547 15.5498 16.8539 15.828 16.8263 16.1042C16.6083 16.1355 16.3879 16.1476 16.1678 16.1403C15.9869 16.1381 15.806 16.1331 15.6233 16.1291L15.0152 16.0038L15.0098 15.9499C15.673 15.9245 16.3105 15.6874 16.8288 15.2734V15.2734Z" fill="#555F21"/>
<path d="M15.623 16.1343C15.8039 16.1383 15.9848 16.1433 16.1675 16.1455C16.3876 16.1528 16.608 16.1407 16.826 16.1094C16.8574 16.1997 16.8473 16.29 16.8368 16.3832C16.4826 16.3174 16.1281 16.2528 15.7743 16.1852C15.7227 16.172 15.6721 16.155 15.623 16.1343V16.1343Z" fill="#63A42D"/>
</svg>
