<svg width="24" height="24" viewBox="0 0 24 24" fill="none" xmlns="http://www.w3.org/2000/svg">
<path fill-rule="evenodd" clip-rule="evenodd" d="M22.715 7.98431C23.2797 8.0706 23.7498 8.4848 23.927 9.05276C24.1027 9.62071 23.9555 10.2451 23.547 10.6609L18.8629 15.4305L19.9683 22.1659C20.0644 22.7543 19.8331 23.3489 19.3705 23.7003C19.1092 23.8996 18.7983 24 18.4875 24C18.2487 24 18.0084 23.9404 17.7891 23.8196L11.9997 20.6393L6.21027 23.8196C5.991 23.9404 5.75072 24 5.51193 24C5.19956 24 4.89018 23.8996 4.63037 23.7003C4.16782 23.3489 3.93654 22.7543 4.03266 22.1659L5.13798 15.4305L0.453869 10.6609C0.0438782 10.2436 -0.103298 9.62071 0.0739142 9.05276C0.249625 8.4848 0.719688 8.0706 1.28587 7.98431L7.75862 7.00216L10.6526 0.875466C10.9064 0.33889 11.4275 0 11.9997 0C12.5719 0 13.093 0.33889 13.3468 0.875466L16.2423 7.00216L22.715 7.98431ZM18.4875 22.4311L17.2485 14.8829L22.4973 9.53756L15.2436 8.43616L11.9997 1.56894L8.75582 8.43616L1.50213 9.53756L6.75091 14.8829L5.51193 22.4311L11.9997 18.868L18.4875 22.4311Z" fill="#C8C7CC"/>
</svg>
