<svg width="14" height="18" viewBox="0 0 14 18" fill="none" xmlns="http://www.w3.org/2000/svg">
<path fill-rule="evenodd" clip-rule="evenodd" d="M6.92048 18C7.62266 18 10.9665 13.8007 11.791 12.4631C13.0584 10.4069 13.841 9.19044 13.841 6.92048C13.841 3.0984 10.7426 0 6.92048 0C3.0984 0 0 3.0984 0 6.92048C0 9.20225 0.725074 10.4106 1.98829 12.4631C2.86872 13.8937 6.21829 18 6.92048 18ZM6.92093 10.3804C8.83197 10.3804 10.3812 8.83124 10.3812 6.9202C10.3812 5.00916 8.83197 3.45996 6.92093 3.45996C5.0099 3.45996 3.46069 5.00916 3.46069 6.9202C3.46069 8.83124 5.0099 10.3804 6.92093 10.3804Z" fill="white"/>
</svg>
