<svg width="40" height="40" viewBox="0 0 40 40" fill="none" xmlns="http://www.w3.org/2000/svg">
<rect width="40" height="40" rx="10" fill="#C4C4C4"/>
<rect width="40" height="40" rx="10" fill="#0038FF"/>
<path d="M17.481 21.2455C17.3715 21.8455 16.9375 24.6425 16.809 25.433C16.7995 25.4895 16.7775 25.511 16.715 25.511H14.384C14.3293 25.5114 14.2751 25.4999 14.2253 25.4774C14.1754 25.4549 14.131 25.4219 14.0951 25.3806C14.0592 25.3394 14.0327 25.2908 14.0173 25.2383C14.0019 25.1858 13.998 25.1307 14.006 25.0765L15.8375 13.4545C15.8627 13.307 15.9392 13.1731 16.0536 13.0765C16.1679 12.9799 16.3128 12.9268 16.4625 12.9265C21.222 12.9265 21.622 12.811 22.8375 13.283C24.7155 14.011 24.8875 15.7675 24.2125 17.6675C23.5405 19.624 21.947 20.4645 19.8345 20.4895C18.4785 20.5115 17.6625 20.2705 17.4815 21.2455H17.481ZM25.1595 16.7485C25.103 16.708 25.0815 16.692 25.0655 16.789C24.9998 17.1453 24.9079 17.4963 24.7905 17.839C23.5435 21.3955 20.0875 21.086 18.4 21.086C18.2095 21.086 18.0845 21.189 18.0595 21.3795C17.3535 25.767 17.2125 26.6825 17.2125 26.6825C17.181 26.9045 17.322 27.0855 17.5435 27.0855H19.528C19.797 27.0855 20.0185 26.8885 20.072 26.62C20.094 26.4515 20.0375 26.8105 20.522 23.767C20.666 23.0795 20.969 23.1515 21.4375 23.1515C23.6565 23.1515 25.3875 22.2515 25.903 19.642C26.106 18.5545 26.047 17.4105 25.1595 16.748V16.7485Z" fill="white"/>
</svg>
