<svg width="21" height="22" viewBox="0 0 21 22" fill="none" xmlns="http://www.w3.org/2000/svg">
<path fill-rule="evenodd" clip-rule="evenodd" d="M10.5 19.918C15.1944 19.918 19 16.1124 19 11.418C19 6.72355 15.1944 2.91797 10.5 2.91797C5.80558 2.91797 2 6.72355 2 11.418C2 16.1124 5.80558 19.918 10.5 19.918ZM21 11.418C21 17.217 16.299 21.918 10.5 21.918C4.70101 21.918 0 17.217 0 11.418C0 5.61898 4.70101 0.917969 10.5 0.917969C16.299 0.917969 21 5.61898 21 11.418Z" fill="#FF6339"/>
<path fill-rule="evenodd" clip-rule="evenodd" d="M10.25 16.418C13.1495 16.418 15.5 14.0675 15.5 11.168C15.5 8.26847 13.1495 5.91797 10.25 5.91797C7.35051 5.91797 5 8.26847 5 11.168C5 14.0675 7.35051 16.418 10.25 16.418Z" fill="#FF6339"/>
</svg>
