<svg width="50" height="36" viewBox="0 0 50 36" fill="none" xmlns="http://www.w3.org/2000/svg">
<path fill-rule="evenodd" clip-rule="evenodd" d="M8.04658 35.5687C12.4915 35.5687 16.0936 31.9657 16.0936 27.5218C16.0936 27.2427 16.0795 26.9677 16.0514 26.696L19.2938 26.1267C19.2938 26.1267 19.4036 25.9805 20.2028 26.7812C20.5446 27.123 21.0096 27.1663 21.4339 27.1109C22.188 27.3659 23.8939 27.8564 25.8641 27.8564C27.3927 27.8564 29.0764 27.5589 30.5815 26.6213C32.8764 25.1901 34.2337 22.585 34.6446 18.8999C35.6553 17.7854 36.7078 16.9159 37.7393 16.2388L38.6255 18.8781C35.8425 20.1444 33.904 22.9435 33.904 26.1997C33.904 30.6438 37.5078 34.246 41.9509 34.246C46.3943 34.246 49.998 30.643 49.998 26.1997C49.998 21.755 46.3943 18.1533 41.9509 18.1533C41.3447 18.1533 40.7554 18.2256 40.187 18.3531L39.1932 15.3918C42.2936 13.8118 44.8601 13.8356 44.8601 13.8356L45.8234 14.3628L49.0234 14.6173C47.0961 12.3812 39.4955 12.7803 39.4955 12.7803L41.1149 12.5078C41.1149 12.5078 41.0601 10.7621 40.0599 8.61648C39.0598 6.47099 37.9686 5.21617 37.9686 5.21617C37.8688 5.32875 37.8037 5.46152 37.7522 5.59894C37.7699 4.12192 37.7891 2.6449 37.9026 1.17021C37.9036 1.15823 37.9016 1.14843 37.8995 1.1386V1.13858L37.8995 1.13851C37.898 1.13155 37.8965 1.12457 37.8961 1.1168C37.9323 0.965243 37.8842 0.802044 37.6991 0.711516C37.1025 0.420056 36.5155 0.174094 35.8443 0.141019C35.6616 0.132168 35.4944 0.273628 35.4478 0.443348C35.2356 1.21043 35.1793 2.01416 35.2708 2.80204L35.2421 2.74378L35.242 2.74369L35.242 2.74358C35.1859 2.62967 35.13 2.51618 35.0682 2.4036C34.9564 2.20266 34.7626 2.17192 34.5953 2.23403C34.4071 2.20173 34.1933 2.27425 34.1098 2.50251C34.0592 2.64054 33.9864 2.76165 33.9143 2.88158C33.7938 3.08195 33.6754 3.27902 33.6658 3.54614C33.6419 4.21757 34.4217 4.65375 34.9154 4.92223C35.0089 4.97332 35.102 4.9758 35.1904 4.95919C35.4331 5.94211 35.5137 6.95732 35.454 7.99971C33.952 8.97378 34.5311 9.86229 34.5311 9.86229L34.2584 10.3258C34.2584 10.3258 32.8393 8.30763 28.2031 11.3079C24.0346 14.0056 20.6594 12.7342 17.8005 11.6572L17.8004 11.6571L17.8003 11.6571C17.4796 11.5363 17.1655 11.418 16.8575 11.3079C13.803 10.2168 2.56568 9.94475 2.56568 9.94475C8.09363 10.7809 10.53 15.3266 10.53 15.3266L6.1663 12.6359C4.23866 12.818 4.74752 14.8542 4.74752 14.8542L12.7845 19.7634C14.348 19.1812 16.1298 20.9269 16.1298 20.9269L17.8026 23.873L15.5107 24.5258C14.3207 21.5677 11.4311 19.477 8.04674 19.477C3.60217 19.477 0 23.0801 0 27.5233C0 31.9665 3.60295 35.5687 8.04658 35.5687ZM41.95 20.6221C45.0256 20.6221 47.5261 23.1235 47.5261 26.1989C47.5261 29.2738 45.0255 31.775 41.95 31.775C38.8745 31.775 36.3739 29.2738 36.3739 26.1989C36.3739 24.0368 37.6123 22.1618 39.4165 21.2371L41.1693 26.4603C41.2851 26.8045 41.6059 27.0224 41.95 27.0224C42.036 27.0224 42.1245 27.0078 42.2113 26.9798C42.6422 26.8342 42.8747 26.368 42.7309 25.9361L40.978 20.7121C41.2939 20.6567 41.618 20.6221 41.95 20.6221ZM36.9624 3.65158C36.7318 3.85313 36.4896 4.04444 36.2388 4.24024C36.1231 4.32922 35.996 4.35717 35.8793 4.33978C36.1873 5.37549 36.3216 6.45018 36.2998 7.55002C36.4817 7.46835 36.6795 7.38683 36.8981 7.30639C36.9092 6.78309 36.9167 6.25976 36.9242 5.73648C36.9341 5.04134 36.9441 4.34631 36.9624 3.65158ZM27.4762 17.1076C31.3115 15.9575 32.6124 17.689 33.021 18.6145C32.6825 21.826 31.5786 24.0547 29.7163 25.2197C27.2736 26.7466 24.0734 26.15 22.537 25.723C22.7057 23.4677 23.5234 18.2935 27.4762 17.1076ZM13.1137 25.2069C12.2317 23.286 10.2955 21.9457 8.04658 21.9457C4.97221 21.9457 2.47003 24.4469 2.4691 27.5218C2.4691 30.5972 4.9705 33.0986 8.04565 33.0986C11.1213 33.0986 13.6227 30.5972 13.6227 27.5218C13.6227 27.4039 13.6143 27.2884 13.6059 27.1727C13.6048 27.1574 13.6037 27.1422 13.6026 27.1269L7.29286 28.2357L7.07453 26.9267L13.1137 25.2069Z" fill="white"/>
<path d="M32.0224 20.0352H24.7666L23.5662 25.1634C30.8766 26.5263 32.0224 20.0352 32.0224 20.0352Z" fill="white"/>
</svg>
