<svg width="50" height="49" viewBox="0 0 50 49" fill="none" xmlns="http://www.w3.org/2000/svg">
<path d="M48.9642 18.6222C48.6055 17.4732 47.6541 16.6353 46.5112 16.4608L33.4103 14.4739L27.5499 2.07965C27.0362 0.994164 25.9815 0.308594 24.8233 0.308594C23.6652 0.308594 22.6105 0.994164 22.0968 2.07965L16.2394 14.4739L3.13854 16.4608C1.9926 16.6353 1.04119 17.4732 0.685552 18.6222C0.326874 19.7712 0.624759 21.0312 1.45458 21.8755L10.9352 31.5243L8.69805 45.15C8.50351 46.3402 8.97162 47.5431 9.90783 48.2541C10.4337 48.6572 11.0598 48.8603 11.6921 48.8603C12.1754 48.8603 12.6617 48.7397 13.1055 48.4953L24.8233 42.0617L36.5412 48.4953C36.985 48.7397 37.4713 48.8603 37.9546 48.8603C38.5838 48.8603 39.213 48.6572 39.7419 48.2541C40.6781 47.5431 41.1462 46.3402 40.9517 45.15L38.7145 31.5243L48.1952 21.8755C49.0219 21.0344 49.3198 19.7712 48.9642 18.6222Z" fill="#EFEFF4"/>
</svg>
