<svg width="24" height="24" viewBox="0 0 24 24" fill="none" xmlns="http://www.w3.org/2000/svg">
<path d="M23.927 9.05276C23.7498 8.4848 23.2797 8.0706 22.715 7.98431L16.2423 7.00216L13.3468 0.875466C13.093 0.33889 12.5719 0 11.9997 0C11.4275 0 10.9064 0.33889 10.6526 0.875466L7.75862 7.00216L1.28587 7.98431C0.719688 8.0706 0.249625 8.4848 0.0739142 9.05276C-0.103298 9.62071 0.0438782 10.2436 0.453869 10.6609L5.13798 15.4305L4.03266 22.1659C3.93654 22.7543 4.16782 23.3489 4.63037 23.7003C4.89018 23.8996 5.19956 24 5.51193 24C5.75072 24 5.991 23.9404 6.21027 23.8196L11.9997 20.6393L17.7891 23.8196C18.0084 23.9404 18.2487 24 18.4875 24C18.7983 24 19.1092 23.8996 19.3705 23.7003C19.8331 23.3489 20.0644 22.7543 19.9683 22.1659L18.8629 15.4305L23.547 10.6609C23.9555 10.2451 24.1027 9.62071 23.927 9.05276Z" fill="#FFCC00"/>
</svg>
