<svg width="49" height="49" viewBox="0 0 49 49" fill="none" xmlns="http://www.w3.org/2000/svg">
<path d="M48.6929 18.6222C48.3342 17.4732 47.3828 16.6353 46.2399 16.4608L33.139 14.4739L27.2786 2.07965C26.7649 0.994164 25.7102 0.308594 24.552 0.308594C23.3939 0.308594 22.3392 0.994164 21.8255 2.07965L15.9681 14.4739L2.86724 16.4608C1.7213 16.6353 0.769889 17.4732 0.414251 18.6222C0.055573 19.7712 0.353458 21.0312 1.18328 21.8755L10.6639 31.5243L8.42675 45.15C8.23221 46.3402 8.70031 47.5431 9.63652 48.2541C10.1624 48.6572 10.7885 48.8603 11.4208 48.8603C11.9041 48.8603 12.3904 48.7397 12.8342 48.4953L24.552 42.0617L36.2699 48.4953C36.7137 48.7397 37.2 48.8603 37.6833 48.8603C38.3125 48.8603 38.9417 48.6572 39.4706 48.2541C40.4068 47.5431 40.8749 46.3402 40.6804 45.15L38.4432 31.5243L47.9239 21.8755C48.7506 21.0344 49.0485 19.7712 48.6929 18.6222Z" fill="#FFCC00"/>
</svg>
