<svg width="33" height="33" viewBox="0 0 33 33" fill="none" xmlns="http://www.w3.org/2000/svg">
<path fill-rule="evenodd" clip-rule="evenodd" d="M3.57567 22.0504L5.56883 24.0436C6.90352 23.1593 8.71949 23.3051 9.89543 24.4811C11.0714 25.657 11.2172 27.473 10.3329 28.8077L12.3261 30.8008C12.8631 31.3378 13.7337 31.3378 14.2707 30.8008L19.132 25.9395L17.1875 23.9949C16.6505 23.458 16.6505 22.5874 17.1875 22.0504C17.7244 21.5134 18.595 21.5134 19.132 22.0504L21.0766 23.9949L30.7993 14.2722C31.3362 13.7353 31.3362 12.8646 30.7993 12.3277L28.8061 10.3345C27.4714 11.2188 25.6555 11.0729 24.4795 9.897C23.3036 8.72106 23.1577 6.90509 24.042 5.5704L22.0488 3.57723C21.5119 3.04026 20.6413 3.04026 20.1043 3.57723L10.3816 13.3L12.3261 15.2445C12.8631 15.7815 12.8631 16.6521 12.3261 17.189C11.7891 17.726 10.9185 17.726 10.3816 17.189L8.43702 15.2445L3.57567 20.1059C3.03869 20.6428 3.03869 21.5134 3.57567 22.0504ZM13.2984 20.1059C12.7614 19.5689 12.7614 18.6983 13.2984 18.1613C13.8354 17.6243 14.706 17.6243 15.2429 18.1613L16.2152 19.1336C16.7522 19.6706 16.7522 20.5412 16.2152 21.0781C15.6782 21.6151 14.8076 21.6151 14.2707 21.0781L13.2984 20.1059Z" fill="#C8C7CC"/>
</svg>
