<svg width="40" height="40" viewBox="0 0 40 40" fill="none" xmlns="http://www.w3.org/2000/svg">
<rect width="40" height="40" rx="10" fill="#F47B0A"/>
<path fill-rule="evenodd" clip-rule="evenodd" d="M12 16C12 15.4696 12.2107 14.9609 12.5858 14.5858C12.9609 14.2107 13.4696 14 14 14H26C26.5304 14 27.0391 14.2107 27.4142 14.5858C27.7893 14.9609 28 15.4696 28 16V24C28 24.5304 27.7893 25.0391 27.4142 25.4142C27.0391 25.7893 26.5304 26 26 26H14C13.4696 26 12.9609 25.7893 12.5858 25.4142C12.2107 25.0391 12 24.5304 12 24V16ZM14.5 17C14.3674 17 14.2402 17.0527 14.1464 17.1464C14.0527 17.2402 14 17.3674 14 17.5V18.5C14 18.6326 14.0527 18.7598 14.1464 18.8536C14.2402 18.9473 14.3674 19 14.5 19H16.5C16.6326 19 16.7598 18.9473 16.8536 18.8536C16.9473 18.7598 17 18.6326 17 18.5V17.5C17 17.3674 16.9473 17.2402 16.8536 17.1464C16.7598 17.0527 16.6326 17 16.5 17H14.5ZM14.5 20C14.3674 20 14.2402 20.0527 14.1464 20.1464C14.0527 20.2402 14 20.3674 14 20.5C14 20.6326 14.0527 20.7598 14.1464 20.8536C14.2402 20.9473 14.3674 21 14.5 21H19.5C19.6326 21 19.7598 20.9473 19.8536 20.8536C19.9473 20.7598 20 20.6326 20 20.5C20 20.3674 19.9473 20.2402 19.8536 20.1464C19.7598 20.0527 19.6326 20 19.5 20H14.5ZM14.5 22C14.3674 22 14.2402 22.0527 14.1464 22.1464C14.0527 22.2402 14 22.3674 14 22.5C14 22.6326 14.0527 22.7598 14.1464 22.8536C14.2402 22.9473 14.3674 23 14.5 23H15.5C15.6326 23 15.7598 22.9473 15.8536 22.8536C15.9473 22.7598 16 22.6326 16 22.5C16 22.3674 15.9473 22.2402 15.8536 22.1464C15.7598 22.0527 15.6326 22 15.5 22H14.5ZM17.5 22C17.3674 22 17.2402 22.0527 17.1464 22.1464C17.0527 22.2402 17 22.3674 17 22.5C17 22.6326 17.0527 22.7598 17.1464 22.8536C17.2402 22.9473 17.3674 23 17.5 23H18.5C18.6326 23 18.7598 22.9473 18.8536 22.8536C18.9473 22.7598 19 22.6326 19 22.5C19 22.3674 18.9473 22.2402 18.8536 22.1464C18.7598 22.0527 18.6326 22 18.5 22H17.5ZM20.5 22C20.3674 22 20.2402 22.0527 20.1464 22.1464C20.0527 22.2402 20 22.3674 20 22.5C20 22.6326 20.0527 22.7598 20.1464 22.8536C20.2402 22.9473 20.3674 23 20.5 23H21.5C21.6326 23 21.7598 22.9473 21.8536 22.8536C21.9473 22.7598 22 22.6326 22 22.5C22 22.3674 21.9473 22.2402 21.8536 22.1464C21.7598 22.0527 21.6326 22 21.5 22H20.5ZM23.5 22C23.3674 22 23.2402 22.0527 23.1464 22.1464C23.0527 22.2402 23 22.3674 23 22.5C23 22.6326 23.0527 22.7598 23.1464 22.8536C23.2402 22.9473 23.3674 23 23.5 23H24.5C24.6326 23 24.7598 22.9473 24.8536 22.8536C24.9473 22.7598 25 22.6326 25 22.5C25 22.3674 24.9473 22.2402 24.8536 22.1464C24.7598 22.0527 24.6326 22 24.5 22H23.5Z" fill="white"/>
</svg>
