<svg width="31" height="32" viewBox="0 0 31 32" fill="none" xmlns="http://www.w3.org/2000/svg">
<path fill-rule="evenodd" clip-rule="evenodd" d="M13.8447 31.7766C13.7615 31.5809 13.7649 26.747 13.8484 26.6076C13.9075 26.5089 13.987 26.5018 15.0294 26.5018C15.817 26.5018 16.1687 26.5212 16.2204 26.5674C16.3262 26.6619 16.3262 31.7568 16.2204 31.8513C16.1686 31.8976 15.8162 31.917 15.0257 31.917H13.9044L13.8447 31.7766ZM3.52238 29.0168C3.33689 28.9501 3.31424 28.8281 3.33465 28.006C3.35182 27.3142 3.35606 27.2944 3.49093 27.2773C3.57283 27.2669 3.72308 27.3235 3.85807 27.4156C4.25809 27.6884 4.50635 27.7599 5.05406 27.7599C5.7753 27.7599 5.83072 27.8041 5.82952 28.3783C5.82852 28.8605 5.80968 28.9134 5.60503 29.0097C5.44558 29.0847 3.7275 29.0906 3.52238 29.0168ZM24.4058 28.932C24.2857 28.8246 24.2676 27.9834 24.3831 27.8802C24.4286 27.8395 24.6551 27.8144 24.9797 27.814C25.5454 27.8134 25.9922 27.6797 26.2313 27.4394C26.3523 27.3178 26.5403 27.2844 26.6019 27.3736C26.6751 27.4795 26.6592 28.77 26.5831 28.8948C26.5101 29.0147 26.4823 29.0179 25.505 29.0179C24.6747 29.0179 24.4854 29.0031 24.4058 28.932ZM4.50322 26.8714C4.18917 26.6722 4.00763 26.3721 3.97061 25.9907C3.95262 25.8055 3.92272 24.5586 3.90416 23.2199C3.88559 21.8811 3.84476 19.8996 3.81345 18.8166C3.73873 16.2327 3.74066 11.9312 3.81679 11.3776C3.84988 11.1369 3.91575 10.4969 3.96314 9.95541C4.11542 8.21563 4.23518 7.06478 4.29899 6.72818C4.3332 6.54768 4.36185 6.21538 4.36263 5.98975C4.36341 5.76411 4.40477 5.35797 4.45453 5.08722C4.5043 4.81646 4.54568 4.41032 4.54648 4.18469C4.54728 3.95905 4.57513 3.61445 4.60838 3.4189C4.64162 3.22336 4.69492 2.88882 4.7268 2.67549C4.75868 2.46216 4.82394 2.21602 4.8718 2.1285C4.91967 2.04099 5.01039 1.87093 5.07341 1.75059C5.24208 1.42845 5.97998 0.797435 6.44337 0.579058C6.93498 0.347385 7.44688 0.278894 9.77717 0.133004C12.4732 -0.0357823 17.6644 -0.0459348 19.4586 0.114075C19.9373 0.156756 20.5843 0.192441 20.8966 0.193368C21.2088 0.194296 21.6708 0.219905 21.9233 0.250272C22.1757 0.28064 22.5783 0.326045 22.8181 0.351173C23.4313 0.415435 23.9658 0.663176 24.4804 1.12163C24.7062 1.32282 24.9546 1.60817 25.0325 1.75575C25.1103 1.90334 25.2027 2.07108 25.2379 2.12851C25.3675 2.34012 25.539 3.70706 25.7176 5.95201C25.7483 6.3374 25.8007 6.78527 25.8342 6.94728C25.8677 7.10929 25.9122 7.53241 25.9329 7.88754C25.9537 8.24267 25.9971 8.65803 26.0295 8.81056C26.0618 8.96309 26.1152 9.52922 26.1482 10.0686C26.1811 10.608 26.2338 11.2463 26.2652 11.487C26.3385 12.0489 26.3396 16.6035 26.2671 19.1174C26.2363 20.1854 26.1924 22.2161 26.1696 23.6301C26.1325 25.9339 26.1169 26.2208 26.02 26.3924C25.8866 26.6284 25.6204 26.8587 25.3918 26.9359C25.2764 26.9749 23.8797 26.9941 21.1609 26.9941C16.6387 26.9941 17.0281 27.0306 17.0281 26.6059C17.0281 26.4219 17.0569 26.3751 17.227 26.2824C17.3363 26.2228 17.4951 26.1739 17.5797 26.1738C17.6644 26.1737 17.8363 26.1244 17.9619 26.0642C18.0875 26.004 18.2343 25.9548 18.2881 25.9548C18.4055 25.9548 18.7192 25.8054 18.9097 25.6588C19.1551 25.4699 19.073 25.1634 18.4792 24.0505C18.3 23.7146 18.2961 23.6898 18.3353 23.148C18.3575 22.8415 18.4022 22.4924 18.4347 22.372C18.4672 22.2517 18.4966 21.9194 18.5 21.6336C18.5035 21.3478 18.5303 20.9047 18.5596 20.649C18.5888 20.3933 18.6404 19.7533 18.6741 19.2268C18.7078 18.7004 18.7648 18.0235 18.8008 17.7226C18.9109 16.8018 18.9625 15.7694 18.9145 15.4499C18.8171 14.8024 18.2853 14.2697 17.5845 14.1177C16.9827 13.9872 13.0309 13.9893 12.5032 14.1205C12.053 14.2324 11.5846 14.5821 11.3518 14.9802C11.1911 15.2551 11.1879 15.2803 11.2028 16.1364C11.2112 16.6177 11.2446 17.2577 11.277 17.5585C11.3093 17.8594 11.363 18.5363 11.3962 19.0627C11.4295 19.5892 11.486 20.2415 11.5218 20.5123C11.5576 20.783 11.6136 21.4845 11.6462 22.0712C11.6788 22.6578 11.7227 23.2811 11.7436 23.4563C11.7683 23.6626 11.7551 23.8264 11.7061 23.9213C11.5739 24.1775 11.4708 24.3883 11.3404 24.6694C11.2706 24.8198 11.1726 25.0126 11.1225 25.0977C11.0725 25.1829 11.0316 25.3062 11.0316 25.3718C11.0316 25.5207 11.3044 25.7907 11.4549 25.7907C11.5167 25.7907 11.6015 25.8276 11.6434 25.8727C11.6853 25.9179 11.7644 25.9556 11.8192 25.9566C11.874 25.9577 12.0289 26.0061 12.1636 26.0642C12.2982 26.1223 12.4579 26.1707 12.5184 26.1717C12.6813 26.1745 12.9786 26.3249 13.0366 26.434C13.0644 26.4863 13.0721 26.6276 13.0537 26.7479L13.0202 26.9667L8.85906 26.9808L4.69792 26.9948L4.50322 26.8714ZM8.49136 15.0606C8.75959 14.8719 8.82873 14.6489 8.82873 13.9721C8.82873 13.3593 8.75582 13.0867 8.55136 12.935C8.46147 12.8683 5.70093 12.8417 5.47654 12.9054C5.25703 12.9677 5.1569 13.3132 5.16203 13.9905C5.17083 15.151 5.21497 15.1791 7.02975 15.1791C8.26344 15.1791 8.33045 15.1737 8.49136 15.0606ZM24.8254 14.9949L25.0439 14.8107V13.986C25.0439 13.1932 25.0382 13.1555 24.8963 13.0079L24.7486 12.8544H23.2456H21.7426L21.593 12.9912C21.4276 13.1425 21.3979 13.3778 21.4214 14.3481C21.4335 14.8459 21.4381 14.8607 21.6309 15.0181L21.8281 15.1791H23.2175H24.6069L24.8254 14.9949ZM24.0955 11.6288C24.9547 11.1666 25.2256 10.6238 25.108 9.59987C25.0728 9.29265 25.043 8.81621 25.042 8.54112C25.0409 8.26603 25.0001 7.79481 24.9514 7.49396C24.9026 7.19312 24.8602 6.71314 24.8572 6.42733C24.8541 6.14153 24.8278 5.71078 24.7986 5.47011C24.7695 5.22943 24.7153 4.63869 24.6783 4.15734C24.6401 3.66216 24.5692 3.17528 24.5149 3.03601C24.3125 2.51648 23.8444 2.0638 23.2388 1.80179C23.0006 1.69873 22.7816 1.69589 15.07 1.69589H7.14603L6.79859 1.84157C6.3283 2.03875 5.94244 2.37019 5.70948 2.77708C5.53189 3.08724 5.5112 3.17928 5.46084 3.88252C5.43063 4.30443 5.37752 4.78221 5.34283 4.94426C5.30813 5.10631 5.27744 5.52475 5.2746 5.87414C5.27175 6.22352 5.24521 6.65707 5.21561 6.83758C5.186 7.01808 5.13283 7.59652 5.09747 8.123C5.06209 8.64947 5.00116 9.32303 4.96207 9.61978C4.88457 10.2079 4.92614 10.466 5.16596 10.8853C5.40642 11.3057 5.88846 11.6434 6.36715 11.7266C6.53617 11.7559 10.2319 11.7735 15.2536 11.7687L23.8507 11.7605L24.0955 11.6288ZM13.7239 25.5965C13.5724 25.5577 13.3714 25.524 13.2772 25.5216C13.183 25.5192 13.0316 25.4836 12.9407 25.4425C12.8498 25.4014 12.672 25.351 12.5455 25.3305C12.4014 25.3072 12.2798 25.2444 12.2197 25.1624C12.1281 25.0375 12.1401 25.0022 12.4802 24.39C12.9628 23.5212 12.9792 23.4961 13.3108 23.1157C13.6391 22.739 13.741 22.7123 14.124 22.9029C14.3346 23.0077 14.4587 23.0235 15.07 23.0235C15.6814 23.0235 15.8055 23.0077 16.0161 22.9029C16.1494 22.8365 16.3071 22.7823 16.3665 22.7823C16.5071 22.7823 17.3952 23.7988 17.3952 23.9596C17.3952 23.9842 17.4306 24.0432 17.4738 24.0907C17.517 24.1382 17.6447 24.3527 17.7576 24.5673C18.012 25.0513 17.9901 25.2071 17.6553 25.2964C16.3915 25.6336 16.0428 25.6829 14.9783 25.6746C14.3886 25.67 13.8897 25.639 13.7239 25.5965ZM1.97649 23.5764C1.86645 23.4579 2.01166 22.7241 2.20598 22.4166C2.2475 22.3509 2.28241 22.2525 2.28356 22.1978C2.28469 22.1432 2.33883 22.0001 2.40386 21.8797C2.46888 21.7594 2.52303 21.6238 2.52416 21.5783C2.52739 21.4499 2.82069 21.1955 2.92448 21.2311C3.00132 21.2575 3.01575 21.4415 3.01575 22.3943C3.01575 23.2017 2.9947 23.545 2.94232 23.5918C2.83251 23.69 2.07063 23.6778 1.97649 23.5764ZM27.3843 23.6188C27.3085 23.6058 27.2184 23.5482 27.1841 23.4909C27.102 23.3539 27.1318 21.2933 27.2161 21.2707C27.3614 21.2319 27.5188 21.4435 27.7177 21.9448C27.8348 22.24 27.9664 22.6045 28.0102 22.7549C28.054 22.9053 28.1197 23.0961 28.1562 23.1788C28.3167 23.542 27.9969 23.7243 27.3843 23.6188ZM12.5383 22.1737C12.5173 22.0797 12.4989 21.8274 12.4974 21.6131C12.4959 21.3987 12.4684 21.0387 12.4362 20.8131C12.4041 20.5875 12.3508 19.9229 12.3179 19.3362C12.285 18.7496 12.231 18.0112 12.1979 17.6953C12.1649 17.3794 12.1299 16.7353 12.1201 16.2639C12.0997 15.2798 12.1322 15.1974 12.628 14.9772C12.8898 14.8609 12.9617 14.8573 15.0572 14.8542C17.0635 14.8512 17.2326 14.8583 17.4436 14.955C17.8543 15.1433 17.9702 15.3032 17.9946 15.7151C18.0225 16.1872 17.8449 18.6244 17.667 20.2114C17.6181 20.6476 17.5755 21.2384 17.5723 21.5242C17.5635 22.3274 17.461 22.4896 17.1297 22.2244C16.9789 22.1038 16.9751 22.086 17.0371 21.7977C17.0726 21.6322 17.0895 21.2999 17.0746 21.0593C17.0423 20.5396 16.9192 20.2993 16.4939 19.9258C15.5716 19.1159 14.0807 19.2576 13.3411 20.2255C13.0393 20.6205 12.9574 21.0235 13.0525 21.6448C13.1171 22.0662 13.1142 22.0893 12.9828 22.2144C12.7825 22.405 12.5861 22.387 12.5383 22.1737ZM14.5937 22.192C14.3626 22.1279 14.0349 21.7988 13.9624 21.5582C13.7293 20.7843 14.3961 20.1169 15.2836 20.2358C15.5673 20.2739 15.7703 20.4027 16.0161 20.7007C16.1455 20.8576 16.1715 20.9494 16.1715 21.2507C16.1715 21.5442 16.1444 21.6451 16.028 21.7862C15.7613 22.1093 15.5848 22.1943 15.1413 22.2134C14.917 22.223 14.6706 22.2134 14.5937 22.192ZM2.27365 8.87771C1.57075 8.1873 1.48612 8.08052 1.48536 7.88315C1.48499 7.78943 1.44369 7.59192 1.39358 7.44424C1.34346 7.29656 1.30245 7.05535 1.30245 6.90822C1.30245 6.76108 1.2595 6.56645 1.207 6.47569C0.993822 6.10718 1.19657 5.88269 1.74392 5.88115C2.08579 5.8802 2.15096 5.95447 2.21967 6.42334C2.24424 6.591 2.29549 6.83894 2.33357 6.97432C2.37165 7.1097 2.41762 7.33226 2.43576 7.4689C2.46248 7.67031 2.53203 7.78221 2.80317 8.06013C2.9871 8.24867 3.15079 8.45686 3.1669 8.52278C3.18301 8.5887 3.16235 8.80263 3.121 8.99818C3.01025 9.52183 2.91573 9.50839 2.27365 8.87771ZM27.095 9.31269C27.0225 9.11874 26.9693 8.55917 27.0131 8.45319C27.0408 8.38641 27.1999 8.19477 27.3669 8.02733C27.6087 7.78477 27.6777 7.67183 27.7064 7.47168C27.7261 7.33351 27.7711 7.1097 27.8063 6.97432C27.8414 6.83894 27.8934 6.5841 27.9218 6.408C27.9894 5.9892 28.1177 5.85967 28.4218 5.90314C28.8259 5.96091 28.9745 6.04783 28.939 6.20575C28.9217 6.2825 28.8641 6.56682 28.8109 6.83758C28.5748 8.03962 28.5497 8.12753 28.3999 8.27602C28.3179 8.35732 28.0361 8.63922 27.7736 8.90245C27.3164 9.36105 27.1505 9.46134 27.095 9.31269ZM0.690556 5.4417C0.14575 5.19104 -0.0975195 4.72626 0.0358469 4.1908C0.097846 3.9419 0.155424 3.86111 0.406144 3.67116C0.697433 3.45049 0.711833 3.44625 1.17101 3.44625C1.59068 3.44625 1.66238 3.46224 1.86547 3.60113C2.11912 3.77459 2.40386 4.23451 2.40386 4.47074C2.40386 4.66161 2.16038 5.10063 1.96629 5.25974C1.61878 5.54463 1.08099 5.62133 0.690556 5.4417ZM28.5325 5.43821C28.1732 5.29246 28.0592 5.19522 27.8826 4.88392C27.6988 4.55995 27.6993 4.39461 27.8852 4.03778C28.1021 3.62127 28.4052 3.45751 28.9593 3.45751C29.3587 3.45751 29.401 3.4697 29.6601 3.65949C29.981 3.89453 30.0891 4.15946 30.0474 4.60871C29.9866 5.26461 29.1856 5.70317 28.5325 5.43821ZM6.18201 14.2919C6.00588 14.1747 5.97972 13.897 6.13196 13.7609C6.25279 13.6529 6.31662 13.6453 6.97969 13.6595L7.69674 13.6749V14.0031V14.3313L6.99194 14.3466C6.4917 14.3575 6.25663 14.3416 6.18201 14.2919ZM22.4529 14.2773C22.3927 14.2235 22.3516 14.0988 22.3516 13.9701C22.3516 13.6862 22.4482 13.6555 23.268 13.6787C23.7969 13.6937 23.923 13.7139 23.9888 13.7942C24.0717 13.8957 24.0395 14.1757 23.9331 14.2766C23.9014 14.3067 23.5782 14.3395 23.2148 14.3496C22.6631 14.3649 22.5375 14.353 22.4529 14.2773ZM6.7177 10.9404C6.68405 10.9304 6.58135 10.9074 6.48948 10.8893C6.26244 10.8446 5.9848 10.5906 5.89395 10.3445C5.85199 10.2309 5.833 10.0165 5.85078 9.85707C5.86823 9.70057 5.91234 9.15407 5.9488 8.64264C5.98527 8.1312 6.05617 7.40409 6.10635 7.02682C6.15653 6.64955 6.1985 6.13264 6.1996 5.87814C6.2007 5.62364 6.22825 5.24311 6.26084 5.03252C6.29343 4.82193 6.34497 4.33882 6.37538 3.95893C6.42432 3.34752 6.44945 3.24287 6.59433 3.04717C6.68435 2.92558 6.86054 2.76256 6.98589 2.68491L7.2138 2.54373H15.0183H22.8227L23.0614 2.69981C23.1926 2.78566 23.3453 2.90258 23.4007 2.95963C23.5896 3.15424 23.6976 3.56801 23.7029 4.11822C23.7057 4.41049 23.732 4.79731 23.7612 4.97782C23.7904 5.15832 23.8564 5.83522 23.9079 6.48203C23.9594 7.12885 24.0286 7.86728 24.0618 8.123C24.0949 8.37871 24.1298 9.01096 24.1394 9.52798L24.1567 10.468L23.9488 10.6602C23.8023 10.7956 23.6526 10.8693 23.441 10.9098C23.239 10.9485 20.468 10.9659 14.96 10.963C10.4604 10.9606 6.75135 10.9505 6.7177 10.9404Z" fill="#21140D"/>
</svg>
