<svg width="28" height="28" viewBox="0 0 28 28" fill="none" xmlns="http://www.w3.org/2000/svg">
<mask id="mask0_1970_2083" style="mask-type:alpha" maskUnits="userSpaceOnUse" x="0" y="0" width="28" height="28">
<path d="M0 27.4618V0H27.4532V27.4618H0Z" fill="white"/>
</mask>
<g mask="url(#mask0_1970_2083)">
<path fill-rule="evenodd" clip-rule="evenodd" d="M27.4555 13.7199C27.4555 21.308 21.3041 27.4594 13.716 27.4594C6.12798 27.4594 -0.0234375 21.308 -0.0234375 13.7199C-0.0234375 6.13189 6.12798 -0.0195312 13.716 -0.0195312C21.3041 -0.0195312 27.4555 6.13189 27.4555 13.7199Z" fill="#FF6339"/>
</g>
<path fill-rule="evenodd" clip-rule="evenodd" d="M7.28372 12.6646C7.28372 9.07212 10.2608 6.16016 13.9327 6.16016C17.0486 6.16016 19.6563 8.25988 20.3773 11.0897C22.3741 11.3857 23.9062 13.0675 23.9062 15.1038C23.9062 17.3491 22.0458 19.1691 19.7506 19.1691H16.4261C16.2057 19.1691 15.9943 19.0834 15.8384 18.931C15.6826 18.7785 15.595 18.5717 15.595 18.356V16.1201C15.595 15.9584 15.6607 15.8033 15.7776 15.6889C15.8945 15.5746 16.053 15.5103 16.2183 15.5103H17.4904C18.1021 15.5103 18.2729 15.0997 17.8702 14.5977L14.665 10.6019C14.2623 10.0998 13.6032 10.0998 13.2005 10.6019L9.99527 14.5977C9.59259 15.0997 9.76339 15.5103 10.3751 15.5103H11.6471C11.8125 15.5103 11.971 15.5746 12.0879 15.6889C12.2048 15.8033 12.2705 15.9584 12.2705 16.1201V18.356C12.2705 18.5717 12.1829 18.7785 12.0271 18.931C11.8712 19.0834 11.6598 19.1691 11.4394 19.1691H7.28372C6.40201 19.1691 5.55641 18.8264 4.93295 18.2165C4.30948 17.6066 3.95922 16.7794 3.95922 15.9169C3.95922 15.0543 4.30948 14.2271 4.93295 13.6172C5.55641 13.0073 6.40201 12.6646 7.28372 12.6646Z" fill="#FFFFFE"/>
</svg>
