<svg width="33" height="34" viewBox="0 0 33 34" fill="none" xmlns="http://www.w3.org/2000/svg">
<path d="M28.1875 20.25C29.3266 20.25 30.25 19.3266 30.25 18.1875C30.25 17.0484 29.3266 16.125 28.1875 16.125C27.0484 16.125 26.125 17.0484 26.125 18.1875C26.125 19.3266 27.0484 20.25 28.1875 20.25Z" fill="#C8C7CC"/>
<path d="M8.98547 5L24.5287 2.19811C25.0692 2.10068 25.5871 2.45739 25.6888 2.9971L26.0662 5L8.98547 5Z" fill="#C8C7CC"/>
<path d="M30.25 13.8381C29.6249 13.5412 28.9256 13.375 28.1875 13.375C25.5296 13.375 23.375 15.5296 23.375 18.1875C23.375 20.8454 25.5296 23 28.1875 23C28.9256 23 29.6249 22.8338 30.25 22.5369V25.75C30.25 27.2688 29.0188 28.5 27.5 28.5H5.5C3.98122 28.5 2.75 27.2688 2.75 25.75V9.25C2.75 7.73122 3.98122 6.5 5.5 6.5H27.5C29.0188 6.5 30.25 7.73122 30.25 9.25V13.8381Z" fill="#C8C7CC"/>
</svg>
