<svg width="134" height="122" viewBox="0 0 134 122" fill="none" xmlns="http://www.w3.org/2000/svg">
<path d="M67.0007 114.333C70.6826 114.333 73.6673 111.349 73.6673 107.667C73.6673 103.985 70.6826 101 67.0007 101C63.3188 101 60.334 103.985 60.334 107.667C60.334 111.349 63.3188 114.333 67.0007 114.333Z" fill="#C7C7C7"/>
<path d="M69.9333 54.3333L57.2666 41.7333L40.8666 25.4666L30.5333 15.1333L18.3999 2.93327C17.7784 2.31168 17.0404 1.81861 16.2283 1.4822C15.4161 1.1458 14.5457 0.972656 13.6666 0.972656C12.7875 0.972656 11.9171 1.1458 11.1049 1.4822C10.2928 1.81861 9.55486 2.31168 8.93328 2.93327C7.67792 4.18863 6.97266 5.89126 6.97266 7.6666C6.97266 9.44195 7.67792 11.1446 8.93328 12.3999L18.1333 21.5333L27.8666 31.2666L42.7333 46.1999L53.0666 56.4666L71.3333 74.7333L89.9333 93.3999L115.6 119.067C116.22 119.691 116.957 120.187 117.769 120.526C118.582 120.864 119.453 121.039 120.333 121.039C121.213 121.039 122.085 120.864 122.897 120.526C123.71 120.187 124.447 119.691 125.067 119.067C125.691 118.447 126.187 117.71 126.526 116.897C126.864 116.085 127.039 115.213 127.039 114.333C127.039 113.453 126.864 112.582 126.526 111.769C126.187 110.957 125.691 110.22 125.067 109.6L69.9333 54.3333ZM131.8 33.8666C114.436 17.0277 91.1877 7.62787 66.9999 7.6666C56.9364 7.69388 46.9425 9.33702 37.3999 12.5333L48.1999 23.3333C61.2786 20.0653 74.9746 20.1869 87.9931 23.6865C101.012 27.1861 112.923 33.9481 122.6 43.3333C123.836 44.5245 125.483 45.1931 127.2 45.1999C128.098 45.1965 128.986 45.0117 129.811 44.6566C130.636 44.3014 131.38 43.7833 132 43.1333C133.175 41.8644 133.811 40.1885 133.774 38.4595C133.736 36.7305 133.029 35.0836 131.8 33.8666ZM12.4666 25.3333C8.84945 27.9347 5.41884 30.7861 2.19994 33.8666C1.07486 35.1176 0.464419 36.7478 0.491072 38.4301C0.517725 40.1124 1.1795 41.7225 2.34365 42.9372C3.5078 44.152 5.08821 44.8816 6.76787 44.9798C8.44752 45.078 10.1022 44.5375 11.3999 43.4666C14.7246 40.3248 18.2912 37.4493 22.0666 34.8666L12.4666 25.3333ZM100.333 68.5999C100.951 69.2299 101.687 69.731 102.499 70.0743C103.312 70.4176 104.185 70.5963 105.067 70.5999C106.369 70.595 107.642 70.2084 108.728 69.488C109.813 68.7676 110.664 67.7449 111.174 66.5463C111.685 65.3477 111.833 64.0258 111.601 62.7439C111.369 61.462 110.766 60.2763 109.867 59.3333C104.306 53.5717 97.6489 48.9813 90.2868 45.8327C82.9247 42.6841 75.0069 41.0409 66.9999 40.9999H65.9333L81.5999 56.6666C88.7138 59.0787 95.1403 63.1724 100.333 68.5999ZM36.5333 49.3999C31.8747 52.1133 27.6124 55.4559 23.8666 59.3333C22.6378 60.6328 21.9755 62.3673 22.0255 64.1552C22.0755 65.943 22.8337 67.6378 24.1333 68.8666C25.4328 70.0954 27.1673 70.7577 28.9552 70.7077C30.743 70.6577 32.4378 69.8995 33.6666 68.5999C37.5505 64.7387 42.0582 61.5607 46.9999 59.1999L36.5333 49.3999ZM43.8666 83.6666C42.5936 84.8954 41.8608 86.5797 41.8296 88.3488C41.8141 89.2247 41.9713 90.0952 42.2922 90.9104C42.6131 91.7256 43.0915 92.4696 43.6999 93.0999C44.3084 93.7303 45.0351 94.2346 45.8384 94.5841C46.6418 94.9336 47.5061 95.1215 48.3821 95.137C50.1512 95.1682 51.8602 94.4954 53.1333 93.2666C56.5654 90.1012 60.9794 88.2089 65.6385 87.9056C70.2976 87.6022 74.9197 88.9063 78.7333 91.5999L61.9333 74.7999C55.1414 75.8235 48.8315 78.9202 43.8666 83.6666Z" fill="#C7C7C7"/>
</svg>
